<svg xmlns="http://www.w3.org/2000/svg" width="17.958" height="19.155" viewBox="0 0 17.958 19.155">
  <path id="calendar" d="M8.557,9.111h2.394v2.394H8.557Zm3.592,0h2.394v2.394H12.148Zm3.592,0h2.394v2.394H15.74ZM4.965,16.295H7.36v2.394H4.965Zm3.592,0h2.394v2.394H8.557Zm3.592,0h2.394v2.394H12.148ZM8.557,12.7h2.394V15.1H8.557Zm3.592,0h2.394V15.1H12.148Zm3.592,0h2.394V15.1H15.74Zm-10.775,0H7.36V15.1H4.965ZM18.134,1.928v1.2H15.74v-1.2H7.36v1.2H4.965v-1.2H2.571V21.083H20.529V1.928H18.134Zm1.2,17.958H3.768V6.717H19.332Z" transform="translate(-2.571 -1.928)" fill="#fff"/>
</svg>
