<svg width="90" height="76" viewBox="0 0 90 76" fill="none" xmlns="http://www.w3.org/2000/svg">
<g clip-path="url(#clip0_141_902)">
<path d="M52.1601 19.4052C55.5072 19.752 58.7656 20.0101 61.9998 20.4376C70.8959 21.6151 79.5016 23.9299 87.7848 27.406C88.9704 27.9061 89.5188 28.882 89.293 30.1563C88.0912 37.0925 86.833 44.0287 85.6636 50.973C84.8248 55.9251 83.2117 60.5788 80.2921 64.6679C75.0496 71.9993 67.8391 75.5078 58.8302 74.9997C48.6114 74.427 39.7959 66.8375 37.5134 56.8365C37.3279 56.03 37.1666 55.2234 36.9892 54.3766C34.2308 55.3363 31.3999 55.7719 28.4964 55.6267C20.3262 55.2234 13.9465 51.6101 9.3573 44.8433C6.55056 40.6977 5.02621 36.0602 4.21161 31.1403C3.09859 24.4138 1.88879 17.7115 0.71125 11.0092C0.437028 9.4445 0.904818 8.51699 2.34852 7.91208C10.922 4.323 19.8261 1.96792 29.0529 0.798446C34.6986 0.0806304 40.3605 -0.112938 46.0466 0.0644997C48.0548 0.129023 48.7323 0.677466 49.0953 2.64541C50.0712 7.94435 51.0229 13.2433 51.9907 18.5422C52.0472 18.8487 52.1117 19.1471 52.1682 19.4133M5.61498 11.4689C5.63918 11.7673 5.63918 11.9206 5.66337 12.0738C6.69574 17.9373 7.7765 23.7928 8.74434 29.6724C9.47022 34.0922 10.7445 38.2781 13.1561 42.093C20.673 53.9733 38.0054 53.9894 45.4739 42.0688C48.7323 36.8667 49.2324 31.1 48.2968 25.1961C47.2483 18.6229 45.9901 12.0899 44.861 5.53281C44.74 4.83919 44.498 4.66981 43.8286 4.66175C33.6501 4.47625 23.6733 5.7909 13.9223 8.71862C11.1317 9.55742 8.3814 10.5495 5.61498 11.477M51.4584 40.851C51.3939 40.9397 51.3536 40.98 51.3294 41.0284C49.2485 45.674 46.1272 49.4083 41.78 52.0941C41.6106 52.1989 41.4816 52.5538 41.5058 52.7796C41.5784 53.4974 41.7235 54.2153 41.8607 54.925C44.6351 69.2087 62.0886 75.2497 73.0655 65.7084C77.203 62.1112 79.4774 57.4091 80.5743 52.1505C81.5986 47.2307 82.3648 42.2705 83.252 37.3264C83.623 35.2375 83.986 33.1566 84.3651 31.0032C74.2753 27.035 63.8549 24.8735 53.0715 24.2928C53.0715 24.5025 53.0634 24.5832 53.0715 24.6557C53.6361 28.2932 53.6441 31.9307 52.9747 35.5601C52.9344 35.7698 53.0634 36.0682 53.2005 36.2457C54.2006 37.5603 56.0315 37.528 57.2332 36.1892C58.1688 35.1488 59.5076 35.0359 60.5481 35.915C61.532 36.7457 61.6934 38.1733 60.7658 39.1653C60.0884 39.8912 59.2979 40.5848 58.4188 41.0284C56.1202 42.1979 53.7732 42.1011 51.4584 40.8429" fill="#ED1B25"/>
<path d="M28.1094 40.6894C25.472 40.6248 22.7217 39.3425 20.5521 36.8341C19.5923 35.7292 19.6569 34.35 20.6812 33.4548C21.6974 32.5676 22.9959 32.6805 23.996 33.737C26.827 36.7373 31.1742 36.8261 33.7874 33.8822C34.3439 33.2612 34.7149 32.4627 35.0939 31.7046C35.6263 30.6399 36.5699 30.0592 37.6587 30.2367C38.6588 30.398 39.5218 31.269 39.5783 32.2933C39.6025 32.7611 39.4896 33.2773 39.3202 33.7209C37.6587 37.9633 33.4486 40.7458 28.1094 40.6974" fill="#ED1B25"/>
<path d="M23.1731 24.2045C22.8828 24.0351 22.1569 23.8335 21.794 23.3576C20.6406 21.8655 17.7774 22.0833 17.108 24.1561C16.6886 25.4465 15.2207 26.0192 14.0593 25.5353C12.8172 25.0191 12.3252 23.6883 12.8818 22.3494C15.0029 17.2602 21.5843 16.1311 25.254 20.2202C25.9476 20.9864 26.1573 21.8494 25.7137 22.8011C25.2943 23.7044 24.5362 24.14 23.1731 24.2045Z" fill="#ED1B25"/>
<path d="M42.4172 18.8648C42.2881 19.8488 41.6752 20.7682 40.796 21.1312C39.8766 21.5103 38.9088 21.3006 38.1909 20.486C37.4247 19.6149 36.4972 19.3245 35.4003 19.5746C34.497 19.7762 33.9244 20.3408 33.5776 21.2118C33.0775 22.47 31.7871 23.0911 30.6176 22.712C29.4158 22.3249 28.7303 20.9618 29.1981 19.752C30.1982 17.2034 32.0371 15.5661 34.7228 15.0096C37.4328 14.445 39.7476 15.2757 41.5703 17.3566C41.9413 17.7841 42.1349 18.3648 42.4091 18.881" fill="#ED1B25"/>
<path d="M69.4927 57.9088C69.4765 59.1347 68.7345 60.0219 67.5892 60.3284C66.6133 60.5865 65.581 60.1671 65.0486 59.2799C64.9277 59.0783 64.8389 58.8605 64.7502 58.6508C62.7742 54.1503 57.1769 53.2228 53.8539 56.8442C52.8377 57.9411 51.4263 58.0782 50.41 57.1668C49.4261 56.2957 49.3777 54.8762 50.3858 53.7713C53.249 50.6096 56.8542 49.4482 60.9998 50.2064C65.0244 50.9403 67.7747 53.3599 69.2991 57.1587C69.412 57.441 69.4523 57.7555 69.4927 57.9088Z" fill="#ED1B25"/>
<path d="M71.8557 44.8272C68.4521 44.8352 65.6857 42.8915 64.7098 40.0444C64.2581 38.7217 64.8066 37.4635 66.0567 36.9877C67.2504 36.5279 68.4844 37.0844 69.049 38.3507C70.0087 40.48 72.146 40.8348 73.7107 39.125C74.5979 38.1491 75.8803 38.0442 76.9127 38.8669C77.9289 39.6734 78.1225 40.9961 77.3079 42.0446C75.848 43.94 73.8478 44.7627 71.8476 44.8352" fill="#ED1B25"/>
</g>
<defs>
<clipPath id="clip0_141_902">
<rect width="88.7027" height="75.04" fill="white" transform="translate(0.638672)"/>
</clipPath>
</defs>
</svg>
