<svg width="154" height="138" viewBox="0 0 154 138" fill="none" xmlns="http://www.w3.org/2000/svg">
<path d="M103.95 20.17V7.22C103.95 3.64 101.05 0.75 97.4799 0.75H26.2699L0.379883 26.64V130.21C0.379883 133.79 3.27988 136.68 6.84988 136.68H97.4699C101.05 136.68 103.94 133.78 103.94 130.21V20.17H103.95Z" fill="#22A9CC" stroke="#330508" stroke-width="0.75" stroke-miterlimit="10"/>
<path d="M111.48 19.7899V6.84988C111.48 3.26988 108.58 0.379883 105.01 0.379883H33.7999L7.90991 26.2699V129.84C7.90991 133.42 10.8099 136.31 14.3799 136.31H105C108.58 136.31 111.47 133.41 111.47 129.84V19.7899H111.48Z" fill="#F5DE14" stroke="#330508" stroke-width="0.75" stroke-miterlimit="10"/>
<path d="M17.6199 29.5001H37.0399V10.0801" stroke="#231F20" stroke-width="0.75" stroke-miterlimit="10"/>
<path d="M146.55 13.8494C142.76 10.0594 133.27 13.3994 125.69 20.9794L82.2098 64.4594C68.9098 77.7594 53.2398 99.5694 57.0398 103.369C60.8298 107.159 82.6398 91.4994 95.9498 78.1994L139.43 34.7194C147.01 27.1394 150.35 17.6494 146.56 13.8594L146.55 13.8494Z" fill="#DD1E24" stroke="#330508" stroke-width="0.75" stroke-linecap="round" stroke-linejoin="round"/>
<path d="M51.3999 109L57.0299 103.37" stroke="#505050" stroke-width="2" stroke-miterlimit="10" stroke-linecap="round"/>
<path d="M125.69 20.9795L144 39.2895C146.53 41.8195 146.53 45.9195 144 48.4395L121.11 71.3295" stroke="#231F20" stroke-width="0.75" stroke-miterlimit="10"/>
<path d="M79.9199 66.75L93.6499 80.48" stroke="#231F20" stroke-width="2" stroke-miterlimit="10"/>
<path d="M146.55 13.8503L153.08 7.32031" stroke="#505050" stroke-width="2" stroke-miterlimit="10"/>
<path d="M130.15 34.0596C129.95 34.8696 129.65 35.6096 129.34 36.3596L127.84 38.1096C125.81 40.4196 123.66 42.6296 121.33 44.6596C120.16 45.7996 118.82 46.5896 117.18 46.8196C118.75 44.1396 121.52 42.6696 123.56 40.3596C125.84 38.3096 127.33 35.4296 130.16 34.0696L130.15 34.0596Z" fill="white"/>
<path d="M116.68 48.0297C116.85 48.7697 116.81 49.2897 116.21 49.7497L115.09 50.8997C114.21 51.6397 113.36 53.0397 112.07 52.2797C112.1 50.9797 113.17 50.6197 113.96 49.7597L115.03 48.6597C115.43 48.0397 115.92 47.9797 116.67 48.0397L116.68 48.0297Z" fill="white"/>
<path d="M34.47 116.12L37.04 119.56" stroke="#330508" stroke-width="0.75" stroke-linecap="round" stroke-linejoin="round"/>
<path d="M28.4399 114.91L36.1299 125.59" stroke="#330508" stroke-width="0.75" stroke-linecap="round" stroke-linejoin="round"/>
<path d="M26.46 119.26L31.19 125.59" stroke="#330508" stroke-width="0.75" stroke-linecap="round" stroke-linejoin="round"/>
<path d="M92.6699 22.1895L95.2399 25.6395" stroke="#330508" stroke-width="0.75" stroke-linecap="round" stroke-linejoin="round"/>
<path d="M86.6399 20.9795L94.3399 31.6695" stroke="#330508" stroke-width="0.75" stroke-linecap="round" stroke-linejoin="round"/>
<path d="M84.6599 25.3291L89.3899 31.6691" stroke="#330508" stroke-width="0.75" stroke-linecap="round" stroke-linejoin="round"/>
</svg>
