<svg width="98" height="73" viewBox="0 0 98 73" fill="none" xmlns="http://www.w3.org/2000/svg">
<g opacity="0.42">
<path d="M97.3117 15.6833C97.3117 14.5463 97.1665 13.3866 96.8761 12.2779C94.9722 5.00908 87.7491 0.0396805 79.0511 0.0142254C68.921 -0.0140581 58.7942 0.00856872 48.6641 0.00856872C38.5934 0.00856872 28.5194 -0.0140581 18.4487 0.0142254C7.96219 0.0453372 0.00989912 6.91539 0.00329971 15.901C0 29.6807 0.00659942 43.4633 0 57.243C0 59.1408 0.359668 60.9792 1.1252 62.7554C3.81446 68.9891 10.536 72.9771 18.4487 72.9827C34.4951 72.9969 50.5416 72.9884 66.5881 72.9884C70.7985 72.9884 75.009 73.0195 79.2194 72.9799C89.333 72.8837 97.315 65.9741 97.3249 57.3165C97.3381 43.4378 97.3381 29.5591 97.3084 15.6833H97.3117ZM62.2589 38.8898C55.3196 42.4649 48.3704 46.0286 41.4344 49.6121C40.3224 50.1863 39.2038 50.356 38.0522 49.7959C36.8973 49.2359 36.4981 48.3337 36.508 47.2137V25.7833C36.4981 24.6661 36.8907 23.761 38.0456 23.1982C39.1972 22.6382 40.3158 22.8022 41.4278 23.3764C48.3638 26.9599 55.313 30.5236 62.2523 34.1015C64.6677 35.3459 64.671 37.6454 62.2589 38.887V38.8898Z" fill="white"/>
</g>
</svg>
