<svg width="115" height="115" viewBox="0 0 115 115" fill="none" xmlns="http://www.w3.org/2000/svg">
<g id="Group 90">
<circle id="Ellipse 2" cx="57.5" cy="57.5" r="57.5" fill="#E6B569"/>
<path id="Vector" fill-rule="evenodd" clip-rule="evenodd" d="M113.316 69.345C109.452 91.9551 91.6122 109.794 69.0027 113.658L20.4971 78.8551C16.1358 64.8019 23 67.779 23 58C23 40.615 42.4049 28.6543 59.7899 28.6543C69.5689 28.6543 81.2264 35.0043 87 42L113.316 69.345Z" fill="#9D7536"/>
<path id="Vector_2" d="M57.5081 79.9894C46.1703 79.9894 34.8325 79.9894 23.4971 79.9894C20.7756 79.9894 19.6729 79.1104 19.0793 76.4825C14.883 57.8503 25.0884 38.5218 42.837 31.4899C64.9509 22.7275 89.4095 35.0241 95.5556 58.0307C97.2473 64.3617 97.2679 70.7497 95.7679 77.1309C95.3273 79.0031 93.9734 79.9848 91.8615 79.9848C80.4096 79.9894 68.96 79.9871 57.5081 79.9871V79.9894ZM57.5218 35.4556C55.3506 35.7205 53.1474 35.8346 51.0104 36.2707C36.0243 39.3369 25.2733 52.4395 25.1386 67.711C25.1226 69.5123 26.2619 70.7977 27.9194 70.8548C29.5427 70.9095 30.755 69.631 30.8691 67.8594C30.9696 66.2726 31.0632 64.6699 31.3463 63.1106C33.9011 49.0742 47.4214 39.1908 62.1245 41.7661C63.6564 42.0355 65.1541 42.5286 66.6518 42.9715C68.8458 43.6199 70.7979 42.0651 70.4965 39.8506C70.3344 38.6656 69.6107 37.9259 68.4988 37.5241C64.9555 36.2456 61.3026 35.6155 57.5218 35.4579V35.4556ZM56.7935 76.0556C63.0012 76.1013 66.9417 70.663 65.1655 65.4073C64.9578 64.7932 65.0559 64.4553 65.5011 64.0192C68.5422 61.0193 71.5536 57.9896 74.5741 54.9691C76.5078 53.0353 78.4599 51.1221 80.364 49.161C81.985 47.4897 81.2338 44.8596 79.0101 44.3231C77.8389 44.04 76.9142 44.4966 76.0923 45.3208C71.2065 50.2203 66.3048 55.1038 61.4258 60.0124C61.008 60.4325 60.6793 60.5078 60.0994 60.3252C56.8003 59.2796 53.8689 60.0079 51.5333 62.5375C49.2068 65.0557 48.7502 68.0625 50.0972 71.1858C51.4648 74.357 54.0424 75.9209 56.798 76.0602L56.7935 76.0556Z" fill="white"/>
</g>
</svg>
