<svg width="27" height="31" viewBox="0 0 27 31" fill="none" xmlns="http://www.w3.org/2000/svg">
<rect x="1.5" y="1.5" width="24" height="24" stroke="#81E700" stroke-width="3"/>
<path d="M12.4005 8.502V13.236L11.4465 14.082C11.1105 13.758 10.8765 13.32 10.7445 12.768C10.6125 12.204 10.5465 11.484 10.5465 10.608C10.5465 9.78 10.6005 9.09 10.7085 8.538C10.8165 7.986 11.0025 7.554 11.2665 7.242C11.5425 6.918 11.9145 6.69 12.3825 6.558C12.8505 6.414 13.4505 6.342 14.1825 6.342C14.5665 6.342 14.9505 6.366 15.3345 6.414C15.7185 6.45 16.0905 6.51 16.4505 6.594C16.8225 6.666 17.1585 6.756 17.4585 6.864L17.1705 8.736C16.6425 8.604 16.1385 8.508 15.6585 8.448C15.1785 8.376 14.7105 8.34 14.2545 8.34C13.8705 8.34 13.5225 8.352 13.2105 8.376C12.8985 8.4 12.6285 8.442 12.4005 8.502ZM12.8865 20.922C12.1425 20.922 11.5305 20.856 11.0505 20.724C10.5705 20.604 10.1985 20.388 9.93445 20.076C9.67045 19.776 9.47845 19.35 9.35845 18.798C9.25045 18.258 9.19645 17.568 9.19645 16.728C9.19645 15.624 9.44245 14.742 9.93445 14.082C10.4385 13.41 11.2425 12.924 12.3465 12.624C13.4505 12.312 14.9085 12.156 16.7205 12.156V13.83C14.7525 13.83 13.3125 14.016 12.4005 14.388C11.4885 14.748 11.0325 15.36 11.0325 16.224V18.78C11.3325 18.828 11.6805 18.864 12.0765 18.888C12.4845 18.924 12.9405 18.942 13.4445 18.942C13.9245 18.942 14.3985 18.906 14.8665 18.834C15.3465 18.774 15.9165 18.672 16.5765 18.528L16.8105 20.4C16.3185 20.568 15.7305 20.694 15.0465 20.778C14.3625 20.874 13.6425 20.922 12.8865 20.922Z" fill="#81E700"/>
<path d="M21 31L17.5359 25L24.4641 25L21 31Z" fill="#81E700"/>
</svg>
