<svg width="150" height="103" viewBox="0 0 150 103" fill="none" xmlns="http://www.w3.org/2000/svg">
<g id="Layer_1" clip-path="url(#clip0_501_315)">
<path id="Vector" d="M6.46683 27.0632L8.22559 37.8345H8.27608L10.1022 26.2456L17.0867 24.6611V45.0491L12.4163 45.2936V30.7042L12.3658 30.7211L9.87496 45.4368L6.66879 45.6054L4.42195 32.1707L4.37987 32.1792V45.7318L0.643555 45.9257V28.3864L6.46683 27.0632Z" fill="white"/>
<path id="Vector_2" d="M24.5677 22.967V44.6446L18.9548 44.948V24.2397L24.5677 22.967Z" fill="white"/>
<path id="Vector_3" d="M33.0923 21.037V29.9204L33.1596 29.912L38.3349 19.8486L46.4808 18.0112L39.0334 30.2575L47.4401 43.414L38.6379 43.886L34.5145 35.955L33.0923 38.0621V44.1895L26.7136 44.5266V22.4782L33.0923 21.037Z" fill="white"/>
<path id="Vector_4" d="M70.161 12.6509V18.9384L57.3027 21.3826V26.0518L69.2859 24.1302V30.1395L57.3027 31.6398V37.076L70.6912 35.8623V42.1751L48.4836 43.3635V17.5561L70.161 12.6509Z" fill="white"/>
<path id="Vector_5" d="M4.69123 57.1774C5.70105 57.2364 6.45841 57.6831 6.94649 58.5428C7.44298 59.4024 7.69544 60.5318 7.69544 61.9225C7.69544 62.4029 7.66178 62.8665 7.59446 63.3132C7.52713 63.7599 7.41774 64.156 7.28309 64.51C7.14004 64.8555 6.96332 65.1505 6.74453 65.3781C6.52573 65.6057 6.26486 65.7489 5.9535 65.8079V65.8585C6.31535 65.9596 6.6183 66.1535 6.87917 66.4569C7.14004 66.7603 7.35883 67.1143 7.51872 67.5357C7.68702 67.9571 7.81325 68.4038 7.88898 68.8927C7.96472 69.3815 8.0068 69.8619 8.0068 70.3424C8.0068 71.1346 7.93948 71.851 7.81325 72.5C7.68702 73.1405 7.48506 73.6799 7.22419 74.1014C6.95491 74.5228 6.60988 74.8178 6.18913 74.9863C5.76837 75.1549 5.26346 75.1718 4.68282 75.0453L0.643555 74.1182V56.9583L4.69123 57.1774ZM3.9507 64.0886C4.23682 64.1223 4.45561 63.9706 4.60708 63.6334C4.75855 63.2963 4.83429 62.8833 4.83429 62.3945C4.83429 61.9056 4.75855 61.4505 4.60708 61.0712C4.45561 60.692 4.23682 60.4897 3.9507 60.4644L3.29432 60.4054V64.0043L3.9507 64.0886ZM4.05168 71.556C4.30414 71.6066 4.53976 71.4717 4.74172 71.1515C4.94369 70.8312 5.04467 70.2918 5.04467 69.5417C5.04467 68.8421 4.94369 68.2859 4.74172 67.8897C4.53976 67.4936 4.31255 67.2745 4.05168 67.2407L3.28591 67.1228V71.4127L4.05168 71.556Z" fill="white"/>
<path id="Vector_6" d="M9.05022 62.2682C9.19328 61.0545 9.4289 60.0769 9.75709 59.3267C10.0853 58.5682 10.5229 58.0288 11.0699 57.7001C11.6253 57.3629 12.3069 57.2197 13.1316 57.2618C13.9647 57.304 14.6799 57.5315 15.269 57.9361C15.8665 58.3491 16.3546 58.9812 16.7164 59.8324C17.0867 60.6921 17.356 61.7794 17.5243 63.111C17.6841 64.4427 17.7683 66.0525 17.7683 67.9236C17.7683 69.7947 17.6841 71.3792 17.5243 72.6687C17.356 73.9498 17.0951 74.9696 16.7164 75.7197C16.3461 76.4698 15.8581 76.9503 15.269 77.161C14.6799 77.3801 13.9647 77.3885 13.1316 77.2031C12.3153 77.0177 11.6253 76.689 11.0699 76.2339C10.5229 75.7787 10.0853 75.1297 9.75709 74.2785C9.4289 73.4357 9.19328 72.3906 9.05022 71.1432C8.90716 69.8958 8.83984 68.4124 8.83984 66.6762C8.83984 64.94 8.90716 63.4734 9.05022 62.2682ZM12.0713 70.3172C12.0965 71.1685 12.1386 71.8512 12.2143 72.3653C12.29 72.8794 12.3994 73.2502 12.5425 73.4694C12.6856 73.6969 12.8791 73.8318 13.1231 73.8824C13.3672 73.9329 13.5607 73.8739 13.7122 73.6969C13.8553 73.5284 13.9731 73.1912 14.0488 72.7024C14.1245 72.2051 14.175 71.5309 14.2003 70.6712C14.2255 69.8115 14.2339 68.7327 14.2339 67.4179C14.2339 66.1031 14.2255 65.0243 14.2003 64.1561C14.175 63.288 14.1245 62.5969 14.0488 62.0828C13.9731 61.5687 13.8553 61.2062 13.7122 60.9955C13.5607 60.7848 13.3672 60.6668 13.1231 60.65C12.8791 60.6331 12.6856 60.709 12.5425 60.8944C12.3994 61.0798 12.29 61.4169 12.2143 61.9142C12.1386 62.4031 12.0881 63.0773 12.0713 63.9201C12.046 64.763 12.0376 65.8249 12.0376 67.1145C12.0376 68.404 12.046 69.466 12.0713 70.3172Z" fill="white"/>
<path id="Vector_7" d="M22.2958 58.1383L23.516 64.3078H23.558L24.7951 58.2816L29.3729 58.5344L25.9311 68.9097L29.6506 80.6081L25.0559 79.5799L23.558 72.9131L23.516 72.9047L22.0601 78.9056L18.0293 78.0038L21.2691 68.2691L18.1976 57.9192L22.3042 58.1468L22.2958 58.1383Z" fill="white"/>
<path id="Vector_8" d="M34.6658 58.8208V81.7289L30.2227 80.7344V58.5764L34.6658 58.8208Z" fill="white"/>
<path id="Vector_9" d="M42.1976 59.2338L45.5721 74.666L45.631 74.6744V59.4193L50.8315 59.7058V85.3446L44.7726 83.9877L41.3224 68.3701L41.2635 68.3617V83.2039L36.6941 82.1756V58.9304L42.1976 59.2338Z" fill="white"/>
<path id="Vector_10" d="M70.6911 74.034V89.7864L65.844 88.6992L65.6925 86.1791L65.6168 86.1623C65.398 86.7186 65.0782 87.1484 64.6743 87.4518C64.2704 87.7552 63.816 87.9491 63.3195 88.0334C62.823 88.1176 62.3012 88.1345 61.7374 88.0839C61.182 88.0334 60.6266 87.9491 60.0712 87.8227C58.4387 87.4518 57.1764 86.8787 56.2676 86.0864C55.3672 85.311 54.694 84.2996 54.2395 83.0523C53.7851 81.8133 53.5074 80.3468 53.3896 78.6443C53.2718 76.9418 53.2129 75.0201 53.2129 72.854C53.2129 70.688 53.3223 68.7495 53.5495 67.0891C53.7767 65.4287 54.2059 64.0465 54.8454 62.9424C55.4934 61.8299 56.3854 61.0039 57.5467 60.4645C58.7248 59.9166 60.2648 59.6891 62.2003 59.7902C63.3784 59.8492 64.4808 60.0768 65.499 60.4729C66.534 60.869 67.4345 61.4843 68.2002 62.3018C68.9744 63.1278 69.5803 64.1729 70.0263 65.4372C70.4723 66.7014 70.6995 68.2185 70.6995 69.98L63.8664 69.2383C63.8664 67.7549 63.7486 66.6677 63.5046 65.9681C63.2606 65.1422 62.7472 64.7039 61.9562 64.6365C61.4092 64.5943 60.9801 64.6955 60.6687 64.9483C60.3573 65.2012 60.1217 65.6732 59.9702 66.3727C59.8188 67.0638 59.7262 68.0162 59.6757 69.213C59.6252 70.4098 59.6084 71.9185 59.6084 73.7474C59.6084 75.5764 59.6336 77.085 59.6757 78.2987C59.7262 79.5124 59.8188 80.4816 59.9702 81.2233C60.1217 81.965 60.3405 82.496 60.635 82.8331C60.9296 83.1702 61.3251 83.3894 61.8132 83.4821C62.1666 83.5495 62.4864 83.5411 62.7641 83.44C63.0418 83.3388 63.2774 83.0944 63.4709 82.7067C63.6645 82.319 63.816 81.7459 63.9254 81.0042C64.0347 80.2541 64.0937 79.2848 64.0937 78.088L61.7122 77.7003V72.854L70.708 74.0424L70.6911 74.034Z" fill="white"/>
<path id="Vector_11" d="M0.643555 53.3425L70.6911 54.6995V48.0664L0.643555 49.4149V53.3425Z" fill="white"/>
<path id="Vector_12" d="M0.643555 24.8971L70.6911 6.64148V0L0.643555 20.9695V24.8971Z" fill="white"/>
<path id="Vector_13" d="M0.643555 81.7965L70.6911 102.766V96.1245L0.643555 77.8689V81.7965Z" fill="white"/>
<path id="Vector_14" d="M79.6702 19.4272V13.0891L98.621 17.3201V22.9586L93.3616 21.9725V42.4954L85.7795 42.0739V20.565L79.6702 19.4272Z" fill="white"/>
<path id="Vector_15" d="M99.4119 17.4971L106.312 19.0394L108.576 27.847L108.635 27.8554L110.823 20.0424L116.831 21.3825L111.496 34.3368V43.5236L105.589 43.1865V33.6204L99.4119 17.4971Z" fill="white"/>
<path id="Vector_16" d="M124.06 28.6139C124.06 27.9818 123.951 27.4171 123.732 26.9283C123.513 26.4394 123.168 26.1445 122.705 26.0517C122.192 25.9506 121.805 26.0686 121.561 26.4142C121.317 26.7597 121.19 27.1811 121.19 27.6615C121.19 28.3695 121.392 28.9679 121.779 29.4483C122.175 29.9287 122.655 30.367 123.244 30.7547C123.824 31.1424 124.43 31.547 125.087 31.9515C125.726 32.3561 126.324 32.8365 126.871 33.4012C127.418 33.9659 127.864 34.657 128.217 35.483C128.571 36.3005 128.747 37.3288 128.747 38.5762C128.747 40.7507 128.234 42.293 127.207 43.2117C126.155 44.1472 124.607 44.5687 122.52 44.4591C121.51 44.4001 120.61 44.2568 119.81 44.0208C119.011 43.7764 118.321 43.3971 117.757 42.8746C117.193 42.3436 116.756 41.6778 116.453 40.8518C116.15 40.0258 115.998 39.0229 115.998 37.8429V37.0506L120.946 37.5732V38.0873C120.946 39.0229 121.098 39.6887 121.392 40.0932C121.687 40.4894 122.074 40.7085 122.537 40.7507C123.033 40.7928 123.412 40.6242 123.673 40.245C123.934 39.8741 124.06 39.3937 124.06 38.8206C124.06 38.1295 123.883 37.5563 123.513 37.1096C123.151 36.6629 122.688 36.2584 122.125 35.896C121.561 35.5336 120.938 35.1627 120.265 34.7666C119.583 34.3705 118.944 33.89 118.355 33.3085C117.757 32.7269 117.252 32.0021 116.848 31.1256C116.444 30.249 116.242 29.1449 116.242 27.8133C116.242 25.5208 116.789 23.8857 117.875 22.9249C118.935 21.9725 120.526 21.7449 122.587 22.2169C124.657 22.6804 126.105 23.5233 126.988 24.7369C127.855 25.9337 128.293 27.6278 128.293 29.8276L124.043 29.0859V28.5802L124.06 28.6139Z" fill="white"/>
<path id="Vector_17" d="M129.639 29.5411C129.841 28.2432 130.169 27.2234 130.624 26.4733C131.078 25.7316 131.667 25.2512 132.391 25.032C133.106 24.8129 133.973 24.8213 134.983 25.0489C135.976 25.2764 136.8 25.6389 137.465 26.153C138.122 26.6587 138.643 27.3414 139.039 28.2095C139.434 29.0607 139.712 30.1227 139.88 31.3785C140.049 32.6259 140.133 34.1261 140.133 35.8539C140.133 37.5817 140.049 39.0567 139.88 40.2619C139.712 41.4672 139.434 42.4533 139.039 43.195C138.643 43.9451 138.122 44.476 137.465 44.771C136.8 45.0745 135.976 45.2009 134.983 45.1419C133.973 45.0829 133.106 44.8638 132.391 44.4761C131.667 44.0799 131.078 43.4478 130.624 42.5881C130.169 41.7116 129.841 40.599 129.639 39.2421C129.437 37.8851 129.336 36.2501 129.336 34.3537C129.336 32.4573 129.437 30.8475 129.639 29.5496V29.5411ZM133.678 38.2391C133.704 39.1157 133.771 39.8152 133.864 40.3293C133.956 40.8519 134.091 41.2143 134.267 41.4334C134.444 41.6526 134.68 41.7706 134.983 41.7959C135.277 41.8211 135.513 41.7369 135.69 41.5599C135.858 41.3744 135.993 41.0373 136.085 40.54C136.178 40.0428 136.237 39.3769 136.262 38.5257C136.287 37.6744 136.304 36.6125 136.304 35.3229C136.304 34.0334 136.287 32.963 136.262 32.1033C136.237 31.2437 136.178 30.561 136.085 30.0384C135.993 29.5159 135.866 29.145 135.69 28.909C135.513 28.6815 135.286 28.5298 134.983 28.4708C134.688 28.4118 134.453 28.4708 134.267 28.6309C134.091 28.7995 133.956 29.1282 133.864 29.6254C133.771 30.1227 133.712 30.8054 133.678 31.6651C133.653 32.5332 133.636 33.6204 133.636 34.9437C133.636 36.2669 133.653 37.3626 133.678 38.2307V38.2391Z" fill="white"/>
<path id="Vector_18" d="M144.719 27.6027L146.798 38.8123H146.84V28.0747L149.718 28.7153V45.6645L146.326 45.4791L144.147 34.3116L144.113 34.3032V45.3527L140.899 45.1757V26.7515L144.719 27.6027Z" fill="white"/>
<path id="Vector_19" d="M94.9183 64.9146C94.5396 64.4004 93.9169 64.1813 93.0501 64.2487C92.3685 64.3077 91.8215 64.4847 91.4176 64.7966C91.0052 65.1084 90.6855 65.631 90.4751 66.3558C90.2563 67.0891 90.1216 68.0583 90.0459 69.272C89.9786 70.4857 89.9449 72.0112 89.9449 73.8485C89.9449 75.6859 89.9786 77.1946 90.0459 78.3914C90.1132 79.5882 90.2563 80.5237 90.4751 81.1896C90.6939 81.8554 91.0052 82.2937 91.4176 82.4875C91.8299 82.6814 92.3769 82.7151 93.0501 82.5802C93.5971 82.4707 94.0431 82.2768 94.3965 81.9987C94.7416 81.7205 95.0108 81.316 95.2044 80.7934C95.3895 80.2709 95.5242 79.5798 95.6083 78.7454C95.6841 77.911 95.7261 76.8659 95.7261 75.61L103.712 74.3627V76.2169C103.712 77.9615 103.434 79.4449 102.862 80.6754C102.29 81.9144 101.533 82.9595 100.573 83.8192C99.5971 84.6873 98.4779 85.3784 97.1819 85.901C95.8692 86.4235 94.4975 86.8534 93.0585 87.1821C90.5003 87.7636 88.3461 88.008 86.6125 87.8985C84.8454 87.7973 83.44 87.2579 82.4218 86.2887C81.3867 85.311 80.663 83.9035 80.2759 82.083C79.8804 80.2456 79.6785 77.97 79.6785 75.2645C79.6785 72.559 79.9141 70.1401 80.3853 68.1679C80.8566 66.2125 81.6476 64.6027 82.75 63.3553C83.844 62.1164 85.2577 61.1893 86.9828 60.5824C88.6658 59.984 90.7023 59.63 93.0585 59.512C95.0697 59.4109 96.7275 59.512 98.0739 59.8323C99.3951 60.1442 100.447 60.6246 101.246 61.2735C102.037 61.9141 102.61 62.7063 102.963 63.6503C103.317 64.5859 103.493 65.6647 103.493 66.8783V68.446L95.4821 69.3731V67.8982C95.4821 66.3979 95.297 65.395 94.9183 64.8893V64.9146Z" fill="white"/>
<path id="Vector_20" d="M113.634 58.9304V77.2366L121.535 75.7533V80.4225L106.464 83.7854V59.3265L113.634 58.9304Z" fill="white"/>
<path id="Vector_21" d="M128.503 73.0816C128.503 74.093 128.646 74.7335 128.941 75.0201C129.227 75.2982 129.622 75.3909 130.119 75.2982C130.607 75.1971 130.994 74.9611 131.272 74.5734C131.549 74.1941 131.684 73.5114 131.684 72.5253V57.9528L136.615 57.6831V70.3845C136.615 71.7415 136.481 72.8961 136.203 73.857C135.925 74.8178 135.53 75.6353 135 76.2927C134.461 76.9586 133.796 77.4811 132.988 77.8688C132.172 78.2565 131.213 78.5768 130.11 78.8296C129 79.0825 127.998 79.2005 127.098 79.1836C126.189 79.1668 125.415 78.9392 124.792 78.4757C124.161 78.0121 123.673 77.3041 123.336 76.3602C123 75.4162 122.831 74.1772 122.831 72.6601V58.4332L128.503 58.1214V73.0816Z" fill="white"/>
<path id="Vector_22" d="M145.241 57.2026C146.671 57.1267 147.698 57.4639 148.354 58.214C148.994 58.9557 149.314 59.9755 149.314 61.2734C149.314 61.7201 149.272 62.1668 149.179 62.6051C149.095 63.0434 148.96 63.4479 148.775 63.8104C148.59 64.1812 148.354 64.5099 148.068 64.788C147.782 65.0662 147.42 65.2853 147.008 65.4454V65.496C147.496 65.4792 147.908 65.5719 148.253 65.7826C148.59 65.9849 148.868 66.2545 149.087 66.6001C149.305 66.9372 149.457 67.3165 149.558 67.7464C149.659 68.1678 149.709 68.606 149.709 69.0527C149.709 69.786 149.625 70.4855 149.465 71.143C149.305 71.8004 149.053 72.3903 148.708 72.9129C148.363 73.4354 147.908 73.8906 147.336 74.2698C146.764 74.6491 146.057 74.9357 145.224 75.1211L138.744 76.5708V57.5566L145.224 57.2026H145.241ZM144.147 64.3582C144.576 64.3076 144.896 64.0885 145.115 63.7008C145.333 63.3215 145.443 62.8832 145.443 62.3944C145.443 61.9056 145.333 61.4673 145.115 61.1217C144.896 60.7762 144.576 60.616 144.147 60.6497L143.137 60.734V64.4678L144.147 64.3413V64.3582ZM144.298 71.9352C144.677 71.8594 145.014 71.6149 145.308 71.202C145.594 70.789 145.737 70.2074 145.737 69.4573C145.737 68.7578 145.594 68.2436 145.308 67.9233C145.022 67.6031 144.685 67.4682 144.298 67.5272L143.137 67.7042V72.1543L144.298 71.9352Z" fill="white"/>
<path id="Vector_23" d="M79.6702 54.6995L149.718 53.3425V49.4149L79.6702 48.0664V54.6995Z" fill="white"/>
<path id="Vector_24" d="M79.6702 6.64148L149.718 24.8971V20.9695L79.6702 0V6.64148Z" fill="white"/>
<path id="Vector_25" d="M79.6702 102.766L149.718 81.7965V77.8689L79.6702 96.1245V102.766Z" fill="white"/>
</g>
<defs>
<clipPath id="clip0_501_315">
<rect width="149.074" height="102.766" fill="white" transform="translate(0.643555)"/>
</clipPath>
</defs>
</svg>
