<svg width="115" height="115" viewBox="0 0 115 115" fill="none" xmlns="http://www.w3.org/2000/svg">
<circle cx="57.5" cy="57.5" r="57.5" fill="#E6B569"/>
<path fill-rule="evenodd" clip-rule="evenodd" d="M112.93 69.7359C109.066 92.346 91.2266 110.184 68.6172 114.049L31.7623 85.1551C24.7663 79.3815 27.9265 70.302 27.9265 60.523C27.9265 43.138 21.9963 36.9381 39.3814 36.9381C49.1604 36.9381 82.6863 33.5764 88.4599 40.5721L112.93 69.7359Z" fill="#9D7536"/>
<path d="M26.475 45.4058H88.4908C88.5045 45.7076 88.5285 45.9941 88.5285 46.2823C88.5302 57.4953 88.5302 68.71 88.5285 79.9229C88.5285 83.1632 86.3201 85.7213 83.0692 86.2244C82.5651 86.3028 82.049 86.3386 81.538 86.3403C65.0623 86.3454 48.5883 86.3454 32.1126 86.3454C28.7417 86.3454 26.6207 84.3194 26.4887 80.9615C26.4578 80.1958 26.475 79.4301 26.475 78.6643C26.475 67.8556 26.475 57.0451 26.475 46.2363V45.4092V45.4058ZM76.1593 56.5028C76.1593 55.7166 76.1696 54.9304 76.1576 54.1459C76.1421 53.1158 75.5557 52.5224 74.527 52.5138C72.9684 52.5019 71.4098 52.5019 69.8512 52.5138C68.9099 52.5207 68.2789 53.0562 68.2515 53.9805C68.2035 55.6142 68.2069 57.2514 68.2481 58.8852C68.2703 59.7635 68.8224 60.3365 69.7055 60.3621C71.3909 60.4098 73.0798 60.4098 74.7636 60.3569C75.6895 60.328 76.1336 59.7908 76.1541 58.8613C76.1713 58.0751 76.1576 57.2906 76.1593 56.5045V56.5028ZM56.7687 77.6803C57.5369 77.6803 58.3067 77.6906 59.0749 77.6786C60.1414 77.6616 60.6678 77.1926 60.6935 76.1318C60.7295 74.5612 60.7278 72.9888 60.6969 71.4181C60.6763 70.4068 60.0951 69.827 59.092 69.8082C57.5129 69.7792 55.932 69.7775 54.3511 69.8099C53.3412 69.8321 52.7908 70.4324 52.7823 71.4437C52.7703 72.9717 52.7703 74.5015 52.7823 76.0312C52.7908 77.0937 53.3807 77.665 54.4626 77.6803C55.2307 77.6906 56.0006 77.682 56.7687 77.6803ZM76.1576 73.8415H76.161C76.161 73.0348 76.1713 72.2265 76.1576 71.4198C76.1404 70.4546 75.5917 69.8355 74.6264 69.8134C73.0044 69.7758 71.3807 69.7775 69.7586 69.8134C68.8739 69.8338 68.2823 70.3778 68.2566 71.2459C68.2086 72.9223 68.2086 74.6004 68.2652 76.2768C68.2943 77.1346 68.9236 77.6616 69.7981 77.6718C71.4201 77.6906 73.0438 77.6906 74.6658 77.6701C75.6072 77.6582 76.1267 77.1312 76.1524 76.1966C76.1747 75.4122 76.1576 74.626 76.1576 73.8398V73.8415ZM56.743 52.5104C55.9749 52.5104 55.205 52.5019 54.4369 52.5121C53.3875 52.5258 52.7943 53.0903 52.784 54.1186C52.7685 55.6688 52.7703 57.219 52.784 58.7692C52.7925 59.7379 53.3344 60.3484 54.3134 60.3723C55.956 60.4149 57.602 60.4115 59.2446 60.3655C60.1705 60.3382 60.6489 59.8794 60.6746 58.9773C60.7226 57.3009 60.7261 55.6228 60.6746 53.9464C60.6472 53.0476 60.0231 52.5326 59.1126 52.5138C58.3222 52.4985 57.5317 52.5104 56.743 52.5104ZM37.5068 73.7204C37.5068 74.5066 37.4948 75.2928 37.5102 76.079C37.5291 77.0698 38.1155 77.665 39.1134 77.6769C40.6308 77.694 42.1465 77.6923 43.6639 77.6769C44.6601 77.6667 45.3734 77.08 45.4111 76.0926C45.4729 74.481 45.4574 72.8643 45.4077 71.251C45.382 70.4017 44.8213 69.8492 43.9709 69.8253C42.306 69.781 40.6377 69.7792 38.9728 69.8236C38.0743 69.8475 37.5342 70.4682 37.5136 71.3636C37.4948 72.1497 37.5102 72.9359 37.5085 73.7221L37.5068 73.7204ZM37.5068 56.4226C37.5068 57.1883 37.4982 57.9523 37.5085 58.7181C37.5222 59.7311 38.0503 60.3467 39.0551 60.374C40.6137 60.4166 42.174 60.4149 43.7325 60.3706C44.7339 60.3416 45.3906 59.7038 45.4197 58.7198C45.4643 57.1491 45.4609 55.575 45.4129 54.0044C45.3854 53.0698 44.7664 52.5241 43.8337 52.5155C42.2528 52.5019 40.672 52.5019 39.0911 52.5155C38.1275 52.5241 37.5325 53.1141 37.5102 54.0658C37.4913 54.8519 37.5068 55.6381 37.5051 56.4243L37.5068 56.4226Z" fill="white"/>
<path d="M75.9776 28.742C76.1044 28.7011 76.1644 28.6653 76.2227 28.6653C78.4449 28.6977 80.6824 28.592 82.8857 28.8085C85.5605 29.0712 87.8632 31.3206 88.285 33.7491C88.3245 33.9776 88.3416 34.2146 88.3416 34.4466C88.3451 36.7216 88.3433 38.9966 88.3433 41.3142H26.5041C26.5041 38.7697 26.4887 36.2628 26.5179 33.7559C26.523 33.2767 26.6653 32.7872 26.8128 32.3251C27.5603 29.9597 29.3538 28.6585 31.8383 28.6551C33.6301 28.6533 35.4218 28.6551 37.2959 28.6551C37.2959 28.945 37.2959 29.1718 37.2959 29.3969C37.2959 31.0136 37.2856 32.632 37.2993 34.2487C37.3113 35.4937 38.1121 36.3344 39.242 36.3327C40.3736 36.3293 41.1589 35.4954 41.1675 34.2402C41.1812 32.412 41.1709 30.5839 41.1709 28.7062H72.058C72.07 28.9228 72.094 29.1479 72.094 29.3713C72.0974 31.0307 72.082 32.6917 72.1042 34.3511C72.1163 35.3129 72.6684 36.0292 73.5068 36.2713C74.2715 36.4913 75.1837 36.2202 75.5935 35.521C75.8267 35.1219 75.9467 34.6052 75.9604 34.1379C76.005 32.5638 75.9776 30.9897 75.9776 29.414C75.9776 29.1854 75.9776 28.9569 75.9776 28.7403V28.742Z" fill="white"/>
</svg>
