<svg width="38" height="33" viewBox="0 0 38 33" fill="none" xmlns="http://www.w3.org/2000/svg">
<path d="M32.935 5H27.5675L26.9425 3.125C26.6413 2.21458 26.0605 1.42242 25.2828 0.861328C24.5051 0.300234 23.5702 -0.00118246 22.6113 3.48628e-06H14.8888C13.93 -0.000729079 12.9955 0.300883 12.2181 0.861932C11.4408 1.42298 10.8601 2.21489 10.5587 3.125L9.9325 5H4.565C3.35469 5.00133 2.19434 5.48271 1.33852 6.33852C0.482702 7.19434 0.00132346 8.3547 0 9.565V27.94C0.00264576 29.1494 0.484608 30.3085 1.34028 31.1633C2.19596 32.018 3.35556 32.4987 4.565 32.5H32.94C34.1494 32.4974 35.3085 32.0154 36.1633 31.1597C37.018 30.304 37.4987 29.1444 37.5 27.935V9.56C37.4974 8.35056 37.0154 7.19149 36.1597 6.33675C35.304 5.48202 34.1444 5.00132 32.935 5ZM35 27.935C34.9993 28.4825 34.7816 29.0073 34.3944 29.3944C34.0073 29.7816 33.4825 29.9993 32.935 30H4.565C4.01753 29.9993 3.49267 29.7816 3.10556 29.3944C2.71844 29.0073 2.50066 28.4825 2.5 27.935V9.56C2.50198 9.0134 2.72034 8.48983 3.10732 8.10379C3.49429 7.71775 4.0184 7.50066 4.565 7.5H10.8337C11.096 7.4998 11.3515 7.41713 11.5642 7.26369C11.7769 7.11025 11.9359 6.89381 12.0187 6.645L12.93 3.91125C13.0668 3.50007 13.3297 3.14242 13.6813 2.8891C14.0329 2.63577 14.4554 2.49963 14.8888 2.5H22.6113C23.0448 2.49953 23.4675 2.63578 23.8191 2.88937C24.1708 3.14296 24.4335 3.50098 24.57 3.9125L25.4813 6.645C25.5641 6.89381 25.7231 7.11025 25.9358 7.26369C26.1485 7.41713 26.404 7.4998 26.6663 7.5H32.935C33.4825 7.50067 34.0073 7.71844 34.3944 8.10556C34.7816 8.49268 34.9993 9.01754 35 9.565V27.935Z" fill="black"/>
<path d="M18.75 8.75C16.8958 8.75 15.0832 9.29983 13.5415 10.33C11.9998 11.3601 10.7982 12.8243 10.0886 14.5373C9.37906 16.2504 9.19341 18.1354 9.55514 19.954C9.91688 21.7725 10.8098 23.443 12.1209 24.7541C13.432 26.0652 15.1025 26.9581 16.921 27.3199C18.7396 27.6816 20.6246 27.4959 22.3377 26.7864C24.0507 26.0768 25.5149 24.8752 26.545 23.3335C27.5752 21.7918 28.125 19.9792 28.125 18.125C28.1224 15.6394 27.1338 13.2564 25.3762 11.4988C23.6186 9.74122 21.2356 8.75265 18.75 8.75ZM18.75 25C17.3903 25 16.061 24.5968 14.9305 23.8414C13.7999 23.0859 12.9187 22.0122 12.3983 20.7559C11.878 19.4997 11.7418 18.1174 12.0071 16.7838C12.2724 15.4501 12.9272 14.2251 13.8886 13.2636C14.8501 12.3022 16.0751 11.6474 17.4088 11.3821C18.7424 11.1168 20.1247 11.253 21.381 11.7733C22.6372 12.2937 23.7109 13.1749 24.4664 14.3055C25.2218 15.436 25.625 16.7653 25.625 18.125C25.623 19.9478 24.8981 21.6953 23.6092 22.9842C22.3203 24.273 20.5728 24.998 18.75 25Z" fill="black"/>
</svg>
