<svg width="117" height="117" viewBox="0 0 117 117" fill="none" xmlns="http://www.w3.org/2000/svg">
<path d="M59.4319 10.198L60.4449 0L64.9699 0.405217C65.5777 0.472754 66.118 0.607826 66.5232 0.810435C66.9284 1.01304 67.1986 1.28319 67.4012 1.55333C67.6038 1.89101 67.6713 2.2287 67.7388 2.63391C67.8064 3.03913 67.7388 3.51188 67.7388 3.98464C67.6713 4.45739 67.6038 4.86261 67.5362 5.26783C67.4687 5.67304 67.2661 6.01073 66.9959 6.28087C66.7258 6.55101 66.4557 6.75362 65.9829 6.8887C65.5777 7.02377 65.0374 7.02377 64.362 6.95623L61.458 6.75362L61.1203 10.333L59.4319 10.198ZM61.593 5.33536L63.8217 5.53797C64.2945 5.60551 64.6322 5.60551 64.9699 5.53797C65.24 5.53797 65.4426 5.4029 65.5777 5.26783C65.7128 5.13275 65.8478 4.93015 65.8478 4.72754C65.9154 4.52493 65.9829 4.18725 65.9829 3.84957C66.0504 3.51188 66.0504 3.1742 66.0504 2.90406C66.0504 2.63391 65.9829 2.4313 65.8478 2.29623C65.7128 2.16116 65.5777 2.02609 65.3075 1.95855C65.0374 1.89101 64.6997 1.82348 64.227 1.75594L61.9983 1.55333L61.593 5.33536Z" fill="white"/>
<path d="M68.6168 11.3461L71.3183 1.48581L72.9391 1.95856L70.5754 10.4006L74.9652 11.6162L74.56 13.0345L68.6168 11.3461Z" fill="white"/>
<path d="M74.8977 12.967L82.6644 5.40289L84.6229 6.3484L83.4748 17.1542L81.9215 16.4113L82.1916 13.7774L78.3421 11.8864L76.451 13.7774L74.8977 12.967ZM79.3551 10.7383L82.3942 12.2241L82.9345 7.29391H82.867L79.3551 10.7383Z" fill="white"/>
<path d="M85.5009 18.7075L87.662 15.6684L88.4724 8.30695L89.8907 9.31999L89.2829 14.7904L89.3504 14.858L94.2806 12.4942L95.6988 13.5072L89.0127 16.6814L86.8516 19.7206L85.5009 18.7075Z" fill="white"/>
<path d="M94.4156 26.6768L100.021 17.4243L101.169 18.7751L96.5768 26.3391L96.6443 26.4067L104.884 23.1649L105.964 24.4481L95.8339 28.3652L94.4156 26.6768Z" fill="white"/>
<path d="M98.6704 32.2823L107.383 26.8794L108.261 28.2977L99.5484 33.7006L98.6704 32.2823Z" fill="white"/>
<path d="M100.832 35.7267L110.219 31.6745L111.57 34.7136C111.907 35.5241 112.178 36.1994 112.313 36.6722C112.448 37.2125 112.515 37.6852 112.448 38.0229C112.38 38.3606 112.178 38.7658 111.907 39.0359C111.637 39.3061 111.165 39.5762 110.692 39.8464C110.152 40.1165 109.544 40.4542 108.733 40.7919C107.99 41.1296 107.315 41.3997 106.707 41.6023C106.167 41.8049 105.694 41.94 105.221 41.94C104.816 41.94 104.411 41.8725 104.141 41.6699C103.803 41.4673 103.533 41.1296 103.195 40.6568C102.925 40.1841 102.587 39.5762 102.25 38.7658L100.832 35.7267ZM102.79 36.6722L103.398 38.0904C103.601 38.6307 103.803 39.0359 104.006 39.3061C104.141 39.6438 104.343 39.8464 104.546 39.9815C104.749 40.1165 104.951 40.1841 105.221 40.1841C105.492 40.1841 105.829 40.1165 106.302 39.9139C106.775 39.7788 107.315 39.5087 107.99 39.2386C108.666 38.9684 109.206 38.6983 109.611 38.4957C110.016 38.293 110.354 38.0904 110.557 37.8878C110.759 37.6852 110.894 37.4826 110.894 37.2125C110.894 36.9423 110.894 36.6722 110.759 36.3345C110.624 35.9968 110.489 35.5916 110.287 35.0513L109.679 33.633L102.79 36.6722Z" fill="white"/>
<path d="M104.411 44.709L114.406 42.4803L115.892 49.0988L114.474 49.4365L113.393 44.4388L110.557 45.0467L111.502 49.369L110.084 49.7067L109.139 45.3843L106.167 46.0597L107.248 51.0574L105.829 51.3951L104.411 44.709Z" fill="white"/>
<path d="M106.099 56.933C106.099 56.1226 106.099 55.4472 106.167 54.907C106.234 54.3667 106.37 53.9614 106.64 53.6238C106.842 53.2861 107.18 53.0835 107.585 52.9484C107.99 52.8133 108.463 52.6783 109.071 52.6107C109.679 52.5432 110.422 52.5432 111.232 52.4756C112.11 52.4756 112.785 52.4756 113.393 52.4756C114.001 52.4756 114.474 52.5432 114.879 52.6783C115.284 52.8133 115.622 53.0159 115.825 53.3536C116.027 53.6913 116.23 54.0965 116.365 54.5693C116.5 55.1096 116.567 55.7849 116.567 56.5954C116.567 57.4058 116.567 58.0812 116.5 58.6214C116.432 59.1617 116.297 59.567 116.027 59.9046C115.825 60.2423 115.487 60.4449 115.082 60.58C114.676 60.7151 114.204 60.8501 113.596 60.9177C112.988 60.9852 112.245 60.9852 111.435 61.0528C110.557 61.0528 109.881 61.0528 109.274 61.0528C108.666 61.0528 108.193 60.9177 107.788 60.8501C107.383 60.7151 107.045 60.5125 106.842 60.1748C106.64 59.9046 106.437 59.4319 106.302 58.9591C106.167 58.4864 106.167 57.7435 106.099 56.933ZM107.585 56.933C107.585 57.4058 107.653 57.811 107.653 58.1487C107.72 58.4864 107.788 58.689 107.923 58.8916C108.058 59.0942 108.261 59.2293 108.531 59.2968C108.801 59.3643 109.206 59.4319 109.679 59.4319C110.152 59.4319 110.759 59.4319 111.502 59.4319C112.245 59.4319 112.853 59.3643 113.326 59.3643C113.798 59.2968 114.136 59.2293 114.406 59.1617C114.676 59.0942 114.879 58.8916 115.014 58.7565C115.149 58.6214 115.217 58.2838 115.217 58.0136C115.217 57.6759 115.217 57.2707 115.217 56.798C115.217 56.3252 115.149 55.92 115.149 55.5823C115.082 55.2446 115.014 55.042 114.879 54.8394C114.744 54.6368 114.541 54.5017 114.271 54.4342C114.001 54.3667 113.596 54.2991 113.123 54.2991C112.65 54.2991 112.043 54.2991 111.3 54.2991C110.557 54.2991 109.949 54.3667 109.476 54.3667C109.003 54.4342 108.666 54.4342 108.396 54.5693C108.125 54.6368 107.923 54.7719 107.788 54.9745C107.653 55.1771 107.585 55.4472 107.585 55.7174C107.518 56.0551 107.518 56.4603 107.585 56.933Z" fill="white"/>
<path d="M105.627 66.2531L107.315 66.5907L106.977 68.3467L105.289 68.009L105.627 66.2531Z" fill="#81E700"/>
<path d="M104.884 69.6299L106.505 70.0351L106.032 71.791L104.411 71.3858L104.884 69.6299Z" fill="#81E700"/>
<path d="M103.938 73.0067L105.559 73.5469L104.951 75.2354L103.33 74.6951L103.938 73.0067Z" fill="#81E700"/>
<path d="M102.723 76.2484L104.276 76.9238L103.601 78.5446L102.047 77.8693L102.723 76.2484Z" fill="#81E700"/>
<path d="M99.6836 82.7319L108.058 88.6075L105.424 92.3896C105.086 92.9298 104.681 93.2675 104.344 93.5377C104.006 93.7403 103.601 93.8754 103.263 93.8754C102.925 93.8754 102.52 93.8078 102.182 93.6052C101.777 93.4026 101.439 93.2 101.034 92.9298C100.629 92.6597 100.291 92.3896 100.021 92.1194C99.7511 91.8493 99.5485 91.5116 99.4134 91.1739C99.2783 90.8362 99.2783 90.431 99.3459 90.0258C99.4134 89.6206 99.6835 89.0803 100.089 88.54L101.71 86.1762L98.738 84.1501L99.6836 82.7319ZM102.858 86.9867L101.575 88.8101C101.304 89.2154 101.102 89.4855 101.034 89.7556C100.899 90.0258 100.899 90.2284 100.967 90.431C101.034 90.6336 101.102 90.7687 101.304 90.9713C101.507 91.1064 101.71 91.309 102.047 91.5116C102.317 91.7142 102.588 91.8493 102.858 91.9843C103.06 92.1194 103.263 92.1194 103.466 92.1194C103.668 92.1194 103.871 91.9843 104.073 91.7817C104.276 91.5791 104.479 91.309 104.749 90.9038L106.032 89.0803L102.858 86.9867Z" fill="white"/>
<path d="M94.2131 90.1609L101.439 97.3872L100.224 98.6029L94.0105 92.4571L90.8363 95.6988L89.8232 94.5507L94.2131 90.1609Z" fill="white"/>
<path d="M89.6206 94.8209L92.4571 105.289L90.6336 106.572L81.7864 100.291L83.2046 99.2783L85.3658 100.832L88.8777 98.3328L88.1348 95.7664L89.6206 94.8209ZM89.418 99.8185L86.649 101.71L90.6336 104.614L90.7012 104.546L89.418 99.8185Z" fill="white"/>
<path d="M79.4226 101.304L81.0434 104.681L87.0542 109.003L85.4333 109.746L80.9759 106.505L80.9084 106.572L80.5707 112.043L79.0173 112.786L79.5576 105.424L77.9368 102.047L79.4226 101.304Z" fill="white"/>
<path d="M68.1441 105.154L73.4119 114.609L71.7235 114.947L67.4012 107.248H67.3336L66.118 116.027L64.4296 116.365L65.9829 105.694L68.1441 105.154Z" fill="white"/>
<path d="M61.1878 106.099L61.593 116.297L59.9046 116.365L59.4994 106.167L61.1878 106.099Z" fill="white"/>
<path d="M57.1357 106.302L56.1227 116.5L52.8134 116.162C51.9354 116.095 51.2601 115.96 50.7198 115.825C50.1795 115.69 49.7743 115.487 49.5041 115.217C49.234 114.947 49.0314 114.677 48.8963 114.271C48.7612 113.866 48.7612 113.393 48.7612 112.786C48.7612 112.178 48.8288 111.502 48.8963 110.624C48.9638 109.814 49.0989 109.071 49.1665 108.463C49.234 107.855 49.4366 107.383 49.5717 107.045C49.7067 106.707 50.0444 106.37 50.3821 106.234C50.7198 106.032 51.1925 105.964 51.7328 105.897C52.2731 105.829 53.016 105.897 53.8264 105.964L57.1357 106.302ZM55.3122 107.518L53.8264 107.383C53.2862 107.315 52.8134 107.315 52.4757 107.315C52.138 107.315 51.8004 107.315 51.5978 107.45C51.3951 107.518 51.1925 107.72 51.0575 107.99C50.9224 108.261 50.8549 108.598 50.7873 109.071C50.7198 109.544 50.6522 110.152 50.5847 110.827C50.5172 111.57 50.4496 112.11 50.4496 112.583C50.4496 113.056 50.4496 113.393 50.5172 113.663C50.5847 113.934 50.7198 114.136 50.9224 114.271C51.125 114.406 51.3951 114.474 51.7328 114.541C52.0705 114.609 52.5433 114.677 53.0836 114.744L54.5694 114.879L55.3122 107.518Z" fill="white"/>
<path d="M47.5456 105.019L44.574 114.812L38.0229 112.853L38.4282 111.502L43.3583 112.988L44.1687 110.152L39.914 108.868L40.3192 107.518L44.574 108.801L45.4519 105.897L40.5218 104.411L40.927 103.06L47.5456 105.019Z" fill="white"/>
<path d="M35.9968 100.494C36.7397 100.899 37.28 101.237 37.6852 101.574C38.0905 101.912 38.4281 102.25 38.5632 102.588C38.6983 102.925 38.7658 103.33 38.6983 103.736C38.6307 104.141 38.4957 104.614 38.2255 105.154C37.9554 105.694 37.6852 106.37 37.28 107.112C36.8748 107.855 36.5371 108.531 36.1994 109.003C35.8618 109.476 35.5916 109.881 35.2539 110.219C34.9163 110.557 34.5786 110.692 34.2409 110.759C33.9032 110.827 33.4305 110.759 32.8902 110.624C32.3499 110.489 31.7421 110.219 31.0667 109.814C30.3238 109.409 29.7835 109.071 29.3783 108.733C28.9731 108.396 28.6354 108.058 28.5003 107.72C28.3652 107.383 28.2977 106.977 28.3652 106.572C28.4328 106.167 28.5678 105.694 28.838 105.154C29.1081 104.614 29.3783 103.938 29.7835 103.195C30.1887 102.452 30.5264 101.777 30.8641 101.304C31.2018 100.832 31.4719 100.426 31.8096 100.089C32.1473 99.8186 32.4849 99.6159 32.8226 99.5484C33.2278 99.4809 33.6331 99.5484 34.1734 99.6835C34.6461 99.8861 35.3215 100.156 35.9968 100.494ZM35.3215 101.777C34.9163 101.574 34.511 101.372 34.2409 101.237C33.9707 101.102 33.7006 101.034 33.498 101.102C33.2954 101.102 33.0928 101.237 32.8902 101.439C32.6876 101.642 32.485 101.912 32.2148 102.317C31.9447 102.723 31.6745 103.263 31.3368 103.938C30.9992 104.614 30.729 105.154 30.5264 105.559C30.3238 105.964 30.1887 106.37 30.1887 106.64C30.1212 106.91 30.1887 107.18 30.2563 107.383C30.3913 107.585 30.5264 107.788 30.7965 107.923C31.0667 108.126 31.4044 108.328 31.8771 108.531C32.2823 108.733 32.6876 108.936 32.9577 109.071C33.2278 109.206 33.498 109.274 33.7006 109.206C33.9032 109.206 34.1058 109.071 34.3084 108.868C34.511 108.666 34.7136 108.396 34.9838 107.99C35.2539 107.585 35.5241 107.045 35.8618 106.37C36.1994 105.694 36.4696 105.154 36.6722 104.749C36.8748 104.343 37.0099 103.938 37.0774 103.668C37.145 103.398 37.0774 103.128 37.0099 102.925C36.8748 102.723 36.7397 102.52 36.4696 102.385C36.1319 102.182 35.7942 101.98 35.3215 101.777Z" fill="white"/>
<path d="M28.2301 95.4962L27.1496 96.7794L25.7988 95.6313L26.8794 94.3481L28.2301 95.4962Z" fill="#81E700"/>
<path d="M25.5286 93.2L24.313 94.4157L23.0298 93.2L24.2454 91.9843L25.5286 93.2Z" fill="#81E700"/>
<path d="M23.0974 90.7687L21.8142 91.9168L20.5985 90.5661L21.8817 89.418L23.0974 90.7687Z" fill="#81E700"/>
<path d="M20.8012 88.0672L19.4505 89.0803L18.3699 87.662L19.7206 86.649L20.8012 88.0672Z" fill="#81E700"/>
<path d="M16.6815 82.2591L7.49652 86.7165L5.47043 82.5968C5.20029 81.989 5.06522 81.5162 4.99768 81.111C4.99768 80.7058 5.06522 80.3006 5.20029 79.9629C5.4029 79.6252 5.60551 79.3551 5.94319 79.0849C6.28087 78.8148 6.68609 78.6122 7.0913 78.4096C7.49652 78.207 7.90174 78.0719 8.30696 77.9368C8.71217 77.8017 9.04985 77.8017 9.45507 77.8693C9.79275 77.9368 10.198 78.0719 10.4681 78.4096C10.8058 78.6797 11.0759 79.1525 11.4136 79.7603L12.6293 82.3267L15.871 80.7733L16.6815 82.2591ZM11.4136 82.9345L10.4681 80.9759C10.2655 80.5707 10.0629 80.233 9.92783 80.0304C9.72522 79.8278 9.59014 79.6928 9.38754 79.6252C9.18493 79.5577 8.98232 79.5577 8.77971 79.6252C8.5771 79.6928 8.23942 79.8278 7.96928 79.9629C7.63159 80.098 7.36145 80.3006 7.15884 80.4357C6.95623 80.5707 6.82116 80.7058 6.75362 80.9084C6.68609 81.111 6.68609 81.3136 6.75362 81.5838C6.82116 81.8539 6.95623 82.1916 7.15884 82.5968L8.17188 84.6229L11.4136 82.9345Z" fill="white"/>
<path d="M12.8994 73.8171L3.03913 76.5861L2.63391 74.9652L11.0759 72.6015L9.86029 68.2116L11.2785 67.8064L12.8994 73.8171Z" fill="white"/>
<path d="M11.0759 67.5362L0.540255 64.8348L0.337646 62.6736L10.1304 58.0811L10.2655 59.8371L7.83417 60.9852L8.23939 65.3075L10.8058 65.9153L11.0759 67.5362ZM6.82112 64.9023L6.48344 61.593L2.02605 63.6191V63.6867L6.82112 64.9023Z" fill="white"/>
<path d="M10.4681 55.5148L6.68609 55.2446L0 58.3513L0.135072 56.5954L5.13275 54.2991V54.1641L0.54029 51.1925L0.675362 49.5041L6.8887 53.6238L10.6707 53.8939L10.4681 55.5148Z" fill="white"/>
<path d="M12.5618 43.7635H1.75598L2.29627 42.1426H11.1435V42.0751L4.18729 36.7397L4.72758 35.1188L13.3047 41.7374L12.5618 43.7635Z" fill="white"/>
<path d="M15.1956 37.28L6.07825 32.62L6.82115 31.1342L15.9385 35.7942L15.1956 37.28Z" fill="white"/>
<path d="M17.0191 33.633L8.64465 27.7574L10.6032 25.0559C11.076 24.3806 11.5487 23.7727 11.9539 23.3675C12.3591 22.9623 12.6968 22.6922 13.102 22.5571C13.5073 22.422 13.8449 22.422 14.2502 22.4896C14.6554 22.6246 15.1281 22.8272 15.6009 23.0974C16.1412 23.4351 16.6815 23.7727 17.4244 24.313C18.0997 24.7858 18.7076 25.2585 19.1803 25.5962C19.6531 26.0014 19.9907 26.3391 20.1933 26.6768C20.396 27.0145 20.531 27.3522 20.531 27.7574C20.531 28.1626 20.396 28.5678 20.1258 29.1081C19.8557 29.5809 19.518 30.1887 18.9777 30.9316L17.0191 33.633ZM16.8165 31.4719L17.6945 30.2562C18.0322 29.7835 18.3023 29.4458 18.4374 29.1081C18.64 28.7704 18.7076 28.5003 18.7751 28.2977C18.7751 28.0951 18.7076 27.8249 18.5725 27.6223C18.4374 27.4197 18.1673 27.1496 17.762 26.8119C17.4244 26.5417 16.8841 26.1365 16.3438 25.7313C15.736 25.3261 15.2632 24.9884 14.858 24.7182C14.4528 24.4481 14.1151 24.313 13.8449 24.2455C13.5748 24.178 13.3047 24.178 13.102 24.313C12.8994 24.4481 12.6968 24.5832 12.4267 24.9209C12.2241 25.191 11.9539 25.5287 11.6162 26.0014L10.8058 27.2171L16.8165 31.4719Z" fill="white"/>
<path d="M22.8273 25.8664L15.736 18.5049L20.6661 13.7774L21.6792 14.7904L17.9647 18.3699L19.9907 20.4635L23.1649 17.4244L24.178 18.4374L20.9363 21.4765L23.0299 23.6377L26.7444 20.0583L27.7574 21.0713L22.8273 25.8664Z" fill="white"/>
<path d="M32.4174 18.0322C31.742 18.5049 31.1342 18.7751 30.6614 18.9777C30.1887 19.1803 29.7159 19.2478 29.3783 19.2478C28.973 19.2478 28.6354 19.1127 28.2977 18.8426C27.96 18.5725 27.6223 18.2348 27.2846 17.762C26.947 17.2893 26.5417 16.6814 26.069 15.9385C25.5962 15.1956 25.2585 14.5878 24.9209 14.0475C24.6507 13.5072 24.4481 13.0345 24.313 12.6293C24.2455 12.2241 24.2455 11.8188 24.3806 11.4812C24.5156 11.1435 24.7858 10.7383 25.191 10.4006C25.5962 10.0629 26.1365 9.65768 26.8119 9.18492C27.4872 8.71217 28.0951 8.44202 28.5678 8.23941C29.0406 8.03681 29.5133 7.96927 29.9185 7.96927C30.3238 7.96927 30.6614 8.10434 30.9991 8.37449C31.3368 8.64463 31.6745 8.98231 32.0122 9.45507C32.3499 9.92782 32.7551 10.5356 33.2278 11.2785C33.7006 12.0214 34.0383 12.6293 34.3759 13.1696C34.6461 13.7098 34.8487 14.1826 34.9838 14.5878C35.0513 14.993 35.0513 15.3983 34.9162 15.7359C34.7812 16.0736 34.511 16.4788 34.1058 16.8165C33.633 17.2217 33.0927 17.627 32.4174 18.0322ZM31.607 16.8165C32.0122 16.5464 32.3498 16.3438 32.62 16.1412C32.8901 15.9385 33.0252 15.7359 33.1603 15.5333C33.2278 15.3307 33.2278 15.1281 33.1603 14.7904C33.0927 14.5203 32.9577 14.1826 32.6875 13.7774C32.4849 13.3722 32.1472 12.8319 31.742 12.2241C31.3368 11.6162 30.9991 11.0759 30.729 10.6707C30.4588 10.2655 30.1887 9.99536 29.9861 9.86028C29.7835 9.72521 29.5133 9.59014 29.3107 9.59014C29.1081 9.59014 28.838 9.65767 28.5678 9.79275C28.2977 9.92782 27.96 10.1304 27.4872 10.4006C27.082 10.6707 26.7443 10.8733 26.4742 11.0759C26.2041 11.2785 26.069 11.4812 25.9339 11.6838C25.8664 11.8864 25.7988 12.1565 25.9339 12.4267C26.0014 12.6968 26.1365 13.0345 26.4067 13.4397C26.6093 13.8449 26.947 14.3852 27.3522 14.993C27.7574 15.6009 28.0951 16.1412 28.3652 16.5464C28.6354 16.9516 28.9055 17.2217 29.1081 17.4243C29.3107 17.6269 29.5809 17.6945 29.7835 17.6945C29.9861 17.6945 30.2562 17.6269 30.5264 17.4919C30.7965 17.3568 31.2017 17.0867 31.607 16.8165Z" fill="white"/>
<path d="M40.5893 13.7099L39.9814 12.089L41.6699 11.4812L42.2777 13.102L40.5893 13.7099Z" fill="#81E700"/>
<path d="M43.8985 12.4942L43.4258 10.8733L45.1142 10.4006L45.5869 12.0214L43.8985 12.4942Z" fill="#81E700"/>
<path d="M47.2078 11.5487L46.8701 9.8603L48.6261 9.45508L48.9637 11.1435L47.2078 11.5487Z" fill="#81E700"/>
<path d="M50.6521 10.8733L50.382 9.18494L52.1379 8.91479L52.408 10.6032L50.6521 10.8733Z" fill="#81E700"/>
</svg>
