<svg width="310" height="256" viewBox="0 0 310 256" fill="none" xmlns="http://www.w3.org/2000/svg">
<path d="M126.725 196.912L189.874 190.634L186.865 175.852L114.43 183.575L126.725 196.912Z" fill="#5B9E07"/>
<path d="M105.324 172.013L117.876 110.828L132.799 115.593L117.506 185.758L105.324 172.013Z" fill="#81E700"/>
<path d="M265.326 153.104C231.064 183.844 174.732 212.301 134.992 168.008C94.0958 122.426 129.629 70.7884 163.891 40.0481C198.153 9.30786 231.056 25.469 259.066 56.6885C287.076 87.9079 299.588 122.364 265.326 153.104Z" fill="#81E700"/>
<path d="M265.326 153.104C231.065 183.844 174.732 212.301 134.993 168.008L259.066 56.6885C287.077 87.9079 299.588 122.364 265.326 153.104Z" fill="#5B9E07"/>
<path d="M226.104 75.7391L236.566 87.3994L224.906 97.861L214.444 86.2008L226.104 75.7391Z" fill="#3B3B3B"/>
<path d="M247.027 99.0592L257.489 110.719L245.829 121.181L235.367 109.521L247.027 99.0592Z" fill="#1D1D1D"/>
<path d="M205.181 52.4183L215.642 64.0785L203.982 74.5402L193.52 62.8799L205.181 52.4183Z" fill="#3B3B3B"/>
<path d="M202.784 96.6628L213.246 108.323L201.586 118.785L191.124 107.125L202.784 96.6628Z" fill="#3B3B3B"/>
<path d="M223.707 119.983L234.169 131.643L222.508 142.105L212.047 130.445L223.707 119.983Z" fill="#1D1D1D"/>
<path d="M181.86 73.3419L192.322 85.0022L180.662 95.4639L170.2 83.8036L181.86 73.3419Z" fill="#3B3B3B"/>
<path d="M179.464 117.586L189.926 129.246L178.265 139.708L167.804 128.048L179.464 117.586Z" fill="#3B3B3B"/>
<path d="M231.507 81.569L236.566 87.3278L224.735 97.8606L219.675 92.1019L231.507 81.569Z" fill="#1D1D1D"/>
<path d="M208.186 102.493L213.245 108.251L201.413 118.784L196.354 113.026L208.186 102.493Z" fill="#1D1D1D"/>
<path d="M184.865 123.416L189.925 129.175L178.093 139.708L173.034 133.949L184.865 123.416Z" fill="#1D1D1D"/>
<path d="M200.65 140.906L210.849 152.461L198.925 163.028L188.727 151.473L200.65 140.906Z" fill="#1D1D1D"/>
<path d="M158.54 94.2653L169.002 105.926L157.341 116.387L146.88 104.727L158.54 94.2653Z" fill="#3B3B3B"/>
<path d="M98.3537 225.07L130.091 196.595L105.831 169.555L74.0934 198.03L68.3482 191.627L41.9967 215.27L77.9606 255.354L104.312 231.711L98.3537 225.07Z" fill="#3B3B3B"/>
<path d="M59.8853 235.207L77.9608 255.354L104.312 231.711L98.3539 225.07L130.092 196.595L118.068 183.193L59.8853 235.207Z" fill="#1D1D1D"/>
<path d="M69 163C107.108 163 138 132.108 138 94C138 55.8923 107.108 25 69 25C30.8923 25 0 55.8923 0 94C0 132.108 30.8923 163 69 163Z" fill="#81E700"/>
<path fill-rule="evenodd" clip-rule="evenodd" d="M69.0003 25.0001C107.108 25.0001 138 55.8925 138 94C138 132.108 107.108 163 69.0003 163C67.5513 163 66.1144 162.95 64.6875 162.862C100.785 160.635 129.375 130.659 129.375 94C129.375 57.3412 100.785 27.365 64.6875 25.1381C66.1141 25.0501 67.5513 25.0001 69.0003 25.0001Z" fill="#5B9E07"/>
<path fill-rule="evenodd" clip-rule="evenodd" d="M36.7013 98.0969C33.7878 95.416 33.5995 90.8806 36.2804 87.9671C38.9613 85.0536 43.4967 84.8653 46.4102 87.5462L61.1083 101.044L91.4755 71.9695C94.3269 69.2264 98.8622 69.3144 101.605 72.1658C104.348 75.0173 104.26 79.5526 101.409 82.2956L66.3515 115.861C63.6559 118.641 59.2192 118.781 56.3525 116.144L36.7013 98.0969Z" fill="#1D1D1D"/>
</svg>
