<svg width="53" height="40" viewBox="0 0 53 40" fill="none" xmlns="http://www.w3.org/2000/svg">
<path d="M25.5066 20.4878V31.2195H10.7057L13.7018 20.4878H25.5066ZM39.2627 20.4878L42.2579 31.2195H27.4579V20.4878H39.2627ZM10.1613 33.1707H42.8032L44.7096 40H8.25493L10.1613 33.1707ZM46.7349 40L41.2891 20.4878H46.2871L52.9057 38.6907C53.0145 38.9897 52.9707 39.323 52.7882 39.5837C52.6058 39.8444 52.3078 39.9998 51.9896 40H46.7349ZM38.7457 0.617561L42.3564 9.7561H38.2949L35.572 2.98217e-07H37.8383C38.2389 8.87958e-05 38.5987 0.244976 38.7457 0.617561ZM16.694 9.7561L18.0598 4.87805H25.5066V9.7561H16.694ZM33.5466 2.98217e-07L34.3642 2.92683H18.6003L19.4179 2.98217e-07H33.5466ZM27.4579 4.87805H34.9086L36.2744 9.7561H27.4579V4.87805ZM15.1271 2.98217e-07H17.3925L14.6696 9.7561H10.6091L14.2188 0.617561C14.366 0.244645 14.7262 -0.000311975 15.1271 2.98217e-07ZM5.01884 12.6829C5.01884 12.1441 5.45563 11.7073 5.99445 11.7073H46.9701C47.5089 11.7073 47.9457 12.1441 47.9457 12.6829V17.561C47.9457 18.0998 47.5089 18.5366 46.9701 18.5366H5.99445C5.45563 18.5366 5.01884 18.0998 5.01884 17.561V12.6829ZM6.67737 20.4878H11.6754L6.22957 40H0.974933C0.65675 39.9998 0.358667 39.8444 0.176253 39.5837C-0.00616043 39.323 -0.0499831 38.9897 0.0588354 38.6907L6.67737 20.4878Z" fill="white"/>
</svg>
