<svg width="53" height="40" viewBox="0 0 53 40" fill="none" xmlns="http://www.w3.org/2000/svg">
<path d="M25.5066 20.4877V31.2195H10.7057L13.7018 20.4877H25.5066ZM39.2627 20.4877L42.2579 31.2195H27.4579V20.4877H39.2627ZM10.1613 33.1707H42.8032L44.7096 39.9999H8.25493L10.1613 33.1707ZM46.7349 39.9999L41.2891 20.4877H46.2871L52.9057 38.6907C53.0145 38.9897 52.9707 39.3229 52.7882 39.5836C52.6058 39.8443 52.3078 39.9997 51.9896 39.9999H46.7349ZM38.7457 0.6175L42.3564 9.75604H38.2949L35.572 -6.07369e-05H37.8383C38.2389 2.77606e-05 38.5987 0.244915 38.7457 0.6175ZM16.694 9.75604L18.0598 4.87799H25.5066V9.75604H16.694ZM33.5466 -6.07369e-05L34.3642 2.92677H18.6003L19.4179 -6.07369e-05H33.5466ZM27.4579 4.87799H34.9086L36.2744 9.75604H27.4579V4.87799ZM15.1271 -6.07369e-05H17.3925L14.6696 9.75604H10.6091L14.2188 0.6175C14.366 0.244584 14.7262 -0.00037301 15.1271 -6.07369e-05ZM5.01884 12.6829C5.01884 12.1441 5.45563 11.7073 5.99445 11.7073H46.9701C47.5089 11.7073 47.9457 12.1441 47.9457 12.6829V17.5609C47.9457 18.0997 47.5089 18.5365 46.9701 18.5365H5.99445C5.45563 18.5365 5.01884 18.0997 5.01884 17.5609V12.6829ZM6.67737 20.4877H11.6754L6.22957 39.9999H0.974933C0.65675 39.9997 0.358667 39.8443 0.176253 39.5836C-0.00616043 39.3229 -0.0499831 38.9897 0.0588354 38.6907L6.67737 20.4877Z" fill="#81E700"/>
</svg>
