<svg width="583" height="534" viewBox="0 0 583 534" fill="none" xmlns="http://www.w3.org/2000/svg">
<mask id="mask0_133_1594" style="mask-type:alpha" maskUnits="userSpaceOnUse" x="0" y="0" width="583" height="534">
<rect width="583" height="534" fill="#D9D9D9"/>
</mask>
<g mask="url(#mask0_133_1594)">
<g opacity="0.2">
<path d="M305.92 88.9535C330.484 88.9535 350.396 69.0405 350.396 44.4767C350.396 19.9129 330.484 0 305.92 0C281.356 0 261.443 19.9129 261.443 44.4767C261.443 69.0405 281.356 88.9535 305.92 88.9535Z" fill="#81E700"/>
<path d="M156.316 88.9535C180.88 88.9535 200.793 69.0405 200.793 44.4767C200.793 19.9129 180.88 0 156.316 0C131.752 0 111.839 19.9129 111.839 44.4767C111.839 69.0405 131.752 88.9535 156.316 88.9535Z" fill="#81E700"/>
<path d="M7.08036 88.9535C31.6442 88.9535 51.5571 69.0405 51.5571 44.4767C51.5571 19.9129 31.6442 0 7.08036 0C-17.4835 0 -37.3964 19.9129 -37.3964 44.4767C-37.3964 69.0405 -17.4835 88.9535 7.08036 88.9535Z" fill="#81E700"/>
<path d="M455.523 237.454C480.087 237.454 500 217.541 500 192.978C500 168.414 480.087 148.501 455.523 148.501C430.96 148.501 411.047 168.414 411.047 192.978C411.047 217.541 430.96 237.454 455.523 237.454Z" fill="#81E700"/>
<path d="M305.92 237.454C330.484 237.454 350.396 217.541 350.396 192.978C350.396 168.414 330.484 148.501 305.92 148.501C281.356 148.501 261.443 168.414 261.443 192.978C261.443 217.541 281.356 237.454 305.92 237.454Z" fill="#81E700"/>
<path d="M156.316 237.454C180.88 237.454 200.793 217.541 200.793 192.978C200.793 168.414 180.88 148.501 156.316 148.501C131.752 148.501 111.839 168.414 111.839 192.978C111.839 217.541 131.752 237.454 156.316 237.454Z" fill="#81E700"/>
<path d="M455.523 385.955C480.087 385.955 500 366.042 500 341.478C500 316.914 480.087 297.002 455.523 297.002C430.96 297.002 411.047 316.914 411.047 341.478C411.047 366.042 430.96 385.955 455.523 385.955Z" fill="#81E700"/>
<path d="M305.92 385.955C330.484 385.955 350.396 366.042 350.396 341.478C350.396 316.914 330.484 297.002 305.92 297.002C281.356 297.002 261.443 316.914 261.443 341.478C261.443 366.042 281.356 385.955 305.92 385.955Z" fill="#81E700"/>
<path d="M305.92 534.456C330.484 534.456 350.396 514.543 350.396 489.979C350.396 465.415 330.484 445.502 305.92 445.502C281.356 445.502 261.443 465.415 261.443 489.979C261.443 514.543 281.356 534.456 305.92 534.456Z" fill="#81E700"/>
<path d="M156.316 385.955C180.88 385.955 200.793 366.042 200.793 341.478C200.793 316.914 180.88 297.002 156.316 297.002C131.752 297.002 111.839 316.914 111.839 341.478C111.839 366.042 131.752 385.955 156.316 385.955Z" fill="#81E700"/>
<path d="M7.08036 237.454C31.6442 237.454 51.5571 217.541 51.5571 192.978C51.5571 168.414 31.6442 148.501 7.08036 148.501C-17.4835 148.501 -37.3964 168.414 -37.3964 192.978C-37.3964 217.541 -17.4835 237.454 7.08036 237.454Z" fill="#81E700"/>
</g>
</g>
</svg>
