<svg width="21" height="21" viewBox="0 0 21 21" fill="none" xmlns="http://www.w3.org/2000/svg">
<path d="M10.9001 20.2352C9.041 20.2352 7.18191 20.2517 5.32339 20.2306C3.54565 20.2102 2.22016 19.3999 1.37595 17.8316C1.05795 17.2408 0.914591 16.5966 0.910609 15.9279C0.902645 14.6508 0.90492 13.3737 0.908903 12.0965C0.910609 11.6462 1.17514 11.2908 1.56823 11.1822C1.95222 11.0759 2.37319 11.2158 2.56832 11.5592C2.66161 11.7235 2.7185 11.9316 2.72078 12.1204C2.73386 13.3475 2.72703 14.5751 2.7276 15.8028C2.72874 17.3057 3.83179 18.4139 5.33078 18.4145C9.04896 18.4156 12.7666 18.4156 16.4848 18.4145C17.9712 18.4139 19.0783 17.3051 19.0805 15.8164C19.0822 14.5678 19.0794 13.3191 19.0822 12.0704C19.0834 11.657 19.3291 11.3187 19.7029 11.1947C20.0653 11.0747 20.4737 11.1799 20.691 11.4955C20.7985 11.6513 20.8896 11.8572 20.8907 12.0402C20.8987 13.459 20.9334 14.8799 20.8623 16.2958C20.761 18.3155 18.9816 20.0606 16.966 20.2067C16.7186 20.2249 16.47 20.234 16.2219 20.234C14.4482 20.2363 12.6744 20.2352 10.9001 20.2352Z" fill="white"/>
<path d="M9.90545 3.34148C9.86847 3.41028 9.84515 3.49273 9.79224 3.54561C8.58509 4.75734 7.37395 5.96508 6.16679 7.17681C5.94322 7.40085 5.68723 7.5339 5.36809 7.49467C4.99832 7.44918 4.73493 7.24675 4.61034 6.89421C4.48633 6.54166 4.56483 6.22096 4.82367 5.95201C5.03985 5.72683 5.26398 5.50962 5.48528 5.28843C7.06107 3.71279 8.63629 2.13658 10.2132 0.561506C10.637 0.138454 11.1661 0.133336 11.5871 0.552977C13.375 2.33787 15.1607 4.1256 16.9476 5.91163C17.2229 6.18685 17.3265 6.51039 17.2007 6.88283C17.0813 7.23765 16.8207 7.44179 16.4515 7.49239C16.1233 7.53731 15.8633 7.39914 15.6346 7.16942C14.4326 5.96224 13.2271 4.75905 12.0228 3.55471C11.9682 3.50012 11.9113 3.44781 11.8095 3.35058V3.63773C11.8095 7.31385 11.8095 10.99 11.8095 14.6661C11.8095 15.2085 11.562 15.5548 11.1012 15.6651C10.5801 15.7897 10.0488 15.4059 10.0067 14.8714C9.99875 14.7724 10.0005 14.6729 10.0005 14.5734C10.0005 10.9325 10.0005 7.29167 10.0005 3.65138V3.40687C9.96917 3.38526 9.93788 3.36309 9.90716 3.34148H9.90545Z" fill="white"/>
</svg>
