<svg width="120" height="120" viewBox="0 0 120 120" fill="none" xmlns="http://www.w3.org/2000/svg">
<path d="M59.9999 0.000230684C51.1738 0.000230684 42.7793 1.90038 35.2265 5.32833C34.1926 5.79775 33.7562 7.03244 34.2656 8.04717L37.8398 15.2074C38.3197 16.1689 39.4737 16.5794 40.4531 16.137C46.4232 13.4713 53.031 12.0041 59.9999 12.0041C86.5332 12.0041 107.996 33.4668 107.996 60.0001C107.996 69.9815 104.924 79.2052 99.7147 86.8867L93.41 80.5782C92.9792 80.1466 92.3752 79.9356 91.7694 80.0036C90.7587 80.1208 89.9971 80.9783 89.9998 81.9958V103.996C89.9958 105.1 90.8875 105.999 91.992 106.004H113.988C115.785 106.019 116.687 103.838 115.406 102.578L108.316 95.488C115.631 85.5443 120 73.2812 120 59.9999C120 26.8866 93.1132 0.000230684 59.9999 0.000230684ZM5.99218 13.9963C4.21355 13.9969 3.32044 16.1449 4.57421 17.4065L11.668 24.5002C4.35237 34.4448 0 46.7166 0 60.0001C0 93.1135 26.8866 120 59.9999 120C68.826 120 77.2205 118.084 84.7733 114.656C85.8057 114.185 86.2402 112.951 85.7303 111.938L82.1444 104.777C81.665 103.824 80.522 103.415 79.5467 103.848C73.5767 106.513 66.9688 107.996 59.9999 107.996C33.4666 107.996 12.0039 86.5334 12.0039 60.0001C12.0039 50.0223 15.058 40.7875 20.2617 33.1056L26.5898 39.4181C27.8514 40.6718 29.9992 39.7788 29.9999 38.0003V16.0041C30.0039 14.8935 29.1028 13.992 27.9921 13.9963H5.99218ZM63.8983 25.9962C63.2459 26.0264 62.6495 26.3779 62.3007 26.9298L38.3124 64.9298C37.4715 66.2577 38.4204 67.9922 39.9921 68.0002H55.8358L54.0038 91.8439C53.8568 93.908 56.5575 94.8092 57.6796 93.0705L81.6873 55.0665C82.533 53.7312 81.5687 51.9887 79.9881 51.9961H64.1483L65.9921 28.1524C66.0877 26.9491 65.1039 25.934 63.8983 25.9962Z" fill="black"/>
</svg>
