<svg width="310" height="256" viewBox="0 0 310 256" fill="none" xmlns="http://www.w3.org/2000/svg">
<path d="M126.725 196.912L189.874 190.634L186.865 175.852L114.43 183.575L126.725 196.912Z" fill="#5B9E07"/>
<path d="M105.324 172.013L117.876 110.828L132.799 115.593L117.506 185.758L105.324 172.013Z" fill="#81E700"/>
<path d="M265.326 153.104C231.064 183.844 174.732 212.3 134.992 168.008C94.0958 122.426 129.629 70.7882 163.891 40.0479C198.153 9.30762 231.056 25.4688 259.066 56.6882C287.076 87.9077 299.588 122.364 265.326 153.104Z" fill="#81E700"/>
<path d="M265.326 153.104C231.065 183.844 174.732 212.301 134.993 168.008L259.066 56.6885C287.077 87.9079 299.588 122.364 265.326 153.104Z" fill="#5B9E07"/>
<path d="M226.104 75.7393L236.566 87.3995L224.906 97.8612L214.444 86.2009L226.104 75.7393Z" fill="#3B3B3B"/>
<path d="M247.027 99.0586L257.489 110.719L245.829 121.18L235.367 109.52L247.027 99.0586Z" fill="#1D1D1D"/>
<path d="M205.181 52.418L215.642 64.0782L203.982 74.5399L193.52 62.8796L205.181 52.418Z" fill="#3B3B3B"/>
<path d="M202.784 96.6621L213.246 108.322L201.586 118.784L191.124 107.124L202.784 96.6621Z" fill="#3B3B3B"/>
<path d="M223.707 119.982L234.169 131.643L222.508 142.104L212.047 130.444L223.707 119.982Z" fill="#1D1D1D"/>
<path d="M181.86 73.3418L192.322 85.002L180.662 95.4637L170.2 83.8035L181.86 73.3418Z" fill="#3B3B3B"/>
<path d="M179.464 117.586L189.926 129.246L178.265 139.708L167.804 128.048L179.464 117.586Z" fill="#3B3B3B"/>
<path d="M231.5 81.5693L236.566 87.3421L224.741 97.8609L219.675 92.0881L231.5 81.5693Z" fill="#1D1D1D"/>
<path d="M208.179 102.493L213.245 108.266L201.42 118.785L196.354 113.012L208.179 102.493Z" fill="#1D1D1D"/>
<path d="M184.858 123.416L189.924 129.189L178.099 139.708L173.033 133.935L184.858 123.416Z" fill="#1D1D1D"/>
<path d="M200.64 140.906L210.848 152.482L198.934 163.028L188.726 151.452L200.64 140.906Z" fill="#1D1D1D"/>
<path d="M158.54 94.2646L169.002 105.925L157.341 116.387L146.88 104.726L158.54 94.2646Z" fill="#3B3B3B"/>
<path d="M98.3537 225.07L130.091 196.595L105.831 169.555L74.0934 198.03L68.3482 191.627L41.9967 215.27L77.9606 255.354L104.312 231.711L98.3537 225.07Z" fill="#3B3B3B"/>
<path d="M59.8853 235.207L77.9608 255.353L104.312 231.711L98.3539 225.07L130.092 196.594L118.068 183.193L59.8853 235.207Z" fill="#1D1D1D"/>
<path d="M69 163C107.108 163 138 132.108 138 94C138 55.8923 107.108 25 69 25C30.8923 25 0 55.8923 0 94C0 132.108 30.8923 163 69 163Z" fill="#E70E00"/>
<path fill-rule="evenodd" clip-rule="evenodd" d="M69.0003 25C107.108 25 138 55.8924 138 94C138 132.108 107.108 163 69.0003 163C67.5513 163 66.1144 162.95 64.6875 162.862C100.785 160.635 129.375 130.659 129.375 94C129.375 57.3411 100.785 27.365 64.6875 25.138C66.1141 25.05 67.5513 25 69.0003 25Z" fill="#920A02"/>
</svg>
