<svg width="227" height="78" viewBox="0 0 227 78" fill="none" xmlns="http://www.w3.org/2000/svg">
<path d="M55.2434 0H0L27.9846 27.9143L54.5361 54.4093C54.7719 54.4278 55.0076 54.4278 55.2434 54.4278C62.3448 54.2302 69.0889 51.2764 74.0418 46.1944C78.9947 41.1123 81.7657 34.3029 81.7657 27.2139C81.7657 20.1249 78.9947 13.3155 74.0418 8.23341C69.0889 3.15136 62.3448 0.197547 55.2434 0ZM33.2345 16.6941C32.7113 16.691 32.2008 16.5333 31.7673 16.241C31.3338 15.9487 30.9967 15.5348 30.7987 15.0515C30.6006 14.5683 30.5504 14.0374 30.6544 13.5257C30.7584 13.014 31.0119 12.5445 31.383 12.1765C31.7541 11.8084 32.2261 11.5582 32.7395 11.4575C33.2528 11.3568 33.7846 11.4101 34.2677 11.6106C34.7508 11.8111 35.1635 12.1499 35.4539 12.5842C35.7442 13.0185 35.8992 13.5289 35.8992 14.051C35.8992 14.3994 35.8302 14.7444 35.696 15.0662C35.5619 15.3879 35.3654 15.68 35.1178 15.9256C34.8701 16.1712 34.5762 16.3656 34.253 16.4975C33.9298 16.6294 33.5837 16.6962 33.2345 16.6941ZM42.1451 25.5302C41.6219 25.5271 41.1113 25.3694 40.6778 25.077C40.2443 24.7847 39.9073 24.3708 39.7092 23.8876C39.5112 23.4044 39.461 22.8734 39.565 22.3617C39.669 21.8501 39.9225 21.3806 40.2936 21.0125C40.6646 20.6445 41.1366 20.3943 41.65 20.2936C42.1634 20.1929 42.6952 20.2461 43.1782 20.4466C43.6613 20.6472 44.0741 20.9859 44.3644 21.4202C44.6548 21.8546 44.8097 22.365 44.8097 22.887C44.8104 23.2353 44.7422 23.5802 44.6089 23.902C44.4756 24.2238 44.2799 24.5162 44.033 24.7623C43.7861 25.0084 43.493 25.2034 43.1703 25.3361C42.8477 25.4687 42.502 25.5365 42.153 25.5355L42.1451 25.5302ZM42.1451 16.6941C41.6219 16.691 41.1113 16.5333 40.6778 16.241C40.2443 15.9487 39.9073 15.5348 39.7092 15.0515C39.5112 14.5683 39.461 14.0374 39.565 13.5257C39.669 13.014 39.9225 12.5445 40.2936 12.1765C40.6646 11.8084 41.1366 11.5582 41.65 11.4575C42.1634 11.3568 42.6952 11.4101 43.1782 11.6106C43.6613 11.8111 44.0741 12.1499 44.3644 12.5842C44.6548 13.0185 44.8097 13.5289 44.8097 14.051C44.8098 14.3988 44.741 14.7431 44.6074 15.0643C44.4738 15.3855 44.2779 15.6773 44.0311 15.9228C43.7843 16.1683 43.4914 16.3629 43.1691 16.4952C42.8468 16.6276 42.5015 16.6952 42.153 16.6941H42.1451ZM51.0556 34.3689C50.5324 34.3658 50.0219 34.2081 49.5884 33.9157C49.1549 33.6234 48.8179 33.2095 48.6198 32.7263C48.4218 32.2431 48.3716 31.7121 48.4756 31.2004C48.5796 30.6888 48.8331 30.2193 49.2041 29.8512C49.5752 29.4832 50.0472 29.233 50.5606 29.1323C51.074 29.0316 51.6057 29.0848 52.0888 29.2853C52.5719 29.4859 52.9846 29.8246 53.275 30.2589C53.5653 30.6933 53.7203 31.2037 53.7203 31.7257C53.7168 32.4275 53.4357 33.0996 52.9382 33.5956C52.4406 34.0916 51.7669 34.3714 51.0636 34.3742L51.0556 34.3689ZM51.0556 25.5302C50.5324 25.5271 50.0219 25.3694 49.5884 25.077C49.1549 24.7847 48.8179 24.3708 48.6198 23.8876C48.4218 23.4044 48.3716 22.8734 48.4756 22.3617C48.5796 21.8501 48.8331 21.3806 49.2041 21.0125C49.5752 20.6445 50.0472 20.3943 50.5606 20.2936C51.074 20.1929 51.6057 20.2461 52.0888 20.4466C52.5719 20.6472 52.9846 20.9859 53.275 21.4202C53.5653 21.8546 53.7203 22.365 53.7203 22.887C53.721 23.2353 53.6527 23.5802 53.5194 23.902C53.3861 24.2238 53.1904 24.5162 52.9436 24.7623C52.6967 25.0084 52.4035 25.2034 52.0809 25.3361C51.7583 25.4687 51.4125 25.5365 51.0636 25.5355L51.0556 25.5302ZM51.0556 16.6941C50.5324 16.691 50.0219 16.5333 49.5884 16.241C49.1549 15.9487 48.8179 15.5348 48.6198 15.0515C48.4218 14.5683 48.3716 14.0374 48.4756 13.5257C48.5796 13.014 48.8331 12.5445 49.2041 12.1765C49.5752 11.8084 50.0472 11.5582 50.5606 11.4575C51.074 11.3568 51.6057 11.4101 52.0888 11.6106C52.5719 11.8111 52.9846 12.1499 53.275 12.5842C53.5653 13.0185 53.7203 13.5289 53.7203 14.051C53.7203 14.3988 53.6515 14.7431 53.5179 15.0643C53.3843 15.3855 53.1885 15.6773 52.9417 15.9228C52.6949 16.1683 52.4019 16.3629 52.0797 16.4952C51.7574 16.6276 51.4121 16.6952 51.0636 16.6941H51.0556ZM59.9874 43.2023C59.4635 43.2023 58.9514 43.0473 58.5158 42.7568C58.0802 42.4664 57.7407 42.0536 57.5402 41.5706C57.3397 41.0877 57.2873 40.5562 57.3895 40.0435C57.4917 39.5308 57.744 39.0598 58.1144 38.6902C58.4848 38.3205 58.9568 38.0688 59.4706 37.9668C59.9844 37.8648 60.517 37.9171 61.001 38.1172C61.485 38.3173 61.8987 38.656 62.1898 39.0907C62.4808 39.5254 62.6362 40.0364 62.6362 40.5591C62.6362 41.2602 62.3571 41.9325 61.8603 42.4282C61.3636 42.9238 60.6899 43.2023 59.9874 43.2023ZM59.9874 34.3742C59.4635 34.3742 58.9514 34.2192 58.5158 33.9287C58.0802 33.6383 57.7407 33.2255 57.5402 32.7425C57.3397 32.2596 57.2873 31.7281 57.3895 31.2154C57.4917 30.7027 57.744 30.2317 58.1144 29.862C58.4848 29.4924 58.9568 29.2407 59.4706 29.1387C59.9844 29.0367 60.517 29.089 61.001 29.2891C61.485 29.4891 61.8987 29.8279 62.1898 30.2626C62.4808 30.6972 62.6362 31.2083 62.6362 31.731C62.632 32.4308 62.3516 33.1006 61.8557 33.5954C61.3599 34.0902 60.6886 34.37 59.9874 34.3742ZM59.9874 25.5355C59.4635 25.5355 58.9514 25.3805 58.5158 25.09C58.0802 24.7996 57.7407 24.3868 57.5402 23.9038C57.3397 23.4209 57.2873 22.8894 57.3895 22.3767C57.4917 21.864 57.744 21.393 58.1144 21.0233C58.4848 20.6537 58.9568 20.402 59.4706 20.3C59.9844 20.198 60.517 20.2503 61.001 20.4504C61.485 20.6504 61.8987 20.9892 62.1898 21.4239C62.4808 21.8585 62.6362 22.3696 62.6362 22.8923C62.6362 23.5933 62.3571 24.2656 61.8603 24.7613C61.3636 25.257 60.6899 25.5355 59.9874 25.5355ZM59.9874 16.6941C59.4635 16.6941 58.9514 16.5391 58.5158 16.2487C58.0802 15.9583 57.7407 15.5455 57.5402 15.0625C57.3397 14.5795 57.2873 14.048 57.3895 13.5353C57.4917 13.0226 57.744 12.5517 58.1144 12.182C58.4848 11.8124 58.9568 11.5606 59.4706 11.4586C59.9844 11.3566 60.517 11.409 61.001 11.609C61.485 11.8091 61.8987 12.1479 62.1898 12.5825C62.4808 13.0172 62.6362 13.5282 62.6362 14.051C62.6362 14.752 62.3571 15.4243 61.8603 15.92C61.3636 16.4157 60.6899 16.6941 59.9874 16.6941ZM68.9006 34.3689C68.3767 34.3689 67.8646 34.2139 67.429 33.9234C66.9934 33.633 66.6539 33.2202 66.4534 32.7372C66.2529 32.2543 66.2005 31.7228 66.3027 31.2101C66.4049 30.6974 66.6572 30.2264 67.0276 29.8568C67.398 29.4871 67.87 29.2354 68.3838 29.1334C68.8976 29.0314 69.4302 29.0837 69.9142 29.2838C70.3982 29.4838 70.8119 29.8226 71.103 30.2573C71.394 30.6919 71.5494 31.203 71.5494 31.7257C71.5459 32.4284 71.2641 33.1013 70.7654 33.5974C70.2667 34.0936 69.5915 34.3728 68.8873 34.3742L68.9006 34.3689ZM68.9006 25.5302C68.3767 25.5302 67.8646 25.3752 67.429 25.0847C66.9934 24.7943 66.6539 24.3815 66.4534 23.8985C66.2529 23.4156 66.2005 22.8841 66.3027 22.3714C66.4049 21.8587 66.6572 21.3877 67.0276 21.0181C67.398 20.6484 67.87 20.3967 68.3838 20.2947C68.8976 20.1927 69.4302 20.245 69.9142 20.4451C70.3982 20.6451 70.8119 20.9839 71.103 21.4186C71.394 21.8532 71.5494 22.3643 71.5494 22.887C71.5501 23.2357 71.4817 23.5811 71.348 23.9032C71.2144 24.2254 71.0182 24.518 70.7708 24.7641C70.5233 25.0103 70.2295 25.2052 69.9063 25.3376C69.583 25.47 69.2367 25.5372 68.8873 25.5355L68.9006 25.5302Z" fill="#81E700"/>
<path d="M77.97 77.7934H50.5735L27.1581 54.428H54.5546L77.97 77.7934Z" fill="#81E700"/>
<path d="M97.375 35.3047V15.6978H112.084C116.603 15.6978 120.533 17.4343 120.533 22.6175C120.533 27.8007 116.603 29.5637 112.084 29.5637H101.573V35.3047H97.375ZM101.573 19.6202V25.6413H112.354C114.627 25.6413 116.227 24.8853 116.227 22.6175C116.227 20.3497 114.637 19.6202 112.354 19.6202H101.573Z" fill="white"/>
<path d="M147.623 35.3047H142.768L140.492 31.3849H127.357L125.111 35.3047H120.253L131.505 15.6978H136.36L147.623 35.3047ZM129.94 26.9021L129.601 27.4624H138.249L137.939 26.9021L133.926 19.3664L129.94 26.9021Z" fill="white"/>
<path d="M150.995 35.3047V15.6978H160.623C170.84 15.6978 175.107 19.6625 175.107 25.5012C175.107 31.3399 170.84 35.3047 160.623 35.3047H150.995ZM155.204 19.6202V31.3849H160.623C168.04 31.3849 170.811 29.199 170.811 25.5012C170.811 21.8034 168.032 19.6202 160.623 19.6202H155.204Z" fill="white"/>
<path d="M179.883 35.3047V15.6978H201.187V19.6202H184.091V23.2625H199.502V27.1823H184.091V31.3849H201.748V35.3047H179.883Z" fill="white"/>
<path d="M206.524 35.3047V15.6978H210.733V31.3849H226.986V35.3047H206.524Z" fill="white"/>
<path d="M121.378 61.6753H114.862L106.829 54.6709L102.326 50.7511H113.096C114.95 50.7511 116.237 50.1379 116.237 48.3723C116.237 46.6066 114.945 45.9934 113.096 45.9934H101.589V61.6726H97.375V42.0684H112.963C117.167 42.0684 120.539 43.6543 120.539 48.367C120.539 52.9925 117.14 54.5282 113.019 54.5282H112.754L121.378 61.6753Z" fill="white"/>
<path d="M144.675 42.0684V53.8304C144.675 57.4779 141.451 58.1731 137.099 58.1731C132.747 58.1731 129.521 57.4779 129.521 53.8304V42.0684H125.307V53.8304C125.307 59.6453 129.237 62.0955 137.099 62.0955C144.961 62.0955 148.889 59.6347 148.889 53.8304V42.0684H144.675Z" fill="white"/>
<path d="M166.379 50.027C162.448 49.8817 158.697 49.7178 158.697 47.8147C158.697 45.6024 163.754 45.576 164.76 45.576C168.085 45.5636 171.4 45.9182 174.646 46.6332L175.517 42.7927C172.211 42.0647 168.838 41.682 165.452 41.6509C160.514 41.6509 154.396 42.6579 154.396 48.0315C154.396 53.405 160.544 53.7459 166.178 54.0578C170.839 54.3221 172.747 54.4226 172.747 55.8208C172.747 58.1442 167.415 58.1997 166.125 58.1997C162.29 58.2095 158.476 57.6364 154.814 56.5001L153.659 60.2481C157.439 61.4785 161.391 62.1029 165.367 62.0983C170.251 62.0983 177.04 61.1203 177.04 55.6332C177.043 50.8411 171.875 50.2464 166.379 50.027Z" fill="white"/>
<path d="M200.639 42.0684V49.6304H186.044V42.0684H181.83V61.67H186.044V53.5555H200.639V61.6753H204.853V42.0684H200.639Z" fill="white"/>
</svg>
