<svg width="67" height="60" viewBox="0 0 67 60" fill="none" xmlns="http://www.w3.org/2000/svg">
<path d="M33.2285 5.51802C18.7346 -7.15892 0.305938 3.97941 0.00374734 19.0792C-0.0732613 22.9274 1.03758 26.6759 3.24876 30.1317H17.5809L20.1301 25.8828C20.8704 24.6493 22.6617 24.6095 23.4438 25.8393L28.8224 34.2912L36.6626 17.7401C37.3463 16.2958 39.384 16.25 40.1381 17.6504L46.8587 30.1317H63.2082C75.3195 11.2029 51.3835 -10.3609 33.2285 5.51802Z" fill="black"/>
<path d="M43.98 33.003L38.5341 22.8892L30.8331 39.1467C30.1779 40.5298 28.2509 40.65 27.4293 39.3586L21.8491 30.5899L20.354 33.0817C20.0019 33.6684 19.3679 34.0274 18.6837 34.0274H6.33008C6.71733 34.4327 4.65342 32.3729 31.8543 59.4329C32.614 60.1889 33.8421 60.189 34.602 59.4329C61.3843 32.7892 59.7398 34.4319 60.1262 34.0274H45.6951C44.9784 34.0275 44.3197 33.634 43.98 33.003Z" fill="black"/>
</svg>
