<svg width="115" height="115" viewBox="0 0 115 115" fill="none" xmlns="http://www.w3.org/2000/svg">
<circle cx="57.5" cy="57.5" r="57.5" fill="#E6B569"/>
<path fill-rule="evenodd" clip-rule="evenodd" d="M113.483 69.345C109.618 91.9551 91.7789 109.794 69.1695 113.658L39.9336 84.4222C32.9376 78.6486 28.4788 69.9112 28.4788 60.1322C28.4788 42.7471 42.5716 28.6543 59.9566 28.6543C69.7356 28.6543 78.4731 33.1134 84.2467 40.1091L113.483 69.345Z" fill="#9D7536"/>
<path d="M21.8934 59.7337V55.2824C21.9325 55.1039 21.9938 54.9255 22.0087 54.7434C22.5439 48.0152 24.7966 41.9116 28.8279 36.5105C34.5208 28.8865 42.0518 24.1433 51.4433 22.4353C52.7146 22.2048 54.0026 22.071 55.2832 21.8926C56.7664 21.8926 58.2514 21.8926 59.7346 21.8926C60.9705 22.058 62.2121 22.1862 63.4388 22.3981C70.2096 23.5653 76.1795 26.4331 81.246 31.0629C88.8458 38.0067 92.8846 46.6529 93.0983 56.9662C93.2637 64.8932 90.9609 72.1269 86.1992 78.4647C79.1681 87.8227 69.7487 92.7945 58.0135 93.0956C50.7222 93.2833 43.9885 91.2612 37.9425 87.1797C29.5286 81.4998 24.3208 73.6546 22.4454 63.6461C22.2038 62.3525 22.0756 61.0384 21.8934 59.7337ZM59.5952 50.6377C59.5952 48.7828 59.5989 46.9298 59.5952 45.0749C59.5933 44.1865 59.2086 43.5063 58.4001 43.1141C56.9801 42.4264 55.4319 43.4505 55.4263 45.0991C55.4133 48.9928 55.4505 52.8885 55.404 56.7822C55.391 57.8863 55.7274 58.7152 56.5136 59.4921C60.4074 63.3338 64.2621 67.2164 68.1299 71.0842C69.3454 72.2997 70.5851 72.4465 71.52 71.4856C72.4381 70.5415 72.2857 69.3297 71.0999 68.142C67.4124 64.4546 63.7287 60.7615 60.0282 57.0852C59.703 56.7618 59.5803 56.4403 59.5859 55.9923C59.6082 54.2081 59.5952 52.422 59.5933 50.6377H59.5952ZM59.5952 34.5534C59.5952 33.8601 59.6119 33.165 59.5914 32.4717C59.558 31.2859 58.664 30.3901 57.5284 30.379C56.3668 30.3678 55.4449 31.2804 55.4282 32.5033C55.4096 33.8675 55.4096 35.2318 55.4282 36.596C55.4449 37.8208 56.3631 38.7334 57.5247 38.7241C58.6863 38.7148 59.5691 37.8003 59.5933 36.5644C59.6063 35.8934 59.5952 35.2225 59.5933 34.5534H59.5952ZM59.5952 80.459C59.5952 79.788 59.6063 79.1171 59.5933 78.448C59.5691 77.2139 58.6845 76.2994 57.521 76.292C56.3575 76.2845 55.4431 77.1971 55.4263 78.4219C55.4077 79.7862 55.4077 81.1504 55.4263 82.5146C55.4431 83.7357 56.3686 84.6483 57.5303 84.6371C58.664 84.6241 59.558 83.7282 59.5914 82.5425C59.6119 81.8492 59.5952 81.1559 59.5952 80.4608V80.459ZM34.5003 59.5943C35.2177 59.5943 35.9352 59.6129 36.6507 59.5906C37.8309 59.5534 38.7231 58.6446 38.7249 57.509C38.7249 56.3715 37.8347 55.4496 36.6526 55.4292C35.2661 55.4032 33.8777 55.4069 32.4912 55.4292C31.3054 55.4459 30.4021 56.3455 30.3835 57.4755C30.3649 58.6353 31.2775 59.5627 32.4912 59.5943C33.1621 59.611 33.8331 59.598 34.5022 59.598L34.5003 59.5943ZM80.4561 55.4217C79.7852 55.4217 79.1142 55.4106 78.4451 55.4236C77.2166 55.4459 76.2966 56.338 76.2928 57.4959C76.2873 58.6576 77.1998 59.572 78.4247 59.5887C79.7889 59.6073 81.1531 59.6092 82.5173 59.5887C83.7403 59.5701 84.6491 58.6464 84.6361 57.4829C84.6231 56.3473 83.7254 55.4552 82.5396 55.4236C81.8463 55.405 81.1531 55.4199 80.458 55.4199L80.4561 55.4217ZM77.2816 75.1917C77.2723 74.0356 76.3337 73.1101 75.1907 73.1268C74.0569 73.1435 73.1072 74.1118 73.1239 75.2363C73.1407 76.3849 74.0774 77.2919 75.2353 77.2845C76.4006 77.2752 77.2909 76.3645 77.2816 75.1936V75.1917ZM75.1907 37.7334C74.0365 37.7427 73.1072 38.685 73.1258 39.8244C73.1444 40.96 74.1127 41.906 75.2372 41.8911C76.3876 41.8744 77.2909 40.9414 77.2835 39.7779C77.2742 38.6144 76.3635 37.7241 75.1907 37.7334ZM39.8029 77.2845C40.9645 77.2826 41.8901 76.3626 41.8883 75.2121C41.8883 74.084 40.9255 73.1249 39.7973 73.1268C38.6487 73.1268 37.7306 74.0579 37.7324 75.2177C37.7324 76.3868 38.6357 77.2863 39.8029 77.2845ZM39.8029 37.7334C38.6339 37.7334 37.7324 38.633 37.7324 39.8002C37.7324 40.9618 38.6506 41.8911 39.7992 41.8911C40.9255 41.8911 41.8864 40.9321 41.8901 39.8039C41.892 38.6553 40.9645 37.7353 39.8029 37.7334Z" fill="white"/>
</svg>
