<svg width="33" height="33" viewBox="0 0 33 33" fill="none" xmlns="http://www.w3.org/2000/svg">
<path d="M16.4996 13.2187C14.6908 13.2187 13.218 14.6908 13.218 16.4996C13.218 18.3092 14.6908 19.782 16.4996 19.782C18.3092 19.782 19.7813 18.3092 19.7813 16.4996C19.7813 14.6908 18.3092 13.2187 16.4996 13.2187ZM16.4996 13.2187C14.6908 13.2187 13.218 14.6908 13.218 16.4996C13.218 18.3092 14.6908 19.782 16.4996 19.782C18.3092 19.782 19.7813 18.3092 19.7813 16.4996C19.7813 14.6908 18.3092 13.2187 16.4996 13.2187ZM21.9667 7.86821H11.0333C9.2882 7.86821 7.86821 9.2882 7.86821 11.0333V21.9667C7.86821 23.7118 9.2882 25.1318 11.0333 25.1318H21.9667C23.7118 25.1318 25.1318 23.7118 25.1318 21.9667V11.0333C25.1318 9.2882 23.7118 7.86821 21.9667 7.86821ZM16.4996 22.1832C13.3664 22.1832 10.8168 19.6336 10.8168 16.4996C10.8168 13.3664 13.3664 10.8168 16.4996 10.8168C19.6336 10.8168 22.1832 13.3664 22.1832 16.4996C22.1832 19.6336 19.6336 22.1832 16.4996 22.1832ZM22.3657 11.992C21.6242 11.992 21.021 11.3888 21.021 10.6474C21.021 9.90586 21.6242 9.30268 22.3657 9.30268C23.1072 9.30268 23.7104 9.90586 23.7104 10.6474C23.7104 11.3888 23.1072 11.992 22.3657 11.992ZM16.4996 13.2187C14.6908 13.2187 13.218 14.6908 13.218 16.4996C13.218 18.3092 14.6908 19.782 16.4996 19.782C18.3092 19.782 19.7813 18.3092 19.7813 16.4996C19.7813 14.6908 18.3092 13.2187 16.4996 13.2187ZM21.9667 7.86821H11.0333C9.2882 7.86821 7.86821 9.2882 7.86821 11.0333V21.9667C7.86821 23.7118 9.2882 25.1318 11.0333 25.1318H21.9667C23.7118 25.1318 25.1318 23.7118 25.1318 21.9667V11.0333C25.1318 9.2882 23.7118 7.86821 21.9667 7.86821ZM16.4996 22.1832C13.3664 22.1832 10.8168 19.6336 10.8168 16.4996C10.8168 13.3664 13.3664 10.8168 16.4996 10.8168C19.6336 10.8168 22.1832 13.3664 22.1832 16.4996C22.1832 19.6336 19.6336 22.1832 16.4996 22.1832ZM22.3657 11.992C21.6242 11.992 21.021 11.3888 21.021 10.6474C21.021 9.90586 21.6242 9.30268 22.3657 9.30268C23.1072 9.30268 23.7104 9.90586 23.7104 10.6474C23.7104 11.3888 23.1072 11.992 22.3657 11.992ZM16.4996 13.2187C14.6908 13.2187 13.218 14.6908 13.218 16.4996C13.218 18.3092 14.6908 19.782 16.4996 19.782C18.3092 19.782 19.7813 18.3092 19.7813 16.4996C19.7813 14.6908 18.3092 13.2187 16.4996 13.2187ZM0 0V33H33V0H0ZM27.5329 21.9667C27.5329 25.0362 25.0362 27.5329 21.9667 27.5329H11.0333C7.96379 27.5329 5.46705 25.0362 5.46705 21.9667V11.0333C5.46705 7.96379 7.96379 5.46705 11.0333 5.46705H21.9667C25.0362 5.46705 27.5329 7.96379 27.5329 11.0333V21.9667ZM21.9667 7.86821H11.0333C9.2882 7.86821 7.86821 9.2882 7.86821 11.0333V21.9667C7.86821 23.7118 9.2882 25.1318 11.0333 25.1318H21.9667C23.7118 25.1318 25.1318 23.7118 25.1318 21.9667V11.0333C25.1318 9.2882 23.7118 7.86821 21.9667 7.86821ZM16.4996 22.1832C13.3664 22.1832 10.8168 19.6336 10.8168 16.4996C10.8168 13.3664 13.3664 10.8168 16.4996 10.8168C19.6336 10.8168 22.1832 13.3664 22.1832 16.4996C22.1832 19.6336 19.6336 22.1832 16.4996 22.1832ZM22.3657 11.992C21.6242 11.992 21.021 11.3888 21.021 10.6474C21.021 9.90586 21.6242 9.30268 22.3657 9.30268C23.1072 9.30268 23.7104 9.90586 23.7104 10.6474C23.7104 11.3888 23.1072 11.992 22.3657 11.992ZM16.4996 13.2187C14.6908 13.2187 13.218 14.6908 13.218 16.4996C13.218 18.3092 14.6908 19.782 16.4996 19.782C18.3092 19.782 19.7813 18.3092 19.7813 16.4996C19.7813 14.6908 18.3092 13.2187 16.4996 13.2187ZM16.4996 13.2187C14.6908 13.2187 13.218 14.6908 13.218 16.4996C13.218 18.3092 14.6908 19.782 16.4996 19.782C18.3092 19.782 19.7813 18.3092 19.7813 16.4996C19.7813 14.6908 18.3092 13.2187 16.4996 13.2187ZM16.4996 13.2187C14.6908 13.2187 13.218 14.6908 13.218 16.4996C13.218 18.3092 14.6908 19.782 16.4996 19.782C18.3092 19.782 19.7813 18.3092 19.7813 16.4996C19.7813 14.6908 18.3092 13.2187 16.4996 13.2187ZM21.9667 7.86821H11.0333C9.2882 7.86821 7.86821 9.2882 7.86821 11.0333V21.9667C7.86821 23.7118 9.2882 25.1318 11.0333 25.1318H21.9667C23.7118 25.1318 25.1318 23.7118 25.1318 21.9667V11.0333C25.1318 9.2882 23.7118 7.86821 21.9667 7.86821ZM16.4996 22.1832C13.3664 22.1832 10.8168 19.6336 10.8168 16.4996C10.8168 13.3664 13.3664 10.8168 16.4996 10.8168C19.6336 10.8168 22.1832 13.3664 22.1832 16.4996C22.1832 19.6336 19.6336 22.1832 16.4996 22.1832ZM22.3657 11.992C21.6242 11.992 21.021 11.3888 21.021 10.6474C21.021 9.90586 21.6242 9.30268 22.3657 9.30268C23.1072 9.30268 23.7104 9.90586 23.7104 10.6474C23.7104 11.3888 23.1072 11.992 22.3657 11.992ZM16.4996 13.2187C14.6908 13.2187 13.218 14.6908 13.218 16.4996C13.218 18.3092 14.6908 19.782 16.4996 19.782C18.3092 19.782 19.7813 18.3092 19.7813 16.4996C19.7813 14.6908 18.3092 13.2187 16.4996 13.2187ZM16.4996 13.2187C14.6908 13.2187 13.218 14.6908 13.218 16.4996C13.218 18.3092 14.6908 19.782 16.4996 19.782C18.3092 19.782 19.7813 18.3092 19.7813 16.4996C19.7813 14.6908 18.3092 13.2187 16.4996 13.2187ZM16.4996 13.2187C14.6908 13.2187 13.218 14.6908 13.218 16.4996C13.218 18.3092 14.6908 19.782 16.4996 19.782C18.3092 19.782 19.7813 18.3092 19.7813 16.4996C19.7813 14.6908 18.3092 13.2187 16.4996 13.2187ZM21.9667 7.86821H11.0333C9.2882 7.86821 7.86821 9.2882 7.86821 11.0333V21.9667C7.86821 23.7118 9.2882 25.1318 11.0333 25.1318H21.9667C23.7118 25.1318 25.1318 23.7118 25.1318 21.9667V11.0333C25.1318 9.2882 23.7118 7.86821 21.9667 7.86821ZM16.4996 22.1832C13.3664 22.1832 10.8168 19.6336 10.8168 16.4996C10.8168 13.3664 13.3664 10.8168 16.4996 10.8168C19.6336 10.8168 22.1832 13.3664 22.1832 16.4996C22.1832 19.6336 19.6336 22.1832 16.4996 22.1832ZM22.3657 11.992C21.6242 11.992 21.021 11.3888 21.021 10.6474C21.021 9.90586 21.6242 9.30268 22.3657 9.30268C23.1072 9.30268 23.7104 9.90586 23.7104 10.6474C23.7104 11.3888 23.1072 11.992 22.3657 11.992ZM16.4996 13.2187C14.6908 13.2187 13.218 14.6908 13.218 16.4996C13.218 18.3092 14.6908 19.782 16.4996 19.782C18.3092 19.782 19.7813 18.3092 19.7813 16.4996C19.7813 14.6908 18.3092 13.2187 16.4996 13.2187Z" fill="white"/>
</svg>
