<svg width="115" height="115" viewBox="0 0 115 115" fill="none" xmlns="http://www.w3.org/2000/svg">
<g id="Group 95">
<circle id="Ellipse 2" cx="57.5" cy="57.5" r="57.5" fill="#E6B569"/>
<path id="Vector" fill-rule="evenodd" clip-rule="evenodd" d="M113.431 69.3453C109.567 91.9554 91.7275 109.794 69.1181 113.658L55.5 96.5002L48 84.5002C41.004 78.7266 28.4273 69.9114 28.4273 60.1324C28.4273 42.7474 30.615 22.0003 48 22.0003C57.779 22.0003 76.7264 21.659 82.5 28.6547L113.431 69.3453Z" fill="#9D7536"/>
<path id="Vector_2" d="M57.8026 17C73.0713 16.9727 87.0823 28.2102 89.8603 43.1958C92.4282 57.0447 87.8629 68.2959 76.5843 76.7395C71.3616 80.6497 66.9971 85.288 63.6827 90.9102C62.8153 92.3803 61.9411 93.8457 61.0485 95.3021C59.3799 98.0276 56.1431 98.023 54.495 95.2678C52.3151 91.627 50.0986 88.0181 47.3275 84.779C44.3303 81.2774 40.8379 78.3373 37.2587 75.4543C30.0067 69.6153 25.9002 61.9775 25.1195 52.694C23.6974 35.7224 35.1084 20.8121 51.87 17.6483C53.8194 17.2808 55.8235 17.2101 57.8026 17ZM43.2118 49.9571C43.189 57.9829 49.7745 64.541 57.846 64.5273C65.8102 64.5113 72.3386 57.9669 72.3431 49.9936C72.3454 41.9495 65.9106 35.3937 57.9647 35.3503C49.7654 35.3047 43.237 41.7692 43.2118 49.9571Z" fill="white"/>
</g>
</svg>
