<svg width="15" height="19" viewBox="0 0 15 19" fill="none" xmlns="http://www.w3.org/2000/svg">
<path d="M7.5 0C3.4894 0 0.226562 3.26284 0.226562 7.27344C0.226562 8.5572 0.565742 9.81933 1.2074 10.9233C1.35699 11.1807 1.5242 11.4315 1.70448 11.6689L7.18398 19H7.81599L13.2955 11.6689C13.4758 11.4315 13.643 11.1808 13.7926 10.9234C14.4343 9.81933 14.7734 8.5572 14.7734 7.27344C14.7734 3.26284 11.5106 0 7.5 0ZM7.5 9.68555C6.16996 9.68555 5.08789 8.60347 5.08789 7.27344C5.08789 5.9434 6.16996 4.86133 7.5 4.86133C8.83004 4.86133 9.91211 5.9434 9.91211 7.27344C9.91211 8.60347 8.83004 9.68555 7.5 9.68555Z" fill="black"/>
</svg>
