<svg width="18" height="20" viewBox="0 0 18 20" fill="none" xmlns="http://www.w3.org/2000/svg">
<path d="M8.65799 0C6.37728 0.0024376 4.1907 0.885274 2.57799 2.45481C0.965287 4.02435 0.0581687 6.1524 0.0556641 8.37205C0.0556641 12.7942 7.28162 18.8647 8.10228 19.5429L8.65799 20L9.2137 19.5429C10.0344 18.8647 17.2603 12.7942 17.2603 8.37205C17.2578 6.1524 16.3507 4.02435 14.738 2.45481C13.1253 0.885274 10.9387 0.0024376 8.65799 0ZM8.65799 12.5581C7.8073 12.5581 6.97572 12.3126 6.26839 11.8526C5.56107 11.3926 5.00978 10.7389 4.68423 9.97398C4.35869 9.20908 4.27351 8.36741 4.43947 7.5554C4.60543 6.74339 5.01508 5.99751 5.61661 5.41209C6.21814 4.82666 6.98453 4.42798 7.81888 4.26646C8.65322 4.10494 9.51804 4.18784 10.304 4.50467C11.0899 4.8215 11.7617 5.35803 12.2343 6.04642C12.7069 6.73481 12.9592 7.54414 12.9592 8.37205C12.9578 9.48185 12.5042 10.5458 11.6979 11.3306C10.8915 12.1153 9.79831 12.5568 8.65799 12.5581Z" fill="#81E700"/>
</svg>
