<svg width="150" height="103" viewBox="0 0 150 103" fill="none" xmlns="http://www.w3.org/2000/svg">
<g clip-path="url(#clip0_1310_1573)">
<path d="M5.82327 27.0632L7.58203 37.8345H7.63252L9.45861 26.2456L16.4432 24.6611V45.0491L11.7728 45.2936V30.7042L11.7223 30.7211L9.2314 45.4368L6.02523 45.6054L3.77839 32.1707L3.73632 32.1792V45.7318L0 45.9257V28.3864L5.82327 27.0632Z" fill="white"/>
<path d="M23.9242 22.9673V44.6448L18.3113 44.9482V24.24L23.9242 22.9673Z" fill="white"/>
<path d="M32.4487 21.037V29.9204L32.5161 29.912L37.6914 19.8486L45.8372 18.0112L38.3898 30.2575L46.7965 43.414L37.9943 43.886L33.8709 35.955L32.4487 38.0621V44.1895L26.0701 44.5266V22.4782L32.4487 21.037Z" fill="white"/>
<path d="M69.5175 12.6509V18.9384L56.6592 21.3826V26.0518L68.6423 24.1302V30.1395L56.6592 31.6398V37.076L70.0476 35.8623V42.1751L47.8401 43.3635V17.5561L69.5175 12.6509Z" fill="white"/>
<path d="M4.04768 57.1776C5.0575 57.2366 5.81486 57.6833 6.30293 58.543C6.79943 59.4027 7.05188 60.5321 7.05188 61.9227C7.05188 62.4032 7.01822 62.8667 6.9509 63.3134C6.88358 63.7601 6.77418 64.1562 6.63954 64.5102C6.49648 64.8558 6.31977 65.1508 6.10097 65.3783C5.88218 65.6059 5.62131 65.7492 5.30995 65.8082V65.8588C5.6718 65.9599 5.97474 66.1537 6.23561 66.4572C6.49648 66.7606 6.71528 67.1146 6.87516 67.536C7.04347 67.9574 7.16969 68.4041 7.24543 68.8929C7.32117 69.3818 7.36324 69.8622 7.36324 70.3426C7.36324 71.1349 7.29592 71.8513 7.16969 72.5002C7.04347 73.1408 6.8415 73.6802 6.58063 74.1016C6.31135 74.523 5.96633 74.818 5.54557 74.9866C5.12482 75.1551 4.61991 75.172 4.03926 75.0456L0 74.1185V56.9585L4.04768 57.1776ZM3.30715 64.0888C3.59326 64.1225 3.81206 63.9708 3.96353 63.6337C4.115 63.2966 4.19074 62.8836 4.19074 62.3947C4.19074 61.9059 4.115 61.4508 3.96353 61.0715C3.81206 60.6922 3.59326 60.4899 3.30715 60.4647L2.65077 60.4057V64.0045L3.30715 64.0888ZM3.40813 71.5563C3.66058 71.6068 3.89621 71.472 4.09817 71.1517C4.30013 70.8314 4.40111 70.292 4.40111 69.5419C4.40111 68.8424 4.30013 68.2861 4.09817 67.89C3.89621 67.4938 3.669 67.2747 3.40813 67.241L2.64235 67.123V71.413L3.40813 71.5563Z" fill="white"/>
<path d="M8.40667 62.268C8.54972 61.0543 8.78535 60.0766 9.11354 59.3265C9.44173 58.5679 9.87932 58.0285 10.4263 57.6998C10.9817 57.3627 11.6633 57.2194 12.488 57.2616C13.3211 57.3037 14.0364 57.5313 14.6255 57.9358C15.2229 58.3488 15.711 58.9809 16.0729 59.8322C16.4431 60.6919 16.7124 61.7791 16.8807 63.1108C17.0406 64.4425 17.1247 66.0523 17.1247 67.9233C17.1247 69.7944 17.0406 71.3789 16.8807 72.6685C16.7124 73.9495 16.4515 74.9694 16.0729 75.7195C15.7026 76.4696 15.2145 76.95 14.6255 77.1607C14.0364 77.3799 13.3211 77.3883 12.488 77.2029C11.6717 77.0174 10.9817 76.6887 10.4263 76.2336C9.87932 75.7785 9.44173 75.1295 9.11354 74.2782C8.78535 73.4354 8.54972 72.3903 8.40667 71.1429C8.26361 69.8956 8.19629 68.4122 8.19629 66.6759C8.19629 64.9397 8.26361 63.4732 8.40667 62.268ZM11.4277 70.317C11.4529 71.1682 11.495 71.8509 11.5708 72.365C11.6465 72.8792 11.7559 73.25 11.8989 73.4691C12.042 73.6967 12.2356 73.8316 12.4796 73.8821C12.7236 73.9327 12.9172 73.8737 13.0687 73.6967C13.2117 73.5281 13.3295 73.191 13.4053 72.7022C13.481 72.2049 13.5315 71.5306 13.5567 70.6709C13.582 69.8113 13.5904 68.7324 13.5904 67.4176C13.5904 66.1028 13.582 65.024 13.5567 64.1559C13.5315 63.2878 13.481 62.5967 13.4053 62.0825C13.3295 61.5684 13.2117 61.206 13.0687 60.9953C12.9172 60.7846 12.7236 60.6666 12.4796 60.6497C12.2356 60.6329 12.042 60.7087 11.8989 60.8942C11.7559 61.0796 11.6465 61.4167 11.5708 61.914C11.495 62.4028 11.4445 63.0771 11.4277 63.9199C11.4025 64.7627 11.394 65.8247 11.394 67.1142C11.394 68.4037 11.4025 69.4657 11.4277 70.317Z" fill="white"/>
<path d="M21.6522 58.1381L22.8724 64.3076H22.9145L24.1515 58.2814L28.7293 58.5342L25.2876 68.9094L29.007 80.6079L24.4124 79.5796L22.9145 72.9128L22.8724 72.9044L21.4166 78.9054L17.3857 78.0035L20.6256 68.2689L17.554 57.9189L21.6606 58.1465L21.6522 58.1381Z" fill="white"/>
<path d="M34.0223 58.8211V81.7291L29.5791 80.7346V58.5767L34.0223 58.8211Z" fill="white"/>
<path d="M41.554 59.2341L44.9285 74.6663L44.9874 74.6747V59.4195L50.188 59.7061V85.3449L44.1291 83.9879L40.6789 68.3703L40.62 68.3619V83.2041L36.0505 82.1758V58.9307L41.554 59.2341Z" fill="white"/>
<path d="M70.0476 74.0338V89.7862L65.2005 88.699L65.049 86.1789L64.9732 86.162C64.7544 86.7183 64.4347 87.1482 64.0307 87.4516C63.6268 87.755 63.1724 87.9488 62.6759 88.0331C62.1794 88.1174 61.6577 88.1343 61.0939 88.0837C60.5385 88.0331 59.9831 87.9488 59.4277 87.8224C57.7951 87.4516 56.5329 86.8784 55.624 86.0862C54.7236 85.3108 54.0504 84.2994 53.596 83.052C53.1416 81.8131 52.8639 80.3465 52.7461 78.644C52.6282 76.9415 52.5693 75.0199 52.5693 72.8538C52.5693 70.6877 52.6787 68.7492 52.9059 67.0889C53.1331 65.4285 53.5623 64.0462 54.2019 62.9421C54.8498 61.8296 55.7418 61.0036 56.9031 60.4642C58.0812 59.9164 59.6212 59.6888 61.5567 59.79C62.7348 59.849 63.8372 60.0765 64.8554 60.4727C65.8905 60.8688 66.7909 61.4841 67.5567 62.3016C68.3309 63.1276 68.9368 64.1727 69.3828 65.4369C69.8288 66.7012 70.056 68.2182 70.056 69.9798L63.2229 69.2381C63.2229 67.7547 63.1051 66.6674 62.861 65.9679C62.617 65.1419 62.1037 64.7037 61.3127 64.6362C60.7657 64.5941 60.3365 64.6952 60.0251 64.9481C59.7138 65.2009 59.4782 65.6729 59.3267 66.3725C59.1752 67.0636 59.0826 68.016 59.0322 69.2128C58.9817 70.4096 58.9648 71.9183 58.9648 73.7472C58.9648 75.5761 58.9901 77.0848 59.0322 78.2985C59.0826 79.5121 59.1752 80.4814 59.3267 81.2231C59.4782 81.9648 59.697 82.4957 59.9915 82.8329C60.286 83.17 60.6815 83.3891 61.1696 83.4819C61.523 83.5493 61.8428 83.5409 62.1205 83.4397C62.3982 83.3386 62.6338 83.0942 62.8274 82.7064C63.0209 82.3187 63.1724 81.7456 63.2818 81.0039C63.3912 80.2538 63.4501 79.2846 63.4501 78.0878L61.0686 77.7001V72.8538L70.0644 74.0422L70.0476 74.0338Z" fill="white"/>
<path d="M0 53.3425L70.0476 54.6995V48.0664L0 49.4149V53.3425Z" fill="white"/>
<path d="M0 24.8971L70.0476 6.64148V0L0 20.9695V24.8971Z" fill="white"/>
<path d="M0 81.7962L70.0476 102.766V96.1243L0 77.8687V81.7962Z" fill="white"/>
<path d="M79.0264 19.4269V13.0889L97.9772 17.3199V22.9584L92.7178 21.9723V42.4951L85.1357 42.0737V20.5647L79.0264 19.4269Z" fill="white"/>
<path d="M98.7683 17.4971L105.669 19.0394L107.932 27.847L107.991 27.8554L110.179 20.0424L116.188 21.3825L110.852 34.3368V43.5236L104.945 43.1865V33.6204L98.7683 17.4971Z" fill="white"/>
<path d="M123.416 28.6139C123.416 27.9818 123.307 27.4171 123.088 26.9283C122.869 26.4394 122.524 26.1445 122.062 26.0517C121.548 25.9506 121.161 26.0686 120.917 26.4142C120.673 26.7597 120.547 27.1811 120.547 27.6615C120.547 28.3695 120.749 28.9679 121.136 29.4483C121.531 29.9287 122.011 30.367 122.6 30.7547C123.181 31.1424 123.787 31.547 124.443 31.9515C125.083 32.3561 125.68 32.8365 126.227 33.4012C126.774 33.9659 127.22 34.657 127.574 35.483C127.927 36.3005 128.104 37.3288 128.104 38.5762C128.104 40.7507 127.59 42.293 126.564 43.2117C125.512 44.1472 123.963 44.5687 121.876 44.4591C120.867 44.4001 119.966 44.2568 119.167 44.0208C118.367 43.7764 117.677 43.3971 117.113 42.8746C116.55 42.3436 116.112 41.6778 115.809 40.8518C115.506 40.0258 115.355 39.0229 115.355 37.8429V37.0506L120.303 37.5732V38.0873C120.303 39.0229 120.454 39.6887 120.749 40.0932C121.043 40.4894 121.43 40.7085 121.893 40.7507C122.39 40.7928 122.768 40.6242 123.029 40.245C123.29 39.8741 123.416 39.3937 123.416 38.8206C123.416 38.1295 123.24 37.5563 122.869 37.1096C122.508 36.6629 122.045 36.2584 121.481 35.896C120.917 35.5336 120.294 35.1627 119.621 34.7666C118.94 34.3705 118.3 33.89 117.711 33.3085C117.114 32.7269 116.609 32.0021 116.205 31.1256C115.801 30.249 115.599 29.1449 115.599 27.8133C115.599 25.5208 116.146 23.8857 117.231 22.9249C118.292 21.9725 119.882 21.7449 121.944 22.2169C124.014 22.6804 125.461 23.5233 126.345 24.7369C127.212 25.9337 127.649 27.6278 127.649 29.8276L123.4 29.0859V28.5802L123.416 28.6139Z" fill="white"/>
<path d="M128.995 29.5409C129.197 28.2429 129.525 27.2231 129.98 26.473C130.434 25.7313 131.023 25.2509 131.747 25.0318C132.462 24.8126 133.329 24.8211 134.339 25.0486C135.332 25.2762 136.157 25.6386 136.821 26.1527C137.478 26.6584 138 27.3411 138.395 28.2092C138.791 29.0605 139.068 30.1225 139.237 31.3783C139.405 32.6257 139.489 34.1259 139.489 35.8537C139.489 37.5815 139.405 39.0564 139.237 40.2617C139.068 41.4669 138.791 42.453 138.395 43.1947C138 43.9448 137.478 44.4758 136.821 44.7708C136.157 45.0742 135.332 45.2006 134.339 45.1416C133.329 45.0826 132.462 44.8635 131.747 44.4758C131.023 44.0797 130.434 43.4476 129.98 42.5879C129.525 41.7113 129.197 40.5988 128.995 39.2418C128.793 37.8849 128.692 36.2498 128.692 34.3534C128.692 32.4571 128.793 30.8473 128.995 29.5493V29.5409ZM133.035 38.2389C133.06 39.1154 133.127 39.815 133.22 40.3291C133.312 40.8516 133.447 41.2141 133.624 41.4332C133.8 41.6523 134.036 41.7703 134.339 41.7956C134.633 41.8209 134.869 41.7366 135.046 41.5596C135.214 41.3742 135.349 41.0371 135.441 40.5398C135.534 40.0425 135.593 39.3767 135.618 38.5254C135.643 37.6742 135.66 36.6122 135.66 35.3227C135.66 34.0332 135.643 32.9628 135.618 32.1031C135.593 31.2434 135.534 30.5607 135.441 30.0382C135.349 29.5156 135.223 29.1448 135.046 28.9088C134.869 28.6812 134.642 28.5295 134.339 28.4705C134.044 28.4115 133.809 28.4705 133.624 28.6307C133.447 28.7992 133.312 29.1279 133.22 29.6252C133.127 30.1225 133.068 30.8051 133.035 31.6648C133.009 32.5329 132.993 33.6202 132.993 34.9434C132.993 36.2667 133.009 37.3623 133.035 38.2305V38.2389Z" fill="white"/>
<path d="M144.076 27.6027L146.154 38.8123H146.196V28.0747L149.074 28.7153V45.6645L145.683 45.4791L143.503 34.3116L143.47 34.3032V45.3527L140.255 45.1757V26.7515L144.076 27.6027Z" fill="white"/>
<path d="M94.2747 64.9148C93.896 64.4007 93.2733 64.1815 92.4066 64.249C91.7249 64.308 91.178 64.485 90.774 64.7968C90.3617 65.1086 90.0419 65.6312 89.8315 66.356C89.6127 67.0893 89.4781 68.0586 89.4024 69.2722C89.335 70.4859 89.3014 72.0114 89.3014 73.8488C89.3014 75.6861 89.335 77.1948 89.4024 78.3916C89.4697 79.5884 89.6127 80.524 89.8315 81.1898C90.0503 81.8556 90.3617 82.2939 90.774 82.4878C91.1864 82.6816 91.7333 82.7153 92.4066 82.5805C92.9535 82.4709 93.3995 82.2771 93.753 81.9989C94.098 81.7208 94.3673 81.3162 94.5608 80.7937C94.746 80.2711 94.8806 79.58 94.9648 78.7456C95.0405 77.9112 95.0826 76.8661 95.0826 75.6103L103.069 74.3629V76.2171C103.069 77.9618 102.791 79.4452 102.219 80.6757C101.646 81.9146 100.889 82.9597 99.9297 83.8194C98.9535 84.6875 97.8343 85.3787 96.5384 85.9012C95.2256 86.4238 93.854 86.8536 92.415 87.1823C89.8568 87.7639 87.7025 88.0083 85.969 87.8987C84.2018 87.7976 82.7965 87.2582 81.7782 86.2889C80.7432 85.3112 80.0195 83.9037 79.6324 82.0832C79.2369 80.2458 79.0349 77.9702 79.0349 75.2647C79.0349 72.5593 79.2705 70.1403 79.7418 68.1681C80.213 66.2128 81.0041 64.603 82.1064 63.3556C83.2004 62.1166 84.6141 61.1895 86.3392 60.5827C88.0223 59.9843 90.0587 59.6303 92.415 59.5123C94.4262 59.4111 96.084 59.5123 97.4304 59.8325C98.7516 60.1444 99.8035 60.6248 100.603 61.2738C101.394 61.9143 101.966 62.7066 102.32 63.6506C102.673 64.5861 102.85 65.6649 102.85 66.8786V68.4462L94.8385 69.3734V67.8984C94.8385 66.3982 94.6534 65.3952 94.2747 64.8895V64.9148Z" fill="white"/>
<path d="M112.99 58.9307V77.2369L120.892 75.7535V80.4228L105.82 83.7857V59.3268L112.99 58.9307Z" fill="white"/>
<path d="M127.86 73.0816C127.86 74.093 128.003 74.7335 128.297 75.0201C128.583 75.2982 128.979 75.3909 129.475 75.2982C129.963 75.1971 130.35 74.9611 130.628 74.5734C130.906 74.1941 131.04 73.5114 131.04 72.5253V57.9528L135.972 57.6831V70.3845C135.972 71.7415 135.837 72.8961 135.559 73.857C135.282 74.8178 134.886 75.6353 134.356 76.2927C133.817 76.9586 133.153 77.4811 132.345 77.8688C131.529 78.2565 130.569 78.5768 129.467 78.8296C128.356 79.0825 127.355 79.2005 126.454 79.1836C125.545 79.1668 124.771 78.9392 124.148 78.4757C123.517 78.0121 123.029 77.3041 122.693 76.3602C122.356 75.4162 122.188 74.1772 122.188 72.6601V58.4332L127.86 58.1214V73.0816Z" fill="white"/>
<path d="M144.597 57.2028C146.028 57.127 147.055 57.4641 147.711 58.2142C148.35 58.9559 148.67 59.9757 148.67 61.2737C148.67 61.7204 148.628 62.1671 148.536 62.6054C148.451 63.0436 148.317 63.4482 148.132 63.8106C147.947 64.1814 147.711 64.5101 147.425 64.7883C147.139 65.0664 146.777 65.2855 146.364 65.4457V65.4963C146.853 65.4794 147.265 65.5721 147.61 65.7828C147.947 65.9851 148.224 66.2548 148.443 66.6004C148.662 66.9375 148.813 67.3168 148.914 67.7466C149.015 68.168 149.066 68.6063 149.066 69.053C149.066 69.7862 148.982 70.4858 148.822 71.1432C148.662 71.8006 148.409 72.3906 148.064 72.9131C147.719 73.4357 147.265 73.8908 146.693 74.2701C146.12 74.6494 145.414 74.9359 144.58 75.1213L138.101 76.571V57.5568L144.58 57.2028H144.597ZM143.503 64.3584C143.933 64.3079 144.252 64.0887 144.471 63.701C144.69 63.3218 144.799 62.8835 144.799 62.3946C144.799 61.9058 144.69 61.4675 144.471 61.122C144.252 60.7764 143.933 60.6163 143.503 60.65L142.494 60.7343V64.468L143.503 64.3416V64.3584ZM143.655 71.9355C144.034 71.8596 144.37 71.6152 144.665 71.2022C144.951 70.7892 145.094 70.2077 145.094 69.4575C145.094 68.758 144.951 68.2439 144.665 67.9236C144.379 67.6033 144.042 67.4685 143.655 67.5275L142.494 67.7045V72.1546L143.655 71.9355Z" fill="white"/>
<path d="M79.0266 54.6995L149.074 53.3425V49.4149L79.0266 48.0664V54.6995Z" fill="white"/>
<path d="M79.0266 6.64148L149.074 24.8971V20.9695L79.0266 0V6.64148Z" fill="white"/>
<path d="M79.0266 102.766L149.074 81.7962V77.8687L79.0266 96.1243V102.766Z" fill="white"/>
</g>
<defs>
<clipPath id="clip0_1310_1573">
<rect width="149.074" height="102.766" fill="white"/>
</clipPath>
</defs>
</svg>
