<svg width="20" height="20" viewBox="0 0 20 20" fill="none" xmlns="http://www.w3.org/2000/svg">
<path d="M18.9696 8.52686L14.8446 4.40186L13.6671 5.58352L17.2505 9.16686H5.51465V10.8335H17.2505L13.6671 14.4169L14.8455 15.5952L18.9705 11.4702C19.164 11.2767 19.3175 11.047 19.4222 10.7942C19.527 10.5414 19.5809 10.2705 19.5809 9.99686C19.5809 9.72322 19.527 9.45227 19.4222 9.19947C19.3175 8.94667 19.164 8.71698 18.9705 8.52352L18.9696 8.52686Z" fill="black"/>
<path d="M8.73 17.5C8.73 17.721 8.6422 17.933 8.48592 18.0893C8.32964 18.2455 8.11768 18.3333 7.89667 18.3333H2.5C2.27899 18.3333 2.06702 18.2455 1.91074 18.0893C1.75446 17.933 1.66667 17.721 1.66667 17.5V2.5C1.66667 2.27899 1.75446 2.06702 1.91074 1.91074C2.06702 1.75446 2.27899 1.66667 2.5 1.66667H7.89667C8.11768 1.66667 8.32964 1.75446 8.48592 1.91074C8.6422 2.06702 8.73 2.27899 8.73 2.5V6.94417H10.3967V2.5C10.3967 1.83696 10.1333 1.20107 9.66443 0.732233C9.19559 0.263392 8.55971 0 7.89667 0L2.5 0C1.83696 0 1.20107 0.263392 0.732233 0.732233C0.263392 1.20107 0 1.83696 0 2.5L0 17.5C0 18.163 0.263392 18.7989 0.732233 19.2678C1.20107 19.7366 1.83696 20 2.5 20H7.89667C8.55971 20 9.19559 19.7366 9.66443 19.2678C10.1333 18.7989 10.3967 18.163 10.3967 17.5V13.0558H8.73V17.5Z" fill="black"/>
</svg>
