<svg width="21" height="20" viewBox="0 0 21 20" fill="none" xmlns="http://www.w3.org/2000/svg">
<path d="M1.04938 7.0501C1.14018 6.94755 7.26425 1.19918 7.26425 1.19918C8.07145 0.428414 9.15783 -0.00233047 10.2887 9.48391e-06C11.4195 0.00234944 12.504 0.437586 13.3078 1.21168C13.3078 1.21168 19.419 6.94755 19.509 7.0476L12.0965 14.2625C11.6068 14.7168 10.9562 14.9702 10.2796 14.9702C9.60302 14.9702 8.95241 14.7168 8.46268 14.2625L1.04938 7.0501ZM13.3078 15.4446C12.5019 16.2213 11.4137 16.6569 10.2796 16.6569C9.14551 16.6569 8.05726 16.2213 7.2514 15.4446L0.196169 8.57828C0.0730278 8.95832 0.00695553 9.35369 0 9.75213L0 15.8315C0.00136021 16.9366 0.453058 17.9961 1.25601 18.7776C2.05897 19.5591 3.14762 19.9987 4.28317 20H16.276C17.4116 19.9987 18.5002 19.5591 19.3032 18.7776C20.1061 17.9961 20.5578 16.9366 20.5592 15.8315V9.75213C20.5522 9.35369 20.4862 8.95832 20.363 8.57828L13.3078 15.4446Z" fill="#81E700"/>
</svg>
