<svg width="97" height="92" viewBox="0 0 97 92" fill="none" xmlns="http://www.w3.org/2000/svg">
<path d="M65.2098 0H0L33.0332 32.9503L64.3749 64.2252C64.6532 64.247 64.9315 64.247 65.2098 64.247C73.5923 64.0138 81.5531 60.5271 87.3996 54.5282C93.246 48.5294 96.517 40.4914 96.517 32.1235C96.517 23.7556 93.246 15.7177 87.3996 9.71879C81.5531 3.71989 73.5923 0.233186 65.2098 0ZM39.2303 19.7059C38.6127 19.7022 38.0101 19.5161 37.4984 19.171C36.9866 18.8259 36.5888 18.3374 36.355 17.767C36.1213 17.1966 36.062 16.5698 36.1848 15.9658C36.3075 15.3619 36.6068 14.8077 37.0448 14.3732C37.4828 13.9387 38.0399 13.6434 38.6459 13.5246C39.2519 13.4057 39.8796 13.4686 40.4499 13.7052C41.0201 13.9419 41.5073 14.3418 41.8501 14.8545C42.1928 15.3672 42.3757 15.9696 42.3757 16.5859C42.3757 16.9972 42.2942 17.4045 42.1359 17.7842C41.9776 18.164 41.7456 18.5088 41.4533 18.7987C41.161 19.0887 40.8141 19.3181 40.4326 19.4738C40.0511 19.6295 39.6425 19.7084 39.2303 19.7059ZM49.7484 30.1361C49.1308 30.1324 48.5282 29.9462 48.0165 29.6012C47.5047 29.2561 47.1069 28.7676 46.8731 28.1971C46.6394 27.6267 46.5801 27 46.7029 26.396C46.8256 25.792 47.1249 25.2378 47.5629 24.8034C48.0009 24.3689 48.558 24.0736 49.164 23.9547C49.77 23.8358 50.3977 23.8987 50.968 24.1354C51.5382 24.3721 52.0254 24.772 52.3682 25.2846C52.7109 25.7973 52.8938 26.3998 52.8938 27.0161C52.8947 27.4271 52.8141 27.8342 52.6567 28.2141C52.4994 28.594 52.2684 28.9391 51.9769 29.2296C51.6855 29.5201 51.3395 29.7503 50.9586 29.9069C50.5778 30.0635 50.1697 30.1435 49.7578 30.1423L49.7484 30.1361ZM49.7484 19.7059C49.1308 19.7022 48.5282 19.5161 48.0165 19.171C47.5047 18.8259 47.1069 18.3374 46.8731 17.767C46.6394 17.1966 46.5801 16.5698 46.7029 15.9658C46.8256 15.3619 47.1249 14.8077 47.5629 14.3732C48.0009 13.9387 48.558 13.6434 49.164 13.5246C49.77 13.4057 50.3977 13.4686 50.968 13.7052C51.5382 13.9419 52.0254 14.3418 52.3682 14.8545C52.7109 15.3672 52.8938 15.9696 52.8938 16.5859C52.8938 16.9964 52.8126 17.4029 52.6549 17.7821C52.4972 18.1612 52.2661 18.5056 51.9747 18.7954C51.6834 19.0853 51.3376 19.3149 50.9572 19.4711C50.5768 19.6274 50.1692 19.7071 49.7578 19.7059H49.7484ZM60.2665 40.5693C59.6489 40.5657 59.0463 40.3795 58.5346 40.0345C58.0229 39.6894 57.625 39.2008 57.3913 38.6304C57.1575 38.06 57.0982 37.4333 57.221 36.8293C57.3437 36.2253 57.643 35.6711 58.081 35.2366C58.519 34.8022 59.0762 34.5069 59.6822 34.388C60.2881 34.2691 60.9158 34.332 61.4861 34.5687C62.0563 34.8054 62.5435 35.2053 62.8863 35.7179C63.229 36.2306 63.4119 36.8331 63.4119 37.4493C63.4078 38.2778 63.076 39.071 62.4887 39.6565C61.9013 40.242 61.1061 40.5723 60.2759 40.5756L60.2665 40.5693ZM60.2665 30.1361C59.6489 30.1324 59.0463 29.9462 58.5346 29.6012C58.0229 29.2561 57.625 28.7676 57.3913 28.1971C57.1575 27.6267 57.0982 27 57.221 26.396C57.3437 25.792 57.643 25.2378 58.081 24.8034C58.519 24.3689 59.0762 24.0736 59.6822 23.9547C60.2881 23.8358 60.9158 23.8987 61.4861 24.1354C62.0563 24.3721 62.5435 24.772 62.8863 25.2846C63.229 25.7973 63.4119 26.3998 63.4119 27.0161C63.4128 27.4271 63.3322 27.8342 63.1748 28.2141C63.0175 28.594 62.7865 28.9391 62.495 29.2296C62.2036 29.5201 61.8576 29.7503 61.4767 29.9069C61.0959 30.0635 60.6878 30.1435 60.2759 30.1423L60.2665 30.1361ZM60.2665 19.7059C59.6489 19.7022 59.0463 19.5161 58.5346 19.171C58.0229 18.8259 57.625 18.3374 57.3913 17.767C57.1575 17.1966 57.0982 16.5698 57.221 15.9658C57.3437 15.3619 57.643 14.8077 58.081 14.3732C58.519 13.9387 59.0762 13.6434 59.6822 13.5246C60.2881 13.4057 60.9158 13.4686 61.4861 13.7052C62.0563 13.9419 62.5435 14.3418 62.8863 14.8545C63.229 15.3672 63.4119 15.9696 63.4119 16.5859C63.4119 16.9964 63.3307 17.4029 63.173 17.7821C63.0153 18.1612 62.7842 18.5056 62.4928 18.7954C62.2015 19.0853 61.8557 19.3149 61.4753 19.4711C61.0949 19.6274 60.6873 19.7071 60.2759 19.7059H60.2665ZM70.8096 50.9964C70.1912 50.9964 69.5867 50.8134 69.0725 50.4706C68.5584 50.1277 68.1576 49.6405 67.921 49.0704C67.6843 48.5003 67.6224 47.8729 67.743 47.2677C67.8637 46.6625 68.1615 46.1066 68.5987 45.6702C69.036 45.2339 69.5931 44.9367 70.1996 44.8163C70.8061 44.6959 71.4348 44.7577 72.0061 44.9939C72.5775 45.23 73.0658 45.6299 73.4094 46.143C73.7529 46.6561 73.9363 47.2593 73.9363 47.8764C73.9363 48.7039 73.6069 49.4975 73.0205 50.0826C72.4341 50.6677 71.6389 50.9964 70.8096 50.9964ZM70.8096 40.5756C70.1912 40.5756 69.5867 40.3926 69.0725 40.0498C68.5584 39.7069 68.1576 39.2197 67.921 38.6496C67.6843 38.0795 67.6224 37.4521 67.743 36.8469C67.8637 36.2417 68.1615 35.6857 68.5987 35.2494C69.036 34.8131 69.5931 34.5159 70.1996 34.3955C70.8061 34.2752 71.4348 34.3369 72.0061 34.5731C72.5775 34.8092 73.0658 35.2091 73.4094 35.7222C73.7529 36.2353 73.9363 36.8385 73.9363 37.4556C73.9314 38.2816 73.6004 39.0723 73.0151 39.6563C72.4298 40.2404 71.6374 40.5707 70.8096 40.5756ZM70.8096 30.1423C70.1912 30.1423 69.5867 29.9593 69.0725 29.6165C68.5584 29.2737 68.1576 28.7864 67.921 28.2163C67.6843 27.6462 67.6224 27.0188 67.743 26.4136C67.8637 25.8084 68.1615 25.2525 68.5987 24.8161C69.036 24.3798 69.5931 24.0826 70.1996 23.9623C70.8061 23.8419 71.4348 23.9037 72.0061 24.1398C72.5775 24.3759 73.0658 24.7758 73.4094 25.2889C73.7529 25.802 73.9363 26.4052 73.9363 27.0223C73.9363 27.8498 73.6069 28.6434 73.0205 29.2285C72.4341 29.8136 71.6389 30.1423 70.8096 30.1423ZM70.8096 19.7059C70.1912 19.7059 69.5867 19.5229 69.0725 19.1801C68.5584 18.8373 68.1576 18.35 67.921 17.7799C67.6843 17.2098 67.6224 16.5824 67.743 15.9772C67.8637 15.372 68.1615 14.8161 68.5987 14.3797C69.036 13.9434 69.5931 13.6462 70.1996 13.5259C70.8061 13.4055 71.4348 13.4673 72.0061 13.7034C72.5775 13.9396 73.0658 14.3394 73.4094 14.8525C73.7529 15.3656 73.9363 15.9688 73.9363 16.5859C73.9363 17.4134 73.6069 18.207 73.0205 18.7921C72.4341 19.3772 71.6389 19.7059 70.8096 19.7059ZM81.3309 40.5693C80.7125 40.5693 80.108 40.3864 79.5938 40.0435C79.0796 39.7007 78.6788 39.2134 78.4422 38.6433C78.2055 38.0732 78.1436 37.4459 78.2643 36.8407C78.3849 36.2354 78.6827 35.6795 79.12 35.2432C79.5572 34.8068 80.1144 34.5097 80.7209 34.3893C81.3274 34.2689 81.956 34.3307 82.5274 34.5669C83.0987 34.803 83.587 35.2029 83.9306 35.716C84.2742 36.229 84.4575 36.8323 84.4575 37.4493C84.4534 38.2788 84.1207 39.073 83.5321 39.6587C82.9434 40.2444 82.1465 40.574 81.3152 40.5756L81.3309 40.5693ZM81.3309 30.1361C80.7125 30.1361 80.108 29.9531 79.5938 29.6103C79.0796 29.2674 78.6788 28.7801 78.4422 28.21C78.2055 27.6399 78.1436 27.0126 78.2643 26.4074C78.3849 25.8022 78.6827 25.2462 79.12 24.8099C79.5572 24.3736 80.1144 24.0764 80.7209 23.956C81.3274 23.8356 81.956 23.8974 82.5274 24.1336C83.0987 24.3697 83.587 24.7696 83.9306 25.2827C84.2742 25.7958 84.4575 26.399 84.4575 27.0161C84.4584 27.4276 84.3776 27.8353 84.2198 28.2156C84.0621 28.5959 83.8305 28.9412 83.5384 29.2318C83.2464 29.5224 82.8996 29.7524 82.518 29.9087C82.1364 30.065 81.7277 30.1444 81.3152 30.1423L81.3309 30.1361Z" fill="#81E700"/>
<path d="M92.0365 91.8279H59.6974L32.0576 64.2471H64.3967L92.0365 91.8279Z" fill="#81E700"/>
</svg>
