<svg width="325" height="306" viewBox="0 0 325 306" fill="none" xmlns="http://www.w3.org/2000/svg">
<path d="M250.094 23.1992H62.9064C46.3899 23.1992 33 36.5891 33 53.1056V227.33C33 243.847 46.3899 257.237 62.9064 257.237H250.094C266.61 257.237 280 243.847 280 227.33V53.1056C280 36.5882 266.61 23.1992 250.094 23.1992Z" fill="#EBF0F3"/>
<path d="M280 79.3906V43.1544C280 26.6379 266.61 13.248 250.094 13.248H62.9064C46.3899 13.248 33 26.6379 33 43.1544V79.3906H280Z" fill="#5B9E07"/>
<path d="M280 86.1506V53.1056C280 36.5891 266.61 23.1992 250.094 23.1992H62.9064C46.3899 23.1992 33 36.5891 33 53.1056V86.1506H280Z" fill="#81E700"/>
<path d="M81.9867 39.2617C76.222 39.2617 71.5488 43.9349 71.5488 49.6996C71.5488 55.4643 76.222 60.1366 81.9867 60.1366C87.7514 60.1366 92.4237 55.4634 92.4237 49.6996C92.4245 43.9349 87.7514 39.2617 81.9867 39.2617Z" fill="#5B9E07"/>
<path d="M81.9864 0C78.9028 0 76.4023 2.50044 76.4023 5.58406V49.091C76.4023 52.1755 78.9028 54.6751 81.9864 54.6751C85.07 54.6751 87.5705 52.1755 87.5705 49.091V5.58406C87.5705 2.50044 85.0709 0 81.9864 0Z" fill="#3B3B3B"/>
<path d="M131.661 39.2617C125.897 39.2617 121.224 43.9349 121.224 49.6996C121.224 55.4643 125.897 60.1366 131.661 60.1366C137.426 60.1366 142.098 55.4634 142.098 49.6996C142.099 43.9349 137.426 39.2617 131.661 39.2617Z" fill="#5B9E07"/>
<path d="M131.662 0C128.579 0 126.078 2.50044 126.078 5.58406V49.091C126.078 52.1755 128.579 54.6751 131.662 54.6751C134.746 54.6751 137.246 52.1755 137.246 49.091V5.58406C137.246 2.50044 134.746 0 131.662 0Z" fill="#3B3B3B"/>
<path d="M181.338 39.2617C175.574 39.2617 170.9 43.9349 170.9 49.6996C170.9 55.4643 175.574 60.1366 181.338 60.1366C187.103 60.1366 191.775 55.4634 191.775 49.6996C191.775 43.9349 187.103 39.2617 181.338 39.2617Z" fill="#5B9E07"/>
<path d="M181.338 0C178.254 0 175.754 2.50044 175.754 5.58406V49.091C175.754 52.1755 178.254 54.6751 181.338 54.6751C184.422 54.6751 186.922 52.1755 186.922 49.091V5.58406C186.922 2.50044 184.422 0 181.338 0Z" fill="#3B3B3B"/>
<path d="M231.014 39.2617C225.249 39.2617 220.576 43.9349 220.576 49.6996C220.576 55.4643 225.249 60.1366 231.014 60.1366C236.779 60.1366 241.451 55.4634 241.451 49.6996C241.451 43.9349 236.778 39.2617 231.014 39.2617Z" fill="#5B9E07"/>
<path d="M231.013 0C227.929 0 225.429 2.50044 225.429 5.58406V49.091C225.429 52.1755 227.929 54.6751 231.013 54.6751C234.096 54.6751 236.597 52.1755 236.597 49.091V5.58406C236.597 2.50044 234.097 0 231.013 0Z" fill="#3B3B3B"/>
<path d="M124.139 127.471H146.713V150.045H124.139V127.471Z" fill="#1D1D1D"/>
<path d="M166.289 127.471H188.864V150.045H166.289V127.471Z" fill="#1D1D1D"/>
<path d="M208.441 127.471H231.016V150.045H208.441V127.471Z" fill="#1D1D1D"/>
<path d="M81.9873 162.859H104.562V185.434H81.9873V162.859Z" fill="#1D1D1D"/>
<path d="M124.139 162.859H146.713V185.434H124.139V162.859Z" fill="#1D1D1D"/>
<path d="M166.289 162.859H188.864V185.434H166.289V162.859Z" fill="#1D1D1D"/>
<path d="M208.441 162.859H231.016V185.434H208.441V162.859Z" fill="#1D1D1D"/>
<path d="M81.9873 198.25H104.562V220.824H81.9873V198.25Z" fill="#1D1D1D"/>
<path d="M124.139 198.25H146.713V220.824H124.139V198.25Z" fill="#1D1D1D"/>
<path d="M166.289 198.25H188.864V220.824H166.289V198.25Z" fill="#1D1D1D"/>
<path d="M179.76 253.037L236.97 247.35L234.244 233.958L168.621 240.954L179.76 253.037Z" fill="#5B9E07"/>
<path d="M160.372 230.48L171.744 175.049L185.263 179.366L171.408 242.932L160.372 230.48Z" fill="#81E700"/>
<path d="M305.326 213.35C274.286 241.199 223.252 266.979 187.25 226.852C150.199 185.557 182.39 138.775 213.43 110.926C244.47 83.0768 274.278 97.7181 299.655 126.001C325.031 154.285 336.366 185.5 305.326 213.35Z" fill="#81E700"/>
<path d="M305.326 213.349C274.287 241.198 223.252 266.978 187.25 226.851L299.655 126.001C325.031 154.284 336.366 185.5 305.326 213.349Z" fill="#5B9E07"/>
<path d="M269.793 143.26L279.271 153.823L268.707 163.301L259.229 152.738L269.793 143.26Z" fill="#3B3B3B"/>
<path d="M288.748 164.387L298.226 174.95L287.662 184.428L278.184 173.865L288.748 164.387Z" fill="#1D1D1D"/>
<path d="M250.837 122.133L260.315 132.696L249.751 142.174L240.273 131.611L250.837 122.133Z" fill="#3B3B3B"/>
<path d="M248.666 162.215L258.144 172.778L247.58 182.256L238.102 171.693L248.666 162.215Z" fill="#3B3B3B"/>
<path d="M267.621 183.342L277.099 193.905L266.535 203.383L257.057 192.82L267.621 183.342Z" fill="#1D1D1D"/>
<path d="M229.71 141.088L239.188 151.652L228.624 161.129L219.146 150.566L229.71 141.088Z" fill="#3B3B3B"/>
<path d="M227.539 181.172L237.017 191.736L226.453 201.213L216.975 190.65L227.539 181.172Z" fill="#3B3B3B"/>
<path d="M274.681 148.541L279.27 153.771L268.557 163.3L263.968 158.071L274.681 148.541Z" fill="#1D1D1D"/>
<path d="M253.553 167.496L258.142 172.726L247.429 182.256L242.84 177.026L253.553 167.496Z" fill="#1D1D1D"/>
<path d="M232.426 186.453L237.015 191.683L226.302 201.213L221.713 195.983L232.426 186.453Z" fill="#1D1D1D"/>
<path d="M246.723 202.299L255.971 212.786L245.178 222.34L235.929 211.853L246.723 202.299Z" fill="#1D1D1D"/>
<path d="M208.583 160.045L218.061 170.609L207.497 180.086L198.019 169.523L208.583 160.045Z" fill="#3B3B3B"/>
<path d="M154.057 278.547L182.81 252.749L160.831 228.252L132.078 254.05L126.873 248.249L103 269.668L135.581 305.982L159.455 284.563L154.057 278.547Z" fill="#3B3B3B"/>
<path d="M119.206 287.732L135.581 305.984L159.455 284.565L154.057 278.548L182.81 252.751L171.917 240.61L119.206 287.732Z" fill="#1D1D1D"/>
<path d="M46 147C71.4051 147 92 126.405 92 101C92 75.5949 71.4051 55 46 55C20.5949 55 0 75.5949 0 101C0 126.405 20.5949 147 46 147Z" fill="#E70E00"/>
<path fill-rule="evenodd" clip-rule="evenodd" d="M64.2585 82.7301C66.3189 84.7906 66.3189 88.1313 64.2585 90.1917L35.1929 119.257C33.1325 121.318 29.7918 121.318 27.7313 119.257C25.6709 117.197 25.6709 113.856 27.7313 111.796L56.7969 82.7301C58.8573 80.6697 62.198 80.6697 64.2585 82.7301Z" fill="white"/>
<path fill-rule="evenodd" clip-rule="evenodd" d="M64.2585 119.26C66.3189 117.2 66.3189 113.859 64.2585 111.799L35.1929 82.733C33.1325 80.6725 29.7918 80.6725 27.7313 82.733C25.6709 84.7934 25.6709 88.1341 27.7313 90.1946L56.7969 119.26C58.8573 121.321 62.198 121.321 64.2585 119.26Z" fill="white"/>
<path fill-rule="evenodd" clip-rule="evenodd" d="M46.0002 55C71.4052 55 92.0002 75.595 92.0002 101C92.0002 126.405 71.4052 147 46.0002 147C45.0342 147 44.0762 146.967 43.125 146.908C67.1903 145.423 86.25 125.439 86.25 101C86.25 76.5608 67.1903 56.5766 43.125 55.092C44.0761 55.0333 45.0342 55 46.0002 55Z" fill="#920A02"/>
</svg>
