<svg width="35" height="60" viewBox="0 0 35 60" fill="none" xmlns="http://www.w3.org/2000/svg">
<path d="M29.2673 31.3063C32.8499 26.3919 34.0723 19.3417 34.0723 13.3984C34.0723 3.07266 26.4449 0 17.0361 0C7.62738 0 0 3.07266 0 13.3984C0 19.3601 1.09992 26.4359 4.67332 31.3522L12.6271 44.9141L12.6271 51.4207H10.5423V60H23.5928V51.4206H21.4307V44.9654L29.2673 31.3063ZM22.3073 8.35746H25.8214V11.8716H22.3073V8.35746ZM22.3073 15.3857H25.8214V18.8998H22.3073V15.3857ZM22.3073 22.414H25.8214V25.9281H22.3073V22.414ZM15.279 8.35746L18.7931 8.35746V11.8716L15.279 11.8716V8.35746ZM15.279 15.3857L18.7931 15.3857V18.8998H15.279L15.279 15.3857ZM15.279 22.414H18.7931V25.9281H15.279V22.414ZM11.7649 25.9281H8.25082V22.414H11.7649V25.9281ZM11.7649 18.8999H8.25082L8.25082 15.3858H11.7649L11.7649 18.8999ZM11.7649 11.8716H8.25082V8.35746H11.7649V11.8716ZM19.6041 41.0877H14.4568L11.8424 36.6298C13.3806 37.1225 15.1052 37.3927 17.0361 37.3927C18.94 37.3927 20.6467 37.1136 22.1748 36.6069L19.6041 41.0877Z" fill="black"/>
</svg>
