<svg width="510" height="535" viewBox="0 0 510 535" fill="none" xmlns="http://www.w3.org/2000/svg">
<g opacity="0.2">
<path d="M17.0804 88.9535C-7.48344 88.9535 -27.3963 69.0405 -27.3963 44.4767C-27.3963 19.9129 -7.48344 0 17.0804 0C41.6442 0 61.5571 19.9129 61.5571 44.4767C61.5571 69.0405 41.6442 88.9535 17.0804 88.9535Z" fill="#81E700"/>
<path d="M166.684 88.9535C142.12 88.9535 122.207 69.0405 122.207 44.4767C122.207 19.9129 142.12 0 166.684 0C191.248 0 211.161 19.9129 211.161 44.4767C211.161 69.0405 191.248 88.9535 166.684 88.9535Z" fill="#81E700"/>
<path d="M315.92 88.9535C291.356 88.9535 271.443 69.0405 271.443 44.4767C271.443 19.9129 291.356 0 315.92 0C340.484 0 360.396 19.9129 360.396 44.4767C360.396 69.0405 340.484 88.9535 315.92 88.9535Z" fill="#81E700"/>
<path d="M465.523 88.9535C440.959 88.9535 421.047 69.0405 421.047 44.4767C421.047 19.9129 440.959 0 465.523 0C490.087 0 510 19.9129 510 44.4767C510 69.0405 490.087 88.9535 465.523 88.9535Z" fill="#81E700"/>
<path d="M17.0804 237.454C-7.48344 237.454 -27.3963 217.541 -27.3963 192.978C-27.3963 168.414 -7.48344 148.501 17.0804 148.501C41.6442 148.501 61.5571 168.414 61.5571 192.978C61.5571 217.541 41.6442 237.454 17.0804 237.454Z" fill="#81E700"/>
<path d="M166.684 237.454C142.12 237.454 122.207 217.541 122.207 192.978C122.207 168.414 142.12 148.501 166.684 148.501C191.248 148.501 211.161 168.414 211.161 192.978C211.161 217.541 191.248 237.454 166.684 237.454Z" fill="#81E700"/>
<path d="M17.0804 385.955C-7.48344 385.955 -27.3963 366.042 -27.3963 341.478C-27.3963 316.914 -7.48344 297.002 17.0804 297.002C41.6442 297.002 61.5571 316.914 61.5571 341.478C61.5571 366.042 41.6442 385.955 17.0804 385.955Z" fill="#81E700"/>
<path d="M17.0804 534.456C-7.48344 534.456 -27.3963 514.543 -27.3963 489.979C-27.3963 465.415 -7.48344 445.502 17.0804 445.502C41.6442 445.502 61.5571 465.415 61.5571 489.979C61.5571 514.543 41.6442 534.456 17.0804 534.456Z" fill="#81E700"/>
<path d="M166.684 385.955C142.12 385.955 122.207 366.042 122.207 341.478C122.207 316.914 142.12 297.002 166.684 297.002C191.248 297.002 211.161 316.914 211.161 341.478C211.161 366.042 191.248 385.955 166.684 385.955Z" fill="#81E700"/>
<path d="M315.92 237.454C291.356 237.454 271.443 217.541 271.443 192.978C271.443 168.414 291.356 148.501 315.92 148.501C340.484 148.501 360.396 168.414 360.396 192.978C360.396 217.541 340.484 237.454 315.92 237.454Z" fill="#81E700"/>
</g>
</svg>
