<svg width="349" height="535" viewBox="0 0 349 535" fill="none" xmlns="http://www.w3.org/2000/svg">
<g opacity="0.2">
<path d="M194.08 88.9535C169.517 88.9535 149.604 69.0405 149.604 44.4767C149.604 19.9129 169.517 0 194.08 0C218.644 0 238.557 19.9129 238.557 44.4767C238.557 69.0405 218.644 88.9535 194.08 88.9535Z" fill="#81E700"/>
<path d="M343.684 88.9535C319.12 88.9535 299.207 69.0405 299.207 44.4767C299.207 19.9129 319.12 0 343.684 0C368.248 0 388.161 19.9129 388.161 44.4767C388.161 69.0405 368.248 88.9535 343.684 88.9535Z" fill="#81E700"/>
<path d="M44.4766 237.454C19.9128 237.454 -6.86646e-05 217.541 -6.86646e-05 192.978C-6.86646e-05 168.414 19.9128 148.501 44.4766 148.501C69.0404 148.501 88.9534 168.414 88.9534 192.978C88.9534 217.541 69.0404 237.454 44.4766 237.454Z" fill="#81E700"/>
<path d="M194.08 237.454C169.517 237.454 149.604 217.541 149.604 192.978C149.604 168.414 169.517 148.501 194.08 148.501C218.644 148.501 238.557 168.414 238.557 192.978C238.557 217.541 218.644 237.454 194.08 237.454Z" fill="#81E700"/>
<path d="M343.684 237.454C319.12 237.454 299.207 217.541 299.207 192.978C299.207 168.414 319.12 148.501 343.684 148.501C368.248 148.501 388.161 168.414 388.161 192.978C388.161 217.541 368.248 237.454 343.684 237.454Z" fill="#81E700"/>
<path d="M44.4766 385.955C19.9128 385.955 -6.86646e-05 366.042 -6.86646e-05 341.478C-6.86646e-05 316.914 19.9128 297.002 44.4766 297.002C69.0404 297.002 88.9534 316.914 88.9534 341.478C88.9534 366.042 69.0404 385.955 44.4766 385.955Z" fill="#81E700"/>
<path d="M194.08 385.955C169.517 385.955 149.604 366.042 149.604 341.478C149.604 316.914 169.517 297.002 194.08 297.002C218.644 297.002 238.557 316.914 238.557 341.478C238.557 366.042 218.644 385.955 194.08 385.955Z" fill="#81E700"/>
<path d="M194.08 534.456C169.517 534.456 149.604 514.543 149.604 489.979C149.604 465.415 169.517 445.502 194.08 445.502C218.644 445.502 238.557 465.415 238.557 489.979C238.557 514.543 218.644 534.456 194.08 534.456Z" fill="#81E700"/>
<path d="M343.684 385.955C319.12 385.955 299.207 366.042 299.207 341.478C299.207 316.914 319.12 297.002 343.684 297.002C368.248 297.002 388.161 316.914 388.161 341.478C388.161 366.042 368.248 385.955 343.684 385.955Z" fill="#81E700"/>
</g>
</svg>
