<svg width="21" height="20" viewBox="0 0 21 20" fill="none" xmlns="http://www.w3.org/2000/svg">
<path d="M15.0812 10.7066L20.4456 15.9274L17.7305 18.5698C17.2572 19.0285 16.6951 19.3911 16.0767 19.6365C15.4584 19.882 14.796 20.0055 14.1282 19.9998C7.92215 19.9998 0.000167055 12.2899 0.000167055 6.24994C-0.00526438 5.59993 0.121798 4.95533 0.374004 4.35342C0.626209 3.75152 0.99855 3.20426 1.46949 2.74331L4.18464 0.101666L9.54902 5.32245L6.01701 8.75992C7.06704 11.1885 9.04947 13.1223 11.5424 14.1499L15.0812 10.7066ZM18.8376 8.33325H20.5501C20.5476 6.12388 19.6447 4.0057 18.0394 2.44343C16.4342 0.881171 14.2578 0.00242631 11.9876 0V1.66665C13.8037 1.66864 15.5448 2.37165 16.829 3.62145C18.1132 4.87125 18.8355 6.56577 18.8376 8.33325ZM15.4126 8.33325H17.1251C17.1237 7.00759 16.582 5.7366 15.6189 4.79922C14.6557 3.86183 13.3497 3.33463 11.9876 3.3333V4.99995C12.896 4.99995 13.7671 5.35114 14.4094 5.97625C15.0517 6.60137 15.4126 7.44921 15.4126 8.33325Z" fill="#81E700"/>
</svg>
