<svg width="89" height="120" viewBox="0 0 89 120" fill="none" xmlns="http://www.w3.org/2000/svg">
<path d="M7.0973 0.027425C26.3355 1.72291 40.5318 11.3255 48.8075 25.2076C54.3537 32.1602 65.4326 53.3868 69.4618 64.4986C76.7675 78.3167 83.1382 94.7575 88.1238 109.578C91.1714 118.642 77.4872 124.555 74.4221 115.451C70.6936 104.362 66.1891 92.3733 61.0988 81.2479C56.0472 92.5537 50.9142 103.823 45.4029 114.913C41.1312 123.523 28.2773 115.972 32.5335 107.392C38.2077 95.9757 43.4785 84.377 48.6717 72.7394C48.6057 72.5144 48.5223 72.2952 48.4525 72.0721C47.5872 72.3184 46.6328 72.3941 45.5814 72.1943C37.6355 70.7025 29.6896 69.2146 21.7379 67.7228C18.3411 67.0845 17.0394 63.3677 17.5748 60.3918C19.181 51.474 24.2617 45.2702 30.5858 39.4C31.5247 36.2069 34.6558 33.3824 38.1302 30.5753C31.0863 19.188 19.5865 13.0074 4.61808 11.6883C-3.02132 11.019 -0.476143 -0.637967 7.0973 0.027425ZM36.0486 50.7155C34.0835 52.7602 32.4113 54.9116 31.1484 57.4024C34.9933 58.1241 38.8402 58.8438 42.6851 59.5654C40.7452 56.4422 38.5123 53.4935 36.0486 50.7155Z" fill="black"/>
<path d="M19.599 40.5643C13.9474 40.5643 9.3659 35.9828 9.3659 30.3312C9.3659 24.6796 13.9474 20.0981 19.599 20.0981C25.2505 20.0981 29.832 24.6796 29.832 30.3312C29.832 35.9828 25.2505 40.5643 19.599 40.5643Z" fill="black"/>
</svg>
