<svg width="22" height="33" viewBox="0 0 22 33" fill="none" xmlns="http://www.w3.org/2000/svg">
<path d="M19.9705 12.7495L0 0V32.4174L19.9624 19.622C20.5434 19.2568 21.0225 18.7502 21.3548 18.1497C21.6871 17.5492 21.8618 16.8743 21.8626 16.188C21.8634 15.5016 21.6903 14.8263 21.3594 14.225C21.0285 13.6237 20.5507 13.1161 19.9705 12.7495ZM18.5117 17.3352L2.7082 27.4656V4.94095L18.5211 15.0363C18.7161 15.1582 18.8767 15.3279 18.9877 15.5293C19.0988 15.7307 19.1566 15.9571 19.1556 16.187C19.1547 16.417 19.095 16.6429 18.9823 16.8433C18.8696 17.0438 18.7076 17.2122 18.5117 17.3325V17.3352Z" fill="#81E700"/>
</svg>
