<svg width="28" height="28" viewBox="0 0 28 28" fill="none" xmlns="http://www.w3.org/2000/svg">
<g clip-path="url(#clip0_400_1739)">
<path d="M28 10.5C28 9.57174 27.6313 8.6815 26.9749 8.02513C26.3185 7.36875 25.4283 7 24.5 7H22.1667V0H5.83333V7H3.5C2.57174 7 1.6815 7.36875 1.02513 8.02513C0.368749 8.6815 0 9.57174 0 10.5L0 24.5H5.83333V28H22.1667V24.5H28V10.5ZM8.16667 2.33333H19.8333V7H8.16667V2.33333ZM19.8333 25.6667H8.16667V18.6667H19.8333V25.6667ZM25.6667 22.1667H22.1667V16.3333H5.83333V22.1667H2.33333V10.5C2.33333 10.1906 2.45625 9.89383 2.67504 9.67504C2.89383 9.45625 3.19058 9.33333 3.5 9.33333H24.5C24.8094 9.33333 25.1062 9.45625 25.325 9.67504C25.5438 9.89383 25.6667 10.1906 25.6667 10.5V22.1667Z" fill="white"/>
<path d="M22.1667 11.6665H17.5V13.9998H22.1667V11.6665Z" fill="white"/>
</g>
<defs>
<clipPath id="clip0_400_1739">
<rect width="28" height="28" fill="white"/>
</clipPath>
</defs>
</svg>
