<svg width="196" height="196" viewBox="0 0 196 196" fill="none" xmlns="http://www.w3.org/2000/svg">
<path d="M9.33333 0H0V9.33333H9.33333V0Z" fill="white"/>
<path d="M18.6673 0H9.33398V9.33333H18.6673V0Z" fill="white"/>
<path d="M28.0013 0H18.668V9.33333H28.0013V0Z" fill="white"/>
<path d="M37.3333 0H28V9.33333H37.3333V0Z" fill="white"/>
<path d="M46.6654 0H37.332V9.33333H46.6654V0Z" fill="white"/>
<path d="M55.9993 0H46.666V9.33333H55.9993V0Z" fill="white"/>
<path d="M65.3333 0H56V9.33333H65.3333V0Z" fill="white"/>
<path d="M102.667 0H93.334V9.33333H102.667V0Z" fill="white"/>
<path d="M121.333 0H112V9.33333H121.333V0Z" fill="white"/>
<path d="M139.999 0H130.666V9.33333H139.999V0Z" fill="white"/>
<path d="M149.333 0H140V9.33333H149.333V0Z" fill="white"/>
<path d="M158.667 0H149.334V9.33333H158.667V0Z" fill="white"/>
<path d="M168.001 0H158.668V9.33333H168.001V0Z" fill="white"/>
<path d="M177.333 0H168V9.33333H177.333V0Z" fill="white"/>
<path d="M186.665 0H177.332V9.33333H186.665V0Z" fill="white"/>
<path d="M195.999 0H186.666V9.33333H195.999V0Z" fill="white"/>
<path d="M9.33333 9.33334H0V18.6667H9.33333V9.33334Z" fill="white"/>
<path d="M65.3333 9.33334H56V18.6667H65.3333V9.33334Z" fill="white"/>
<path d="M83.9993 9.33334H74.666V18.6667H83.9993V9.33334Z" fill="white"/>
<path d="M102.667 9.33334H93.334V18.6667H102.667V9.33334Z" fill="white"/>
<path d="M121.333 9.33334H112V18.6667H121.333V9.33334Z" fill="white"/>
<path d="M139.999 9.33334H130.666V18.6667H139.999V9.33334Z" fill="white"/>
<path d="M195.999 9.33334H186.666V18.6667H195.999V9.33334Z" fill="white"/>
<path d="M9.33333 18.6667H0V28H9.33333V18.6667Z" fill="white"/>
<path d="M28.0013 18.6667H18.668V28H28.0013V18.6667Z" fill="white"/>
<path d="M37.3333 18.6667H28V28H37.3333V18.6667Z" fill="white"/>
<path d="M46.6654 18.6667H37.332V28H46.6654V18.6667Z" fill="white"/>
<path d="M65.3333 18.6667H56V28H65.3333V18.6667Z" fill="white"/>
<path d="M83.9993 18.6667H74.666V28H83.9993V18.6667Z" fill="white"/>
<path d="M102.667 18.6667H93.334V28H102.667V18.6667Z" fill="white"/>
<path d="M111.999 18.6667H102.666V28H111.999V18.6667Z" fill="white"/>
<path d="M139.999 18.6667H130.666V28H139.999V18.6667Z" fill="white"/>
<path d="M158.667 18.6667H149.334V28H158.667V18.6667Z" fill="white"/>
<path d="M168.001 18.6667H158.668V28H168.001V18.6667Z" fill="white"/>
<path d="M177.333 18.6667H168V28H177.333V18.6667Z" fill="white"/>
<path d="M195.999 18.6667H186.666V28H195.999V18.6667Z" fill="white"/>
<path d="M9.33333 28H0V37.3333H9.33333V28Z" fill="white"/>
<path d="M28.0013 28H18.668V37.3333H28.0013V28Z" fill="white"/>
<path d="M37.3333 28H28V37.3333H37.3333V28Z" fill="white"/>
<path d="M46.6654 28H37.332V37.3333H46.6654V28Z" fill="white"/>
<path d="M65.3333 28H56V37.3333H65.3333V28Z" fill="white"/>
<path d="M121.333 28H112V37.3333H121.333V28Z" fill="white"/>
<path d="M139.999 28H130.666V37.3333H139.999V28Z" fill="white"/>
<path d="M158.667 28H149.334V37.3333H158.667V28Z" fill="white"/>
<path d="M168.001 28H158.668V37.3333H168.001V28Z" fill="white"/>
<path d="M177.333 28H168V37.3333H177.333V28Z" fill="white"/>
<path d="M195.999 28H186.666V37.3333H195.999V28Z" fill="white"/>
<path d="M9.33333 37.3333H0V46.6666H9.33333V37.3333Z" fill="white"/>
<path d="M28.0013 37.3333H18.668V46.6666H28.0013V37.3333Z" fill="white"/>
<path d="M37.3333 37.3333H28V46.6666H37.3333V37.3333Z" fill="white"/>
<path d="M46.6654 37.3333H37.332V46.6666H46.6654V37.3333Z" fill="white"/>
<path d="M65.3333 37.3333H56V46.6666H65.3333V37.3333Z" fill="white"/>
<path d="M83.9993 37.3333H74.666V46.6666H83.9993V37.3333Z" fill="white"/>
<path d="M93.3333 37.3333H84V46.6666H93.3333V37.3333Z" fill="white"/>
<path d="M102.667 37.3333H93.334V46.6666H102.667V37.3333Z" fill="white"/>
<path d="M111.999 37.3333H102.666V46.6666H111.999V37.3333Z" fill="white"/>
<path d="M121.333 37.3333H112V46.6666H121.333V37.3333Z" fill="white"/>
<path d="M139.999 37.3333H130.666V46.6666H139.999V37.3333Z" fill="white"/>
<path d="M158.667 37.3333H149.334V46.6666H158.667V37.3333Z" fill="white"/>
<path d="M168.001 37.3333H158.668V46.6666H168.001V37.3333Z" fill="white"/>
<path d="M177.333 37.3333H168V46.6666H177.333V37.3333Z" fill="white"/>
<path d="M195.999 37.3333H186.666V46.6666H195.999V37.3333Z" fill="white"/>
<path d="M9.33333 46.6667H0V56H9.33333V46.6667Z" fill="white"/>
<path d="M65.3333 46.6667H56V56H65.3333V46.6667Z" fill="white"/>
<path d="M83.9993 46.6667H74.666V56H83.9993V46.6667Z" fill="white"/>
<path d="M93.3333 46.6667H84V56H93.3333V46.6667Z" fill="white"/>
<path d="M102.667 46.6667H93.334V56H102.667V46.6667Z" fill="white"/>
<path d="M139.999 46.6667H130.666V56H139.999V46.6667Z" fill="white"/>
<path d="M195.999 46.6667H186.666V56H195.999V46.6667Z" fill="white"/>
<path d="M9.33333 56H0V65.3333H9.33333V56Z" fill="white"/>
<path d="M18.6673 56H9.33398V65.3333H18.6673V56Z" fill="white"/>
<path d="M28.0013 56H18.668V65.3333H28.0013V56Z" fill="white"/>
<path d="M37.3333 56H28V65.3333H37.3333V56Z" fill="white"/>
<path d="M46.6654 56H37.332V65.3333H46.6654V56Z" fill="white"/>
<path d="M55.9993 56H46.666V65.3333H55.9993V56Z" fill="white"/>
<path d="M65.3333 56H56V65.3333H65.3333V56Z" fill="white"/>
<path d="M83.9993 56H74.666V65.3333H83.9993V56Z" fill="white"/>
<path d="M102.667 56H93.334V65.3333H102.667V56Z" fill="white"/>
<path d="M121.333 56H112V65.3333H121.333V56Z" fill="white"/>
<path d="M139.999 56H130.666V65.3333H139.999V56Z" fill="white"/>
<path d="M149.333 56H140V65.3333H149.333V56Z" fill="white"/>
<path d="M158.667 56H149.334V65.3333H158.667V56Z" fill="white"/>
<path d="M168.001 56H158.668V65.3333H168.001V56Z" fill="white"/>
<path d="M177.333 56H168V65.3333H177.333V56Z" fill="white"/>
<path d="M186.665 56H177.332V65.3333H186.665V56Z" fill="white"/>
<path d="M195.999 56H186.666V65.3333H195.999V56Z" fill="white"/>
<path d="M83.9993 65.3333H74.666V74.6667H83.9993V65.3333Z" fill="white"/>
<path d="M9.33333 74.6667H0V84H9.33333V74.6667Z" fill="white"/>
<path d="M18.6673 74.6667H9.33398V84H18.6673V74.6667Z" fill="white"/>
<path d="M37.3333 74.6667H28V84H37.3333V74.6667Z" fill="white"/>
<path d="M65.3333 74.6667H56V84H65.3333V74.6667Z" fill="white"/>
<path d="M74.6673 74.6667H65.334V84H74.6673V74.6667Z" fill="white"/>
<path d="M102.667 74.6667H93.334V84H102.667V74.6667Z" fill="white"/>
<path d="M111.999 74.6667H102.666V84H111.999V74.6667Z" fill="white"/>
<path d="M121.333 74.6667H112V84H121.333V74.6667Z" fill="white"/>
<path d="M139.999 74.6667H130.666V84H139.999V74.6667Z" fill="white"/>
<path d="M149.333 74.6667H140V84H149.333V74.6667Z" fill="white"/>
<path d="M158.667 74.6667H149.334V84H158.667V74.6667Z" fill="white"/>
<path d="M177.333 74.6667H168V84H177.333V74.6667Z" fill="white"/>
<path d="M186.665 74.6667H177.332V84H186.665V74.6667Z" fill="white"/>
<path d="M9.33333 84H0V93.3333H9.33333V84Z" fill="white"/>
<path d="M28.0013 84H18.668V93.3333H28.0013V84Z" fill="white"/>
<path d="M37.3333 84H28V93.3333H37.3333V84Z" fill="white"/>
<path d="M46.6654 84H37.332V93.3333H46.6654V84Z" fill="white"/>
<path d="M55.9993 84H46.666V93.3333H55.9993V84Z" fill="white"/>
<path d="M74.6673 84H65.334V93.3333H74.6673V84Z" fill="white"/>
<path d="M83.9993 84H74.666V93.3333H83.9993V84Z" fill="white"/>
<path d="M111.999 84H102.666V93.3333H111.999V84Z" fill="white"/>
<path d="M130.667 84H121.334V93.3333H130.667V84Z" fill="white"/>
<path d="M149.333 84H140V93.3333H149.333V84Z" fill="white"/>
<path d="M195.999 84H186.666V93.3333H195.999V84Z" fill="white"/>
<path d="M9.33333 93.3333H0V102.667H9.33333V93.3333Z" fill="white"/>
<path d="M65.3333 93.3333H56V102.667H65.3333V93.3333Z" fill="white"/>
<path d="M74.6673 93.3333H65.334V102.667H74.6673V93.3333Z" fill="white"/>
<path d="M83.9993 93.3333H74.666V102.667H83.9993V93.3333Z" fill="white"/>
<path d="M93.3333 93.3333H84V102.667H93.3333V93.3333Z" fill="white"/>
<path d="M102.667 93.3333H93.334V102.667H102.667V93.3333Z" fill="white"/>
<path d="M111.999 93.3333H102.666V102.667H111.999V93.3333Z" fill="white"/>
<path d="M139.999 93.3333H130.666V102.667H139.999V93.3333Z" fill="white"/>
<path d="M149.333 93.3333H140V102.667H149.333V93.3333Z" fill="white"/>
<path d="M158.667 93.3333H149.334V102.667H158.667V93.3333Z" fill="white"/>
<path d="M168.001 93.3333H158.668V102.667H168.001V93.3333Z" fill="white"/>
<path d="M186.665 93.3333H177.332V102.667H186.665V93.3333Z" fill="white"/>
<path d="M28.0013 102.667H18.668V112H28.0013V102.667Z" fill="white"/>
<path d="M37.3333 102.667H28V112H37.3333V102.667Z" fill="white"/>
<path d="M46.6654 102.667H37.332V112H46.6654V102.667Z" fill="white"/>
<path d="M74.6673 102.667H65.334V112H74.6673V102.667Z" fill="white"/>
<path d="M102.667 102.667H93.334V112H102.667V102.667Z" fill="white"/>
<path d="M121.333 102.667H112V112H121.333V102.667Z" fill="white"/>
<path d="M130.667 102.667H121.334V112H130.667V102.667Z" fill="white"/>
<path d="M139.999 102.667H130.666V112H139.999V102.667Z" fill="white"/>
<path d="M149.333 102.667H140V112H149.333V102.667Z" fill="white"/>
<path d="M158.667 102.667H149.334V112H158.667V102.667Z" fill="white"/>
<path d="M28.0013 112H18.668V121.333H28.0013V112Z" fill="white"/>
<path d="M46.6654 112H37.332V121.333H46.6654V112Z" fill="white"/>
<path d="M65.3333 112H56V121.333H65.3333V112Z" fill="white"/>
<path d="M83.9993 112H74.666V121.333H83.9993V112Z" fill="white"/>
<path d="M102.667 112H93.334V121.333H102.667V112Z" fill="white"/>
<path d="M111.999 112H102.666V121.333H111.999V112Z" fill="white"/>
<path d="M130.667 112H121.334V121.333H130.667V112Z" fill="white"/>
<path d="M139.999 112H130.666V121.333H139.999V112Z" fill="white"/>
<path d="M149.333 112H140V121.333H149.333V112Z" fill="white"/>
<path d="M186.665 112H177.332V121.333H186.665V112Z" fill="white"/>
<path d="M195.999 112H186.666V121.333H195.999V112Z" fill="white"/>
<path d="M83.9993 121.333H74.666V130.667H83.9993V121.333Z" fill="white"/>
<path d="M130.667 121.333H121.334V130.667H130.667V121.333Z" fill="white"/>
<path d="M139.999 121.333H130.666V130.667H139.999V121.333Z" fill="white"/>
<path d="M158.667 121.333H149.334V130.667H158.667V121.333Z" fill="white"/>
<path d="M168.001 121.333H158.668V130.667H168.001V121.333Z" fill="white"/>
<path d="M9.33333 130.667H0V140H9.33333V130.667Z" fill="white"/>
<path d="M18.6673 130.667H9.33398V140H18.6673V130.667Z" fill="white"/>
<path d="M28.0013 130.667H18.668V140H28.0013V130.667Z" fill="white"/>
<path d="M37.3333 130.667H28V140H37.3333V130.667Z" fill="white"/>
<path d="M46.6654 130.667H37.332V140H46.6654V130.667Z" fill="white"/>
<path d="M55.9993 130.667H46.666V140H55.9993V130.667Z" fill="white"/>
<path d="M65.3333 130.667H56V140H65.3333V130.667Z" fill="white"/>
<path d="M83.9993 130.667H74.666V140H83.9993V130.667Z" fill="white"/>
<path d="M93.3333 130.667H84V140H93.3333V130.667Z" fill="white"/>
<path d="M111.999 130.667H102.666V140H111.999V130.667Z" fill="white"/>
<path d="M121.333 130.667H112V140H121.333V130.667Z" fill="white"/>
<path d="M139.999 130.667H130.666V140H139.999V130.667Z" fill="white"/>
<path d="M158.667 130.667H149.334V140H158.667V130.667Z" fill="white"/>
<path d="M186.665 130.667H177.332V140H186.665V130.667Z" fill="white"/>
<path d="M9.33333 140H0V149.333H9.33333V140Z" fill="white"/>
<path d="M65.3333 140H56V149.333H65.3333V140Z" fill="white"/>
<path d="M93.3333 140H84V149.333H93.3333V140Z" fill="white"/>
<path d="M139.999 140H130.666V149.333H139.999V140Z" fill="white"/>
<path d="M168.001 140H158.668V149.333H168.001V140Z" fill="white"/>
<path d="M186.665 140H177.332V149.333H186.665V140Z" fill="white"/>
<path d="M195.999 140H186.666V149.333H195.999V140Z" fill="white"/>
<path d="M9.33333 149.333H0V158.667H9.33333V149.333Z" fill="white"/>
<path d="M28.0013 149.333H18.668V158.667H28.0013V149.333Z" fill="white"/>
<path d="M37.3333 149.333H28V158.667H37.3333V149.333Z" fill="white"/>
<path d="M46.6654 149.333H37.332V158.667H46.6654V149.333Z" fill="white"/>
<path d="M65.3333 149.333H56V158.667H65.3333V149.333Z" fill="white"/>
<path d="M102.667 149.333H93.334V158.667H102.667V149.333Z" fill="white"/>
<path d="M121.333 149.333H112V158.667H121.333V149.333Z" fill="white"/>
<path d="M130.667 149.333H121.334V158.667H130.667V149.333Z" fill="white"/>
<path d="M139.999 149.333H130.666V158.667H139.999V149.333Z" fill="white"/>
<path d="M168.001 149.333H158.668V158.667H168.001V149.333Z" fill="white"/>
<path d="M177.333 149.333H168V158.667H177.333V149.333Z" fill="white"/>
<path d="M186.665 149.333H177.332V158.667H186.665V149.333Z" fill="white"/>
<path d="M195.999 149.333H186.666V158.667H195.999V149.333Z" fill="white"/>
<path d="M9.33333 158.667H0V168H9.33333V158.667Z" fill="white"/>
<path d="M28.0013 158.667H18.668V168H28.0013V158.667Z" fill="white"/>
<path d="M37.3333 158.667H28V168H37.3333V158.667Z" fill="white"/>
<path d="M46.6654 158.667H37.332V168H46.6654V158.667Z" fill="white"/>
<path d="M65.3333 158.667H56V168H65.3333V158.667Z" fill="white"/>
<path d="M83.9993 158.667H74.666V168H83.9993V158.667Z" fill="white"/>
<path d="M93.3333 158.667H84V168H93.3333V158.667Z" fill="white"/>
<path d="M102.667 158.667H93.334V168H102.667V158.667Z" fill="white"/>
<path d="M130.667 158.667H121.334V168H130.667V158.667Z" fill="white"/>
<path d="M139.999 158.667H130.666V168H139.999V158.667Z" fill="white"/>
<path d="M149.333 158.667H140V168H149.333V158.667Z" fill="white"/>
<path d="M168.001 158.667H158.668V168H168.001V158.667Z" fill="white"/>
<path d="M186.665 158.667H177.332V168H186.665V158.667Z" fill="white"/>
<path d="M195.999 158.667H186.666V168H195.999V158.667Z" fill="white"/>
<path d="M9.33333 168H0V177.333H9.33333V168Z" fill="white"/>
<path d="M28.0013 168H18.668V177.333H28.0013V168Z" fill="white"/>
<path d="M37.3333 168H28V177.333H37.3333V168Z" fill="white"/>
<path d="M46.6654 168H37.332V177.333H46.6654V168Z" fill="white"/>
<path d="M65.3333 168H56V177.333H65.3333V168Z" fill="white"/>
<path d="M93.3333 168H84V177.333H93.3333V168Z" fill="white"/>
<path d="M111.999 168H102.666V177.333H111.999V168Z" fill="white"/>
<path d="M130.667 168H121.334V177.333H130.667V168Z" fill="white"/>
<path d="M139.999 168H130.666V177.333H139.999V168Z" fill="white"/>
<path d="M149.333 168H140V177.333H149.333V168Z" fill="white"/>
<path d="M168.001 168H158.668V177.333H168.001V168Z" fill="white"/>
<path d="M177.333 168H168V177.333H177.333V168Z" fill="white"/>
<path d="M195.999 168H186.666V177.333H195.999V168Z" fill="white"/>
<path d="M9.33333 177.333H0V186.667H9.33333V177.333Z" fill="white"/>
<path d="M65.3333 177.333H56V186.667H65.3333V177.333Z" fill="white"/>
<path d="M83.9993 177.333H74.666V186.667H83.9993V177.333Z" fill="white"/>
<path d="M102.667 177.333H93.334V186.667H102.667V177.333Z" fill="white"/>
<path d="M111.999 177.333H102.666V186.667H111.999V177.333Z" fill="white"/>
<path d="M121.333 177.333H112V186.667H121.333V177.333Z" fill="white"/>
<path d="M149.333 177.333H140V186.667H149.333V177.333Z" fill="white"/>
<path d="M168.001 177.333H158.668V186.667H168.001V177.333Z" fill="white"/>
<path d="M186.665 177.333H177.332V186.667H186.665V177.333Z" fill="white"/>
<path d="M9.33333 186.667H0V196H9.33333V186.667Z" fill="white"/>
<path d="M18.6673 186.667H9.33398V196H18.6673V186.667Z" fill="white"/>
<path d="M28.0013 186.667H18.668V196H28.0013V186.667Z" fill="white"/>
<path d="M37.3333 186.667H28V196H37.3333V186.667Z" fill="white"/>
<path d="M46.6654 186.667H37.332V196H46.6654V186.667Z" fill="white"/>
<path d="M55.9993 186.667H46.666V196H55.9993V186.667Z" fill="white"/>
<path d="M65.3333 186.667H56V196H65.3333V186.667Z" fill="white"/>
<path d="M83.9993 186.667H74.666V196H83.9993V186.667Z" fill="white"/>
<path d="M102.667 186.667H93.334V196H102.667V186.667Z" fill="white"/>
<path d="M130.667 186.667H121.334V196H130.667V186.667Z" fill="white"/>
<path d="M149.333 186.667H140V196H149.333V186.667Z" fill="white"/>
<path d="M168.001 186.667H158.668V196H168.001V186.667Z" fill="white"/>
<path d="M177.333 186.667H168V196H177.333V186.667Z" fill="white"/>
</svg>
