<svg width="105" height="120" viewBox="0 0 105 120" fill="none" xmlns="http://www.w3.org/2000/svg">
<path d="M100.354 27.4614C100.353 27.4614 100.353 27.4614 100.354 27.4614C97.8548 27.0864 93.1335 27.6548 81.0309 36.8639C79.7208 37.8608 78.003 38.165 76.4364 37.6777L56.9891 31.6279C48.1123 28.6213 36.3774 32.9269 28.238 37.6676C21.6716 41.4917 8.80401 50.6177 14.2144 55.9632C18.1906 59.8916 27.6916 53.9897 39.4602 52.2099C42.3785 51.7688 43.9563 51.9157 44.7649 52.1154C41.7484 63.6597 8.7787 104.248 0.886483 113.661C-1.4341 116.432 1.145 120.573 4.65482 119.711C21.455 115.589 35.2958 103.541 45.2571 92.1723C54.3123 91.9916 57.4199 93.6496 57.8526 94.345C59.1002 96.3491 58.0891 102.264 57.4201 106.179C56.4369 111.932 55.6602 116.475 58.6427 118.948C60.2285 120.263 62.3097 120.293 64.1513 119.33C69.9369 116.306 80.3848 97.7081 79.5668 88.0908C78.8918 80.1536 67.2882 75.3428 59.7119 72.9216C62.0733 69.341 64.5506 66.0954 66.3418 57.7613C71.4308 58.9707 78.9588 60.5221 82.7288 59.957C86.8227 59.3434 92.3038 53.3112 96.1807 48.3588C99.304 44.369 104.544 37.0053 104.544 32.5158C104.544 29.8682 102.86 27.8371 100.354 27.4614Z" fill="black"/>
<path d="M64.755 30.9775C73.3016 30.9775 80.2549 24.0292 80.2549 15.4889C80.2549 6.94838 73.3016 0 64.755 0C56.2082 0 49.2549 6.94838 49.2549 15.4889C49.2549 24.0292 56.2082 30.9775 64.755 30.9775Z" fill="black"/>
</svg>
