<svg width="115" height="115" viewBox="0 0 115 115" fill="none" xmlns="http://www.w3.org/2000/svg">
<g id="Group 94">
<circle id="Ellipse 3" cx="57.5" cy="57.5" r="57.5" fill="#E6B569"/>
<path id="Vector" fill-rule="evenodd" clip-rule="evenodd" d="M113.297 69.5348C109.433 92.1449 91.5934 109.983 68.984 113.848L31.7181 83.6454C24.7221 77.8718 28.2933 70.101 28.2933 60.322C28.2933 42.9369 23.2031 28.3923 48.1805 29.9063C57.9595 29.9063 78.2876 33.3032 84.0611 40.2989L113.297 69.5348Z" fill="#9D7536"/>
<g id="Group 88">
<path id="Vector_2" d="M32.0331 28.6596C32.9587 28.9289 33.6561 29.521 34.3231 30.1951C37.157 33.0557 40.0159 35.8895 42.8588 38.7411C43.7898 39.6756 44.0698 40.8009 43.6649 42.0529C43.2565 43.3137 42.3362 44.0306 41.0397 44.2197C39.9785 44.3748 39.0671 44.0021 38.3163 43.2513C37.1535 42.0885 35.9996 40.9133 34.7279 39.6275C34.6976 39.9485 34.6673 40.1268 34.6673 40.3051C34.6655 51.6938 34.6548 63.0843 34.6709 74.473C34.678 78.5605 37.5761 81.4175 41.6781 81.4193C53.0228 81.4282 64.3693 81.4228 75.714 81.4193C75.9066 81.4193 76.0975 81.4014 76.4006 81.2427C76.0796 80.952 75.7497 80.6738 75.4411 80.3706C74.5547 79.495 73.6594 78.6283 72.8016 77.7259C71.5389 76.3973 71.546 74.489 72.7873 73.2228C74.0001 71.9869 76.0208 71.9263 77.2977 73.1854C80.4045 76.2457 83.4882 79.3274 86.5451 82.4358C87.8434 83.7555 87.7418 85.6512 86.3703 87.0298C83.3901 90.0259 80.3956 93.0095 77.4065 95.9984C77.3744 96.0305 77.3423 96.0608 77.3102 96.0912C75.9797 97.3484 73.9894 97.3538 72.7481 96.1019C71.4889 94.8321 71.4996 92.8757 72.798 91.5507C73.9787 90.3469 75.1843 89.1681 76.529 87.827H75.5856C64.2855 87.827 52.9836 87.8573 41.6835 87.8145C35.9157 87.7913 31.7888 85.0716 29.3294 79.8624C28.5 78.1057 28.2486 76.2171 28.2503 74.2786C28.2628 63.0451 28.2557 51.8115 28.2557 40.578C28.2557 40.3194 28.2557 40.0608 28.2557 39.5882C27.8437 39.9966 27.5691 40.2659 27.298 40.5388C26.449 41.3894 25.5733 42.2134 24.7583 43.0944C23.0426 44.9509 19.9001 44.3909 19.1956 41.887C19.1796 41.8317 19.1189 41.7889 19.0797 41.739C19.0797 41.2931 19.0797 40.8491 19.0797 40.4032C19.4578 39.788 19.7396 39.0782 20.2318 38.5735C22.9802 35.7611 25.7874 33.0058 28.5553 30.2112C29.2188 29.5406 29.9108 28.9414 30.8257 28.6543H32.0278L32.0331 28.6596Z" fill="white"/>
<path id="Vector_3" d="M75.5535 28.6597C76.2669 28.8113 76.991 28.9272 77.6937 29.118C83.4704 30.6856 87.4332 35.8842 87.435 41.8799C87.435 49.7981 87.4386 57.7163 87.4332 65.6363C87.4332 67.2396 86.3096 68.5379 84.7348 68.8072C83.2688 69.0569 81.7332 68.1705 81.2517 66.7296C81.093 66.257 81.0448 65.7291 81.043 65.2244C81.0306 57.4845 81.0413 49.7428 81.0306 42.0029C81.027 38.693 78.9671 36.0143 75.8406 35.2707C75.2004 35.1191 74.5209 35.0763 73.8592 35.0745C66.1189 35.062 58.3768 35.0691 50.6366 35.0638C48.6462 35.0638 47.1748 33.6193 47.264 31.7342C47.3264 30.4181 48.0041 29.4836 49.1937 28.9236C49.3899 28.8309 49.5897 28.7471 49.7876 28.6597C58.3768 28.6597 66.9643 28.6597 75.5535 28.6597Z" fill="white"/>
<path id="Vector_4" d="M53.5722 54.822C54.8901 53.6967 56.415 53.1688 58.1717 53.3329C60.9825 53.5968 63.3385 56.0186 63.3955 58.8364C63.4508 61.5043 63.4223 64.1758 63.408 66.8455C63.4027 67.953 62.6287 68.7199 61.58 68.7342C60.5152 68.7484 59.6966 67.9619 59.6841 66.8348C59.6592 64.8321 59.677 62.8294 59.6752 60.8284C59.6752 60.2952 59.6823 59.7602 59.6734 59.2269C59.6502 57.9625 58.7567 57.0405 57.5547 57.0334C56.3579 57.0262 55.4181 57.9465 55.4091 59.202C55.3895 61.7165 55.4091 64.2293 55.3984 66.7439C55.3931 67.9138 54.6636 68.7056 53.6007 68.7324C52.4807 68.7627 51.6745 67.9512 51.6674 66.7332C51.6531 64.2186 51.6745 61.7058 51.6567 59.1913C51.6478 57.8591 50.5884 56.9139 49.3079 57.0476C48.17 57.1653 47.3978 58.0588 47.3924 59.3018C47.3835 61.7932 47.3978 64.2846 47.3853 66.7778C47.3799 67.9602 46.5916 68.752 45.4859 68.7324C44.4318 68.7145 43.6649 67.9138 43.6578 66.7635C43.6418 64.6056 43.6525 62.4477 43.6525 60.2898C43.6525 58.5992 43.6649 56.9085 43.6471 55.2179C43.6382 54.3512 43.87 53.6218 44.6904 53.2169C45.5001 52.8175 46.2367 52.9851 46.8984 53.5932C47 53.6877 47.2176 53.7341 47.3567 53.7002C50.1836 53.0011 51.1377 53.167 53.5704 54.822H53.5722Z" fill="white"/>
<path id="Vector_5" d="M69.0492 56.0505C69.8696 56.0505 70.6917 56.0416 71.5121 56.0523C72.4092 56.0648 72.9461 56.5409 72.93 57.2899C72.914 58.0158 72.4039 58.4456 71.5211 58.4491C69.7412 58.4563 67.9612 58.442 66.1831 58.4563C65.5714 58.4616 65.0845 58.2958 64.8384 57.693C64.5869 57.0795 64.8705 56.6301 65.2932 56.211C66.8715 54.6434 68.4463 53.074 70.0105 51.4904C70.6204 50.8733 70.7042 50.0958 70.2816 49.4216C69.8821 48.7832 69.1027 48.4711 68.3643 48.6887C67.6545 48.8973 67.2907 49.4109 67.1194 50.1172C66.9714 50.7289 66.5345 51.0713 65.9031 51.0517C65.336 51.032 64.9383 50.7057 64.8009 50.1475C64.7456 49.9228 64.7742 49.6606 64.8259 49.4288C65.2004 47.7524 66.5791 46.4737 68.2127 46.2686C70.0443 46.0368 71.678 46.8732 72.4895 48.4586C73.2849 50.0137 73.0459 51.7882 71.8011 53.0829C70.8808 54.0406 69.9035 54.9448 68.9529 55.8721C68.985 55.931 69.0171 55.9898 69.0492 56.0487V56.0505Z" fill="white"/>
</g>
</g>
</svg>
