<svg width="308" height="308" viewBox="0 0 308 308" fill="none" xmlns="http://www.w3.org/2000/svg">
<path d="M153.967 298.353C233.691 298.353 298.32 233.724 298.32 154C298.32 74.2761 233.691 9.64697 153.967 9.64697C74.2428 9.64697 9.61365 74.2761 9.61365 154C9.61365 233.724 74.2428 298.353 153.967 298.353Z" fill="#E6B569"/>
<path fill-rule="evenodd" clip-rule="evenodd" d="M296.297 178.492C286.024 238.6 238.598 286.023 178.492 296.297L100.769 218.574C82.1709 203.225 70.3171 179.997 70.3171 154C70.3171 107.783 107.782 70.3174 154 70.3174C179.997 70.3174 203.225 82.1718 218.574 100.77L296.297 178.492Z" fill="#9D7536"/>
<path fill-rule="evenodd" clip-rule="evenodd" d="M114.83 158.969L138.662 180.855C142.139 184.055 147.52 183.885 150.789 180.514L193.307 139.806C196.766 136.48 196.87 130.978 193.544 127.518C190.217 124.063 184.718 123.955 181.26 127.281L144.431 162.542L126.604 146.172C123.072 142.922 117.569 143.15 114.318 146.686C111.067 150.218 111.296 155.716 114.83 158.969ZM154 70.3174C200.217 70.3174 237.683 107.783 237.683 154C237.683 200.218 200.217 237.683 154 237.683C107.782 237.683 70.3171 200.218 70.3171 154C70.3171 107.783 107.782 70.3174 154 70.3174Z" fill="white"/>
</svg>
