<svg width="41" height="53" viewBox="0 0 41 53" fill="none" xmlns="http://www.w3.org/2000/svg">
<path d="M32.5597 22.3184C33.1352 16.926 30.9358 10.9365 28.2859 6.34681C23.6821 -1.6272 16.4219 -0.599328 9.15608 3.59562C1.89021 7.79057 -2.63004 13.5641 1.97376 21.5381C4.63181 26.142 8.636 31.1158 13.5875 33.3193L25.7764 40.2461L28.6774 45.2708L27.0675 46.2003L30.8926 52.8257L40.9708 47.007L37.1456 40.3816L35.4759 41.3456L32.5978 36.3606L32.5597 22.3184ZM16.953 7.69943L19.6667 6.13265L21.2335 8.8464L18.5198 10.4132L16.953 7.69943ZM20.0865 13.1269L22.8003 11.5601L24.3671 14.2739L21.6533 15.8407L20.0865 13.1269ZM23.2202 18.5545L25.9339 16.9877L27.5007 19.7015L24.7869 21.2683L23.2202 18.5545ZM11.5254 10.833L14.2391 9.26627L15.8059 11.98L13.0922 13.5468L11.5254 10.833ZM14.6589 16.2605L17.3727 14.6938L18.9395 17.4075L16.2257 18.9743L14.6589 16.2605ZM17.7926 21.6881L20.5063 20.1214L22.0731 22.8351L19.3594 24.4019L17.7926 21.6881ZM16.6456 25.9687L13.9319 27.5355L12.3651 24.8217L15.0788 23.2549L16.6456 25.9687ZM13.512 20.5412L10.7983 22.108L9.2315 19.3942L11.9453 17.8274L13.512 20.5412ZM10.3784 15.1136L7.66467 16.6804L6.09788 13.9666L8.81163 12.3998L10.3784 15.1136ZM29.4583 34.1805L25.4834 36.4754L21.4768 34.1985C22.8844 33.8932 24.3367 33.3328 25.8278 32.4719C27.298 31.6231 28.4916 30.6467 29.4458 29.574L29.4583 34.1805Z" fill="white"/>
</svg>
