<svg width="28" height="28" viewBox="0 0 28 28" fill="none" xmlns="http://www.w3.org/2000/svg">
<g clip-path="url(#clip0_400_1734)">
<path d="M25.6666 4.66667H19.8333V2.33333C19.8333 1.71449 19.5874 1.121 19.1498 0.683418C18.7123 0.245833 18.1188 0 17.4999 0L10.4999 0C9.88108 0 9.28759 0.245833 8.85 0.683418C8.41242 1.121 8.16659 1.71449 8.16659 2.33333V4.66667H2.33325V7H4.66659V24.5C4.66659 25.4283 5.03533 26.3185 5.69171 26.9749C6.34809 27.6313 7.23833 28 8.16659 28H19.8333C20.7615 28 21.6518 27.6313 22.3081 26.9749C22.9645 26.3185 23.3333 25.4283 23.3333 24.5V7H25.6666V4.66667ZM10.4999 2.33333H17.4999V4.66667H10.4999V2.33333ZM20.9999 24.5C20.9999 24.8094 20.877 25.1062 20.6582 25.325C20.4394 25.5438 20.1427 25.6667 19.8333 25.6667H8.16659C7.85717 25.6667 7.56042 25.5438 7.34163 25.325C7.12284 25.1062 6.99992 24.8094 6.99992 24.5V7H20.9999V24.5Z" fill="white"/>
<path d="M12.8333 11.6665H10.5V20.9998H12.8333V11.6665Z" fill="white"/>
<path d="M17.4998 11.6665H15.1665V20.9998H17.4998V11.6665Z" fill="white"/>
</g>
<defs>
<clipPath id="clip0_400_1734">
<rect width="28" height="28" fill="white"/>
</clipPath>
</defs>
</svg>
