<svg width="33" height="33" viewBox="0 0 33 33" fill="none" xmlns="http://www.w3.org/2000/svg">
<path fill-rule="evenodd" clip-rule="evenodd" d="M0 0V33H33V0H0ZM25.5841 11.8408C25.5931 12.0419 25.5976 12.2441 25.5976 12.4471C25.5976 18.6412 20.8832 25.7832 12.2618 25.7832C9.61482 25.7832 7.15106 25.0073 5.07685 23.6772C5.44355 23.7208 5.81656 23.743 6.19501 23.743C8.39099 23.743 10.412 22.9937 12.0162 21.7363C9.96513 21.6986 8.23404 20.3434 7.63751 18.4812C7.92384 18.5361 8.21751 18.5656 8.51951 18.5656C8.94699 18.5656 9.36112 18.508 9.75444 18.4011C7.61031 17.9704 5.99454 16.0761 5.99454 13.8052C5.99454 13.7854 5.99454 13.7657 5.99498 13.7461C6.62684 14.0972 7.3495 14.3081 8.11793 14.3324C6.86016 13.4919 6.03291 12.0572 6.03291 10.4312C6.03291 9.5721 6.26405 8.76705 6.6676 8.07463C8.97926 10.9105 12.433 12.7764 16.3285 12.9721C16.2485 12.6289 16.2068 12.2711 16.2068 11.9039C16.2068 9.3155 18.3056 7.21692 20.894 7.21692C22.2422 7.21692 23.4604 7.78604 24.3153 8.69691C25.3829 8.48695 26.3861 8.09668 27.2917 7.55961C26.9419 8.6542 26.1987 9.57254 25.2309 10.1528C26.1791 10.0394 27.0823 9.78737 27.9229 9.41457C27.2947 10.3545 26.5001 11.18 25.5841 11.8408Z" fill="white"/>
</svg>
