<svg width="21" height="21" viewBox="0 0 21 21" fill="none" xmlns="http://www.w3.org/2000/svg">
<path d="M10.6755 20.2352C8.81639 20.2352 6.9573 20.2517 5.09878 20.2306C3.32104 20.2102 1.99555 19.3999 1.15134 17.8316C0.833339 17.2408 0.689982 16.5966 0.686 15.9279C0.678036 14.6508 0.680311 13.3737 0.684293 12.0965C0.686 11.6462 0.950528 11.2908 1.34362 11.1822C1.72761 11.0759 2.14858 11.2158 2.34371 11.5592C2.437 11.7235 2.49389 11.9316 2.49617 12.1204C2.50925 13.3475 2.50242 14.5751 2.50299 15.8028C2.50413 17.3057 3.60718 18.4139 5.10617 18.4145C8.82435 18.4156 12.542 18.4156 16.2601 18.4145C17.7466 18.4139 18.8537 17.3051 18.8559 15.8164C18.8576 14.5678 18.8548 13.3191 18.8576 12.0704C18.8588 11.657 19.1045 11.3187 19.4783 11.1947C19.8407 11.0747 20.2491 11.1799 20.4664 11.4955C20.5739 11.6513 20.665 11.8572 20.6661 12.0402C20.6741 13.459 20.7088 14.8799 20.6377 16.2958C20.5364 18.3155 18.7569 20.0606 16.7414 20.2067C16.494 20.2249 16.2454 20.234 15.9973 20.234C14.2236 20.2363 12.4498 20.2352 10.6755 20.2352Z" fill="white"/>
<path d="M9.68084 3.34148C9.64387 3.41028 9.62054 3.49273 9.56764 3.54561C8.36048 4.75734 7.14934 5.96508 5.94218 7.17681C5.71861 7.40085 5.46262 7.5339 5.14348 7.49467C4.77371 7.44918 4.51032 7.24675 4.38573 6.89421C4.26172 6.54166 4.34022 6.22096 4.59906 5.95201C4.81524 5.72683 5.03937 5.50962 5.26067 5.28843C6.83646 3.71279 8.41168 2.13658 9.9886 0.561506C10.4124 0.138454 10.9415 0.133336 11.3624 0.552977C13.1504 2.33787 14.9361 4.1256 16.723 5.91163C16.9983 6.18685 17.1018 6.51039 16.9761 6.88283C16.8567 7.23765 16.5961 7.44179 16.2269 7.49239C15.8987 7.53731 15.6387 7.39914 15.41 7.16942C14.208 5.96224 13.0025 4.75905 11.7982 3.55471C11.7436 3.50012 11.6867 3.44781 11.5849 3.35058V3.63773C11.5849 7.31385 11.5849 10.99 11.5849 14.6661C11.5849 15.2085 11.3374 15.5548 10.8766 15.6651C10.3555 15.7897 9.8242 15.4059 9.7821 14.8714C9.77414 14.7724 9.77584 14.6729 9.77584 14.5734C9.77584 10.9325 9.77584 7.29167 9.77584 3.65138V3.40687C9.74456 3.38526 9.71327 3.36309 9.68255 3.34148H9.68084Z" fill="white"/>
</svg>
