<svg width="85" height="86" viewBox="0 0 85 86" fill="none" xmlns="http://www.w3.org/2000/svg">
<g clip-path="url(#clip0_141_878)">
<path d="M80.17 1.2801C75.46 -1.4199 69.4 0.270097 66.77 5.2301C66.26 6.1901 65.7 7.1101 65.16 8.0401L62.01 13.5101C61.96 13.4901 61.9 13.4801 61.85 13.4601C61.85 10.9601 61.85 8.4701 61.85 5.9801C61.84 2.5001 59.33 9.70224e-05 55.84 9.70224e-05C39.27 9.70224e-05 22.7 9.70224e-05 6.13 9.70224e-05C2.44 9.70224e-05 0 2.4601 0 6.1701C0 30.4401 0 54.7101 0 78.9901C0 82.5701 2.48 85.0401 6.09 85.0401C22.63 85.0401 39.17 85.0401 55.72 85.0401C59.41 85.0401 61.85 82.5801 61.85 78.8701C61.85 70.3401 61.85 61.8101 61.87 53.2801C61.87 52.8201 62.01 52.3101 62.23 51.9101C64.53 47.8601 66.87 43.8301 69.19 39.7901C73.98 31.4701 78.78 23.1501 83.56 14.8301C86.4 9.8801 84.92 3.9901 80.17 1.2701M63.59 18.5201C64.74 19.1901 65.82 19.8201 66.94 20.4601C60.17 32.2201 53.42 43.9301 46.65 55.6901C45.52 55.0401 44.44 54.4101 43.3 53.7501C50.07 41.9901 56.82 30.2701 63.59 18.5101M50.37 62.3301C49.18 63.1201 48.1 63.8501 47 64.5501C46.87 64.6301 46.6 64.6001 46.45 64.5201C45.13 63.7801 43.81 63.0201 42.51 62.2401C42.35 62.1401 42.19 61.8901 42.19 61.7101C42.23 60.4301 42.32 59.1601 42.4 57.7201C45.12 59.2901 47.69 60.7801 50.37 62.3301ZM57.98 60.2001C57.98 66.4101 57.98 72.6201 57.98 78.8301C57.98 80.4701 57.27 81.1801 55.63 81.1801C39.17 81.1801 22.7 81.1801 6.24 81.1801C4.56 81.1801 3.87 80.4801 3.87 78.7801V6.2701C3.87 4.5601 4.55 3.8701 6.24 3.8701H55.63C57.28 3.8701 57.99 4.5801 57.99 6.2101C57.99 10.7201 58 15.2301 57.97 19.7401C57.97 20.2201 57.83 20.7601 57.58 21.1801C51.91 31.0701 46.25 40.9701 40.49 50.8101C39.24 52.9501 38.53 55.1201 38.51 57.5801C38.48 62.0001 37.74 66.3401 37.09 70.7001C37.09 70.7501 37.05 70.7901 37.01 70.8501C36.92 70.8301 36.81 70.8201 36.73 70.7701C34.6 69.5001 32.33 69.3401 30.03 70.1001C28.17 70.7201 26.66 70.2701 25.3 68.9601C24.62 68.3001 23.91 67.6601 23.17 67.0501C20.68 65.0201 18.01 65.3401 16.2 67.9901C15.3 69.3001 14.59 70.7401 13.85 72.1501C13.62 72.5901 13.51 73.1301 13.47 73.6301C13.39 74.5801 14.07 75.4301 14.96 75.6101C15.97 75.8201 16.82 75.2701 17.24 74.3301C17.85 72.9801 18.51 71.6401 19.25 70.3601C19.79 69.4201 20 69.4301 20.85 70.1501C21.52 70.7101 22.17 71.3101 22.81 71.9001C25.13 74.0501 27.79 74.8201 30.86 73.8601C32.33 73.4001 33.67 73.5401 35.1 74.2101C36.08 74.6701 37.25 74.6701 38.27 75.2501C38.64 75.4601 39.49 75.1501 39.94 74.8301C41.49 73.7201 42.92 72.4501 44.46 71.3301C47.41 69.1801 50.37 67.0301 53.4 64.9901C54.83 64.0201 56.01 62.9201 56.77 61.3701C57.08 60.7301 57.48 60.1401 57.98 59.5501V60.2001ZM53.34 59.5701C52.2 58.9101 51.12 58.2801 49.99 57.6301C56.77 45.8601 63.51 34.1501 70.28 22.3901C71.4 23.0401 72.49 23.6601 73.63 24.3301C66.86 36.0901 60.11 47.8001 53.34 59.5701Z" fill="#ED1B25"/>
<path d="M13.0801 17.3203C13.4301 17.3903 13.8001 17.3903 14.1601 17.3903C19.7501 17.3903 25.3401 17.3903 30.9301 17.3903C36.5201 17.3903 42.1101 17.3903 47.7001 17.3903C48.0301 17.3903 48.3701 17.3903 48.7001 17.3303C49.6001 17.1703 50.2401 16.3803 50.2401 15.4703C50.2401 14.5603 49.6101 13.7603 48.7201 13.5903C48.4401 13.5403 48.1601 13.5303 47.8801 13.5303C36.5701 13.5303 25.2601 13.5303 13.9501 13.5303C13.6701 13.5303 13.3801 13.5403 13.1001 13.5903C12.2401 13.7603 11.6201 14.5303 11.6001 15.4103C11.5801 16.3203 12.2001 17.1403 13.0801 17.3203Z" fill="#ED1B25"/>
<path d="M30.88 30.92H32.97C38 30.92 43.02 30.92 48.04 30.92C48.98 30.92 49.71 30.6 50.09 29.71C50.67 28.37 49.68 27.05 48.08 27.05C38.57 27.05 29.06 27.05 19.55 27.05C17.59 27.05 15.63 27.05 13.67 27.05C12.82 27.05 12.16 27.38 11.78 28.15C11.11 29.48 12.11 30.92 13.71 30.92C19.43 30.92 25.15 30.92 30.87 30.92" fill="#ED1B25"/>
<path d="M24.2001 57.9804C27.4001 57.9804 30.5901 57.9904 33.7901 57.9804C34.9501 57.9804 35.7501 57.1304 35.7401 56.0304C35.7301 54.9604 34.9301 54.1304 33.8201 54.1304C27.3801 54.1204 20.9401 54.1304 14.5001 54.1304C13.7101 54.1304 13.1101 54.5204 12.7701 55.2204C12.1201 56.5404 13.0701 57.9804 14.6201 57.9804C17.8201 58.0004 21.0101 57.9804 24.2001 57.9804Z" fill="#ED1B25"/>
<path d="M25.1201 40.5902C22.6201 40.5902 20.1201 40.5902 17.6201 40.5902C16.8201 40.5902 16.1501 40.8302 15.7201 41.5502C14.9401 42.8802 15.8601 44.4202 17.5001 44.4502C19.4801 44.4902 21.4701 44.4602 23.4501 44.4602C26.4901 44.4602 29.5301 44.4602 32.5701 44.4602C33.4001 44.4602 34.0901 44.2202 34.5201 43.4602C35.2801 42.1202 34.3301 40.6102 32.6801 40.6002C30.1601 40.5702 27.6301 40.6002 25.1101 40.6002" fill="#ED1B25"/>
</g>
<defs>
<clipPath id="clip0_141_878">
<rect width="85" height="85.04" fill="white"/>
</clipPath>
</defs>
</svg>
