<svg width="134" height="142" viewBox="0 0 134 142" fill="none" xmlns="http://www.w3.org/2000/svg">
<path d="M119.95 1.30008L2.30993 36.5101C1.08993 36.8801 0.399924 38.1601 0.759924 39.3701L2.39993 44.8501C4.40993 51.5601 11.4799 55.3801 18.1899 53.3701L115.93 24.1101C122.64 22.1001 126.45 15.0301 124.45 8.3201L122.81 2.84009C122.44 1.62009 121.16 0.930078 119.94 1.30008H119.95Z" fill="#22A9CC" stroke="#330508" stroke-width="0.75" stroke-miterlimit="10"/>
<path d="M6.07983 128.84C6.07983 135.48 11.4698 140.87 18.1098 140.87H121.45C128.09 140.87 133.48 135.48 133.48 128.84V66.3404C133.48 60.9704 129.12 56.6104 123.75 56.6104H15.8098C10.4398 56.6104 6.07983 60.9704 6.07983 66.3404V128.84Z" fill="#DD1E24" stroke="#330508" stroke-width="0.75" stroke-miterlimit="10"/>
<path d="M24.2099 58.13C24.2099 57.52 24.0399 57.39 23.7199 57.07C20.3499 53.7 10.2499 43.6 10.2499 43.6C8.00993 41.36 6.17993 42.12 6.17993 45.28V60.81C6.17993 63.97 8.76993 66.56 11.9299 66.56H23.1799C24.2299 66.56 24.1999 66.34 24.1999 65.09V58.12L24.2099 58.13Z" fill="#F5DE14" stroke="#330508" stroke-width="0.75" stroke-miterlimit="10"/>
<path d="M10.4999 59.9805C9.48993 59.9805 8.67993 60.8004 8.67993 61.8004C8.67993 62.8004 9.49993 63.6205 10.4999 63.6205C11.4999 63.6205 12.3199 62.8004 12.3199 61.8004C12.3199 60.8004 11.4999 59.9805 10.4999 59.9805Z" fill="#22A9CC" stroke="#330508" stroke-width="0.75" stroke-miterlimit="10"/>
<path d="M19.6999 59.9805C18.6899 59.9805 17.8799 60.8004 17.8799 61.8004C17.8799 62.8004 18.6999 63.6205 19.6999 63.6205C20.6999 63.6205 21.5199 62.8004 21.5199 61.8004C21.5199 60.8004 20.6999 59.9805 19.6999 59.9805Z" fill="#22A9CC" stroke="#330508" stroke-width="0.75" stroke-miterlimit="10"/>
<path d="M10.4999 47.5801C9.48993 47.5801 8.67993 48.4001 8.67993 49.4001C8.67993 50.4001 9.49993 51.2201 10.4999 51.2201C11.4999 51.2201 12.3199 50.4101 12.3199 49.4001C12.3199 48.3901 11.4999 47.5801 10.4999 47.5801Z" fill="#22A9CC" stroke="#330508" stroke-width="0.75" stroke-miterlimit="10"/>
<path d="M47.3799 31.6202L57.6599 41.5602L69.7799 37.9302L59.5099 27.9902L47.3799 31.6202Z" fill="#F5DE14" stroke="#330508" stroke-width="0.75" stroke-miterlimit="10"/>
<path d="M70.77 24.4598L81.18 34.5198L93.3 30.8899L82.9 20.8398L70.77 24.4598Z" fill="#F5DE14" stroke="#330508" stroke-width="0.75" stroke-miterlimit="10"/>
<path d="M93.78 17.6906L104.1 27.6606L116.22 24.0305L105.9 14.0605L93.78 17.6906Z" fill="#F5DE14" stroke="#330508" stroke-width="0.75" stroke-miterlimit="10"/>
<path d="M57.51 70.9804H70.17L78.23 56.6104H65.58L57.51 70.9804Z" fill="#F5DE14" stroke="#330508" stroke-width="0.75" stroke-miterlimit="10"/>
<path d="M81.4099 70.9804H94.0599L102.13 56.6104H89.4799L81.4099 70.9804Z" fill="#F5DE14" stroke="#330508" stroke-width="0.75" stroke-miterlimit="10"/>
<path d="M105.94 70.9804H118.59L126.65 56.6104H114L105.94 70.9804Z" fill="#F5DE14" stroke="#330508" stroke-width="0.75" stroke-miterlimit="10"/>
<path d="M13.8499 85.9503H124.86C125.65 85.9503 126.3 85.3003 126.3 84.5103C126.3 83.7203 125.66 83.0703 124.86 83.0703H13.8499C13.0499 83.0703 12.4099 83.7103 12.4099 84.5103C12.4099 85.3103 13.0499 85.9503 13.8499 85.9503Z" fill="#F5DE14" stroke="#330508" stroke-width="0.75" stroke-miterlimit="10"/>
<path d="M124.85 99.75H13.8499C13.0499 99.75 12.4099 100.39 12.4099 101.19C12.4099 101.99 13.0499 102.63 13.8499 102.63H124.86C125.65 102.63 126.3 101.99 126.3 101.19C126.3 100.39 125.66 99.75 124.86 99.75H124.85Z" fill="#F5DE14" stroke="#330508" stroke-width="0.75" stroke-miterlimit="10"/>
<path d="M124.85 114.13H13.8499C13.0499 114.13 12.4099 114.77 12.4099 115.57C12.4099 116.37 13.0499 117.01 13.8499 117.01H49.3299C49.2699 117.19 49.2199 117.38 49.2199 117.59V136C49.2199 136.95 49.9899 137.73 50.9499 137.73C51.9099 137.73 52.6699 136.96 52.6699 136V117.59C52.6699 117.39 52.6299 117.2 52.5599 117.01H84.1199C84.0599 117.19 84.0099 117.38 84.0099 117.59V136C84.0099 136.95 84.7799 137.73 85.7299 137.73C86.6799 137.73 87.4599 136.96 87.4599 136V128.4C87.6399 128.48 87.8299 128.52 88.0399 128.52H123.7C124.5 128.52 125.14 127.88 125.14 127.08C125.14 126.28 124.5 125.64 123.7 125.64H88.0399C87.8299 125.64 87.6399 125.69 87.4599 125.76V117.58C87.4599 117.38 87.4199 117.19 87.3499 117H124.84C125.63 117 126.28 116.36 126.28 115.56C126.28 114.76 125.64 114.12 124.84 114.12L124.85 114.13Z" fill="#F5DE14" stroke="#330508" stroke-width="0.75" stroke-miterlimit="10"/>
<path d="M36.72 65.1094L38.31 67.2394" stroke="#330508" stroke-width="0.75" stroke-linecap="round" stroke-linejoin="round"/>
<path d="M32.99 64.3496L37.75 70.9796" stroke="#330508" stroke-width="0.75" stroke-linecap="round" stroke-linejoin="round"/>
<path d="M31.76 67.0498L34.69 70.9798" stroke="#330508" stroke-width="0.75" stroke-linecap="round" stroke-linejoin="round"/>
<path d="M117.89 19.3099C120.95 17.7499 122.11 14.8599 122.49 11.6299C124.29 14.9399 121.8 19.7199 117.89 19.3099Z" fill="white"/>
<path d="M123.32 136.04C126.64 135.15 128.37 132.56 129.42 129.48C130.49 133.09 127.07 137.25 123.32 136.04Z" fill="white"/>
<path d="M16.59 136.04C13.27 135.15 11.54 132.56 10.49 129.48C9.41995 133.09 12.84 137.25 16.59 136.04Z" fill="white"/>
<path d="M31.4 31.9304C30.75 31.7704 30.0999 31.7104 29.4599 31.6504L27.65 32.0704C25.24 32.6604 22.86 33.3704 20.54 34.2704C19.29 34.6804 18.22 35.3404 17.45 36.4304C19.95 36.3104 22.04 34.8804 24.44 34.2904C26.76 33.4304 29.3699 33.4404 31.3899 31.9304H31.4Z" fill="white"/>
<path d="M16.3999 36.3301C15.9299 35.9301 15.5499 35.7701 14.9999 36.0201L13.7599 36.3901C12.8999 36.7401 11.5899 36.8301 11.6499 38.0301C12.5899 38.5001 13.2499 37.8601 14.1599 37.6201L15.3499 37.2601C15.9399 37.2001 16.1699 36.8701 16.3999 36.3201V36.3301Z" fill="white"/>
</svg>
