<svg width="55" height="55" viewBox="0 0 55 55" fill="none" xmlns="http://www.w3.org/2000/svg">
<path d="M17.1875 29.7917C15.1479 29.7917 13.1541 29.1869 11.4582 28.0537C9.7623 26.9206 8.44052 25.31 7.65999 23.4256C6.87946 21.5412 6.67524 19.4677 7.07315 17.4673C7.47106 15.4669 8.45323 13.6294 9.89546 12.1871C11.3377 10.7449 13.1752 9.76273 15.1756 9.36482C17.1761 8.96691 19.2496 9.17114 21.1339 9.95166C23.0183 10.7322 24.6289 12.054 25.762 13.7499C26.8952 15.4457 27.5 17.4396 27.5 19.4792C27.497 22.2133 26.4095 24.8345 24.4762 26.7679C22.5429 28.7012 19.9216 29.7886 17.1875 29.7917ZM17.1875 13.75C16.0544 13.75 14.9467 14.086 14.0045 14.7155C13.0624 15.3451 12.3281 16.2398 11.8944 17.2867C11.4608 18.3336 11.3474 19.4855 11.5684 20.5969C11.7895 21.7082 12.3351 22.7291 13.1364 23.5303C13.9376 24.3315 14.9584 24.8772 16.0698 25.0983C17.1811 25.3193 18.3331 25.2059 19.38 24.7722C20.4268 24.3386 21.3216 23.6043 21.9511 22.6621C22.5807 21.72 22.9167 20.6123 22.9167 19.4792C22.9167 17.9597 22.3131 16.5025 21.2386 15.428C20.1642 14.3536 18.707 13.75 17.1875 13.75ZM34.375 45.8333C34.3714 42.7955 33.163 39.8832 31.0149 37.7351C28.8668 35.587 25.9545 34.3786 22.9167 34.375H11.4583C8.42051 34.3786 5.50815 35.587 3.36009 37.7351C1.21202 39.8832 0.00363884 42.7955 0 45.8333L0 55H4.58333V45.8333C4.58333 44.01 5.30766 42.2613 6.59697 40.972C7.88629 39.6827 9.63497 38.9583 11.4583 38.9583H22.9167C24.74 38.9583 26.4887 39.6827 27.778 40.972C29.0673 42.2613 29.7917 44.01 29.7917 45.8333V55H34.375V45.8333ZM40.1042 20.625C38.0645 20.625 36.0707 20.0202 34.3749 18.887C32.679 17.7539 31.3572 16.1433 30.5767 14.2589C29.7961 12.3746 29.5919 10.3011 29.9898 8.30064C30.3877 6.30021 31.3699 4.4627 32.8121 3.02047C34.2544 1.57824 36.0919 0.596067 38.0923 0.198156C40.0927 -0.199754 42.1662 0.00446826 44.0506 0.784997C45.935 1.56553 47.5455 2.8873 48.6787 4.58319C49.8119 6.27907 50.4167 8.27288 50.4167 10.3125C50.4136 13.0466 49.3262 15.6679 47.3929 17.6012C45.4595 19.5345 42.8383 20.622 40.1042 20.625ZM40.1042 4.58334C38.971 4.58334 37.8634 4.91935 36.9212 5.54888C35.9791 6.17841 35.2447 7.07318 34.8111 8.12005C34.3775 9.16692 34.264 10.3189 34.4851 11.4302C34.7061 12.5416 35.2518 13.5624 36.053 14.3636C36.8543 15.1649 37.8751 15.7105 38.9865 15.9316C40.0978 16.1526 41.2498 16.0392 42.2966 15.6056C43.3435 15.1719 44.2383 14.4376 44.8678 13.4955C45.4973 12.5533 45.8333 11.4456 45.8333 10.3125C45.8333 8.79304 45.2297 7.3358 44.1553 6.26137C43.0809 5.18694 41.6236 4.58334 40.1042 4.58334ZM55 36.6667C54.9964 33.6289 53.788 30.7165 51.6399 28.5684C49.4919 26.4204 46.5795 25.212 43.5417 25.2083H34.375V29.7917H43.5417C45.365 29.7917 47.1137 30.516 48.403 31.8053C49.6923 33.0946 50.4167 34.8433 50.4167 36.6667V45.8333H55V36.6667Z" fill="white"/>
</svg>
