<svg width="55" height="55" viewBox="0 0 55 55" fill="none" xmlns="http://www.w3.org/2000/svg">
<path d="M48.125 4.58333H41.25V0H36.6667V4.58333H18.3333V0H13.75V4.58333H6.875C3.08458 4.58333 0 7.66792 0 11.4583V55H55V11.4583C55 7.66792 51.9154 4.58333 48.125 4.58333ZM50.4167 50.4167H4.58333V22.9167H50.4167V50.4167ZM50.4167 18.3333H4.58333V11.4583C4.58333 10.1956 5.61 9.16667 6.875 9.16667H48.125C49.39 9.16667 50.4167 10.1956 50.4167 11.4583V18.3333ZM20.8221 44.4904L14.4467 38.3121L17.639 35.019L24.0396 41.2225L37.3519 28.1577L40.5694 31.4233L27.2938 44.5019C26.4069 45.3888 25.2404 45.831 24.0694 45.831C22.8983 45.831 21.7181 45.3842 20.8221 44.4904Z" fill="white"/>
</svg>
