<svg width="55" height="55" viewBox="0 0 55 55" fill="none" xmlns="http://www.w3.org/2000/svg">
<path d="M48.125 4.58333H41.25V0H36.6667V4.58333H18.3333V0H13.75V4.58333H6.875C5.05164 4.58333 3.30295 5.30766 2.01364 6.59697C0.724328 7.88629 0 9.63497 0 11.4583L0 55H55V11.4583C55 9.63497 54.2757 7.88629 52.9864 6.59697C51.697 5.30766 49.9484 4.58333 48.125 4.58333ZM4.58333 11.4583C4.58333 10.8505 4.82478 10.2677 5.25455 9.83788C5.68432 9.40811 6.26721 9.16667 6.875 9.16667H48.125C48.7328 9.16667 49.3157 9.40811 49.7455 9.83788C50.1752 10.2677 50.4167 10.8505 50.4167 11.4583V18.3333H4.58333V11.4583ZM4.58333 50.4167V22.9167H50.4167V50.4167H4.58333Z" fill="white"/>
<path d="M38.9583 29.7917H34.375V34.375H38.9583V29.7917Z" fill="white"/>
<path d="M29.7917 29.7917H25.2084V34.375H29.7917V29.7917Z" fill="white"/>
<path d="M20.625 29.7917H16.0416V34.375H20.625V29.7917Z" fill="white"/>
<path d="M38.9583 38.9583H34.375V43.5416H38.9583V38.9583Z" fill="white"/>
<path d="M29.7917 38.9583H25.2084V43.5416H29.7917V38.9583Z" fill="white"/>
<path d="M20.625 38.9583H16.0416V43.5416H20.625V38.9583Z" fill="white"/>
</svg>
