<svg width="53" height="56" viewBox="0 0 53 56" fill="none" xmlns="http://www.w3.org/2000/svg">
<path d="M31.0834 29.7917C31.087 30.5971 30.8784 31.3892 30.4784 32.0883C30.0785 32.7874 29.5014 33.3688 28.8052 33.7739C28.1091 34.1789 27.3185 34.3934 26.5131 34.3957C25.7076 34.398 24.9159 34.188 24.2174 33.7868C23.519 33.3857 22.9386 32.8076 22.5347 32.1108C22.1308 31.414 21.9177 30.623 21.9168 29.8176C21.9159 29.0122 22.1272 28.2207 22.5295 27.523C22.9318 26.8253 23.5109 26.2458 24.2084 25.8431V13.75H28.7917V25.8431C29.4864 26.2426 30.0638 26.8177 30.466 27.5107C30.8682 28.2037 31.0811 28.9904 31.0834 29.7917ZM44.9709 12.6935C48.3099 16.2887 50.5271 20.7801 51.3507 25.6169C52.1743 30.4538 51.5685 35.4259 49.6075 39.9235C47.6465 44.4211 44.4156 48.2486 40.311 50.9367C36.2064 53.6249 31.4065 55.0567 26.5001 55.0567C21.5936 55.0567 16.7937 53.6249 12.6891 50.9367C8.58453 48.2486 5.35363 44.4211 3.39264 39.9235C1.43164 35.4259 0.825799 30.4538 1.6494 25.6169C2.473 20.7801 4.69024 16.2887 8.02922 12.6935L5.78797 10.2025L3.7713 12.2192L0.530884 8.97875L7.9788 1.53083L11.2192 4.77125L9.03297 6.9575L11.4346 9.625C15.1522 6.82832 19.5756 5.12294 24.2084 4.70021V0H28.7917V4.70021C33.4245 5.12294 37.8479 6.82832 41.5655 9.625L43.9671 6.95521L41.923 4.91333L45.1657 1.67292L52.4692 8.97875L49.2288 12.2192L47.2121 10.2025L44.9709 12.6935ZM47.1251 29.7917C47.1251 25.7124 45.9154 21.7248 43.6491 18.333C41.3828 14.9413 38.1616 12.2977 34.3929 10.7367C30.6242 9.17559 26.4772 8.76715 22.4763 9.56297C18.4755 10.3588 14.8004 12.3231 11.916 15.2076C9.03151 18.092 7.06717 21.7671 6.27135 25.7679C5.47553 29.7688 5.88398 33.9158 7.44504 37.6845C9.00609 41.4532 11.6497 44.6744 15.0414 46.9407C18.4332 49.207 22.4208 50.4167 26.5001 50.4167C31.9683 50.4106 37.2108 48.2357 41.0774 44.369C44.9441 40.5024 47.119 35.2599 47.1251 29.7917Z" fill="white"/>
</svg>
