<svg width="150" height="103" viewBox="0 0 150 103" fill="none" xmlns="http://www.w3.org/2000/svg">
<g clip-path="url(#clip0_754_403)">
<path d="M5.82327 27.0632L7.58203 37.8345H7.63253L9.45861 26.2456L16.4432 24.6611V45.0491L11.7728 45.2936V30.7042L11.7223 30.7211L9.2314 45.4368L6.02523 45.6054L3.77839 32.1707L3.73632 32.1792V45.7318L0 45.9257V28.3864L5.82327 27.0632Z" fill="black"/>
<path d="M23.9242 22.967V44.6446L18.3113 44.948V24.2397L23.9242 22.967Z" fill="black"/>
<path d="M32.4487 21.037V29.9204L32.5161 29.912L37.6914 19.8486L45.8372 18.0112L38.3898 30.2575L46.7965 43.414L37.9943 43.886L33.8709 35.955L32.4487 38.0621V44.1895L26.0701 44.5266V22.4782L32.4487 21.037Z" fill="black"/>
<path d="M69.5175 12.6509V18.9384L56.6592 21.3826V26.0518L68.6423 24.1302V30.1395L56.6592 31.6398V37.076L70.0476 35.8623V42.1751L47.8401 43.3635V17.5561L69.5175 12.6509Z" fill="black"/>
<path d="M4.04768 57.1774C5.0575 57.2364 5.81486 57.6831 6.30293 58.5428C6.79943 59.4024 7.05188 60.5318 7.05188 61.9225C7.05188 62.4029 7.01822 62.8665 6.9509 63.3132C6.88358 63.7599 6.77418 64.156 6.63954 64.51C6.49648 64.8555 6.31977 65.1505 6.10097 65.3781C5.88218 65.6057 5.62131 65.7489 5.30995 65.8079V65.8585C5.6718 65.9596 5.97474 66.1535 6.23561 66.4569C6.49648 66.7603 6.71528 67.1143 6.87516 67.5357C7.04347 67.9571 7.16969 68.4038 7.24543 68.8927C7.32117 69.3815 7.36324 69.8619 7.36324 70.3424C7.36324 71.1346 7.29592 71.851 7.16969 72.5C7.04347 73.1405 6.8415 73.6799 6.58063 74.1014C6.31135 74.5228 5.96633 74.8178 5.54557 74.9863C5.12482 75.1549 4.61991 75.1718 4.03926 75.0453L0 74.1182V56.9583L4.04768 57.1774ZM3.30715 64.0886C3.59326 64.1223 3.81206 63.9706 3.96353 63.6334C4.115 63.2963 4.19074 62.8833 4.19074 62.3945C4.19074 61.9056 4.115 61.4505 3.96353 61.0712C3.81206 60.692 3.59326 60.4897 3.30715 60.4644L2.65077 60.4054V64.0043L3.30715 64.0886ZM3.40813 71.556C3.66058 71.6066 3.89621 71.4717 4.09817 71.1515C4.30013 70.8312 4.40111 70.2918 4.40111 69.5417C4.40111 68.8421 4.30013 68.2859 4.09817 67.8897C3.89621 67.4936 3.669 67.2745 3.40813 67.2407L2.64235 67.1228V71.4127L3.40813 71.556Z" fill="black"/>
<path d="M8.40667 62.2682C8.54972 61.0545 8.78535 60.0769 9.11354 59.3267C9.44173 58.5682 9.87932 58.0288 10.4263 57.7001C10.9817 57.3629 11.6633 57.2197 12.488 57.2618C13.3211 57.304 14.0364 57.5315 14.6254 57.9361C15.2229 58.3491 15.711 58.9812 16.0729 59.8324C16.4431 60.6921 16.7124 61.7794 16.8807 63.111C17.0406 64.4427 17.1247 66.0525 17.1247 67.9236C17.1247 69.7946 17.0406 71.3792 16.8807 72.6687C16.7124 73.9498 16.4515 74.9696 16.0729 75.7197C15.7026 76.4698 15.2145 76.9503 14.6254 77.161C14.0364 77.3801 13.3211 77.3885 12.488 77.2031C11.6717 77.0177 10.9817 76.689 10.4263 76.2339C9.87932 75.7787 9.44173 75.1297 9.11354 74.2785C8.78535 73.4357 8.54972 72.3906 8.40667 71.1432C8.26361 69.8958 8.19629 68.4124 8.19629 66.6762C8.19629 64.94 8.26361 63.4734 8.40667 62.2682ZM11.4277 70.3172C11.4529 71.1685 11.495 71.8512 11.5708 72.3653C11.6465 72.8794 11.7559 73.2502 11.8989 73.4694C12.042 73.6969 12.2356 73.8318 12.4796 73.8824C12.7236 73.9329 12.9172 73.8739 13.0687 73.6969C13.2117 73.5284 13.3295 73.1912 13.4053 72.7024C13.481 72.2051 13.5315 71.5309 13.5567 70.6712C13.582 69.8115 13.5904 68.7327 13.5904 67.4179C13.5904 66.1031 13.582 65.0243 13.5567 64.1561C13.5315 63.288 13.481 62.5969 13.4053 62.0828C13.3295 61.5687 13.2117 61.2062 13.0687 60.9955C12.9172 60.7848 12.7236 60.6668 12.4796 60.65C12.2356 60.6331 12.042 60.709 11.8989 60.8944C11.7559 61.0798 11.6465 61.4169 11.5708 61.9142C11.495 62.4031 11.4445 63.0773 11.4277 63.9201C11.4025 64.763 11.394 65.8249 11.394 67.1145C11.394 68.404 11.4025 69.466 11.4277 70.3172Z" fill="black"/>
<path d="M21.6521 58.1383L22.8723 64.3078H22.9144L24.1514 58.2816L28.7292 58.5344L25.2874 68.9097L29.0069 80.6081L24.4123 79.5799L22.9144 72.9131L22.8723 72.9047L21.4165 78.9056L17.3856 78.0038L20.6254 68.2691L17.5539 57.9192L21.6605 58.1468L21.6521 58.1383Z" fill="black"/>
<path d="M34.0224 58.8208V81.7289L29.5792 80.7344V58.5764L34.0224 58.8208Z" fill="black"/>
<path d="M41.5539 59.2338L44.9284 74.666L44.9873 74.6744V59.4193L50.1878 59.7058V85.3446L44.1289 83.9877L40.6787 68.3701L40.6198 68.3617V83.2039L36.0504 82.1756V58.9304L41.5539 59.2338Z" fill="black"/>
<path d="M70.0476 74.034V89.7864L65.2005 88.6992L65.049 86.1791L64.9732 86.1623C64.7544 86.7186 64.4347 87.1484 64.0307 87.4518C63.6268 87.7552 63.1724 87.9491 62.6759 88.0334C62.1794 88.1176 61.6577 88.1345 61.0939 88.0839C60.5385 88.0334 59.9831 87.9491 59.4277 87.8227C57.7951 87.4518 56.5329 86.8787 55.624 86.0864C54.7236 85.311 54.0504 84.2996 53.596 83.0523C53.1416 81.8133 52.8639 80.3468 52.7461 78.6443C52.6282 76.9418 52.5693 75.0201 52.5693 72.854C52.5693 70.688 52.6787 68.7495 52.9059 67.0891C53.1331 65.4287 53.5623 64.0465 54.2019 62.9424C54.8498 61.8299 55.7418 61.0039 56.9031 60.4645C58.0812 59.9166 59.6212 59.6891 61.5567 59.7902C62.7348 59.8492 63.8372 60.0768 64.8554 60.4729C65.8905 60.869 66.7909 61.4843 67.5567 62.3018C68.3309 63.1278 68.9368 64.1729 69.3828 65.4372C69.8288 66.7014 70.056 68.2185 70.056 69.98L63.2229 69.2383C63.2229 67.7549 63.1051 66.6677 62.861 65.9681C62.617 65.1422 62.1037 64.7039 61.3127 64.6365C60.7657 64.5943 60.3365 64.6955 60.0251 64.9483C59.7138 65.2012 59.4782 65.6732 59.3267 66.3727C59.1752 67.0638 59.0826 68.0162 59.0322 69.213C58.9817 70.4098 58.9648 71.9185 58.9648 73.7474C58.9648 75.5764 58.9901 77.085 59.0322 78.2987C59.0826 79.5124 59.1752 80.4816 59.3267 81.2233C59.4782 81.965 59.697 82.496 59.9915 82.8331C60.286 83.1702 60.6815 83.3894 61.1696 83.4821C61.523 83.5495 61.8428 83.5411 62.1205 83.44C62.3982 83.3388 62.6338 83.0944 62.8274 82.7067C63.0209 82.319 63.1724 81.7459 63.2818 81.0042C63.3912 80.2541 63.4501 79.2848 63.4501 78.088L61.0686 77.7003V72.854L70.0644 74.0424L70.0476 74.034Z" fill="black"/>
<path d="M0 53.3425L70.0476 54.6995V48.0664L0 49.4149V53.3425Z" fill="black"/>
<path d="M0 24.8971L70.0476 6.64148V0L0 20.9695V24.8971Z" fill="black"/>
<path d="M0 81.7965L70.0476 102.766V96.1245L0 77.8689V81.7965Z" fill="black"/>
<path d="M79.0265 19.4272V13.0891L97.9774 17.3201V22.9586L92.7179 21.9725V42.4954L85.1359 42.074V20.565L79.0265 19.4272Z" fill="black"/>
<path d="M98.7684 17.4971L105.669 19.0394L107.933 27.847L107.991 27.8554L110.179 20.0424L116.188 21.3825L110.853 34.3368V43.5236L104.945 43.1865V33.6204L98.7684 17.4971Z" fill="black"/>
<path d="M123.416 28.6139C123.416 27.9818 123.307 27.4171 123.088 26.9283C122.869 26.4394 122.524 26.1445 122.061 26.0517C121.548 25.9506 121.161 26.0686 120.917 26.4142C120.673 26.7597 120.547 27.1811 120.547 27.6615C120.547 28.3695 120.749 28.9679 121.136 29.4483C121.531 29.9287 122.011 30.367 122.6 30.7547C123.181 31.1424 123.787 31.547 124.443 31.9515C125.083 32.3561 125.68 32.8365 126.227 33.4012C126.774 33.9659 127.22 34.657 127.573 35.483C127.927 36.3005 128.104 37.3288 128.104 38.5762C128.104 40.7507 127.59 42.293 126.564 43.2117C125.512 44.1473 123.963 44.5687 121.876 44.4591C120.867 44.4001 119.966 44.2568 119.167 44.0208C118.367 43.7764 117.677 43.3971 117.113 42.8746C116.55 42.3436 116.112 41.6778 115.809 40.8518C115.506 40.0258 115.355 39.0229 115.355 37.8429V37.0506L120.303 37.5732V38.0873C120.303 39.0229 120.454 39.6887 120.749 40.0932C121.043 40.4894 121.43 40.7085 121.893 40.7507C122.39 40.7928 122.768 40.6242 123.029 40.245C123.29 39.8741 123.416 39.3937 123.416 38.8206C123.416 38.1295 123.24 37.5563 122.869 37.1096C122.507 36.6629 122.045 36.2584 121.481 35.896C120.917 35.5336 120.294 35.1627 119.621 34.7666C118.939 34.3704 118.3 33.89 117.711 33.3085C117.113 32.7269 116.608 32.0021 116.205 31.1256C115.801 30.249 115.599 29.1449 115.599 27.8133C115.599 25.5208 116.146 23.8857 117.231 22.9249C118.291 21.9725 119.882 21.7449 121.944 22.2169C124.014 22.6804 125.461 23.5233 126.345 24.7369C127.212 25.9337 127.649 27.6278 127.649 29.8276L123.399 29.0859V28.5802L123.416 28.6139Z" fill="black"/>
<path d="M128.996 29.5411C129.198 28.2432 129.526 27.2234 129.98 26.4733C130.435 25.7316 131.024 25.2512 131.747 25.032C132.463 24.8129 133.329 24.8213 134.339 25.0489C135.332 25.2764 136.157 25.6389 136.822 26.153C137.478 26.6587 138 27.3414 138.395 28.2095C138.791 29.0607 139.068 30.1227 139.237 31.3785C139.405 32.6259 139.489 34.1261 139.489 35.8539C139.489 37.5817 139.405 39.0567 139.237 40.2619C139.068 41.4672 138.791 42.4533 138.395 43.195C138 43.9451 137.478 44.476 136.822 44.771C136.157 45.0745 135.332 45.2009 134.339 45.1419C133.329 45.0829 132.463 44.8638 131.747 44.4761C131.024 44.0799 130.435 43.4478 129.98 42.5881C129.526 41.7116 129.198 40.599 128.996 39.2421C128.794 37.8851 128.693 36.2501 128.693 34.3537C128.693 32.4573 128.794 30.8475 128.996 29.5496V29.5411ZM133.035 38.2391C133.06 39.1157 133.127 39.8152 133.22 40.3293C133.313 40.8519 133.447 41.2143 133.624 41.4334C133.801 41.6526 134.036 41.7706 134.339 41.7959C134.634 41.8211 134.869 41.7369 135.046 41.5599C135.214 41.3744 135.349 41.0373 135.442 40.54C135.534 40.0428 135.593 39.3769 135.618 38.5257C135.644 37.6744 135.66 36.6125 135.66 35.3229C135.66 34.0334 135.644 32.963 135.618 32.1033C135.593 31.2437 135.534 30.561 135.442 30.0384C135.349 29.5159 135.223 29.145 135.046 28.909C134.869 28.6815 134.642 28.5298 134.339 28.4708C134.045 28.4118 133.809 28.4708 133.624 28.6309C133.447 28.7995 133.313 29.1282 133.22 29.6254C133.127 30.1227 133.068 30.8054 133.035 31.6651C133.01 32.5332 132.993 33.6204 132.993 34.9437C132.993 36.2669 133.01 37.3626 133.035 38.2307V38.2391Z" fill="black"/>
<path d="M144.075 27.6027L146.154 38.8123H146.196V28.0747L149.074 28.7153V45.6645L145.683 45.4791L143.503 34.3116L143.47 34.3032V45.3527L140.255 45.1757V26.7515L144.075 27.6027Z" fill="black"/>
<path d="M94.2747 64.9146C93.896 64.4004 93.2733 64.1813 92.4066 64.2487C91.7249 64.3077 91.178 64.4847 90.774 64.7966C90.3617 65.1084 90.0419 65.631 89.8315 66.3558C89.6127 67.0891 89.4781 68.0583 89.4024 69.272C89.335 70.4857 89.3014 72.0112 89.3014 73.8485C89.3014 75.6859 89.335 77.1946 89.4024 78.3914C89.4697 79.5882 89.6127 80.5237 89.8315 81.1896C90.0503 81.8554 90.3617 82.2937 90.774 82.4875C91.1864 82.6814 91.7333 82.7151 92.4066 82.5802C92.9535 82.4707 93.3995 82.2768 93.753 81.9987C94.098 81.7205 94.3673 81.316 94.5608 80.7934C94.746 80.2709 94.8806 79.5798 94.9648 78.7454C95.0405 77.911 95.0826 76.8659 95.0826 75.61L103.069 74.3627V76.2169C103.069 77.9615 102.791 79.4449 102.219 80.6754C101.646 81.9144 100.889 82.9595 99.9297 83.8192C98.9535 84.6873 97.8343 85.3784 96.5384 85.901C95.2256 86.4235 93.854 86.8534 92.415 87.1821C89.8568 87.7636 87.7025 88.008 85.969 87.8985C84.2018 87.7973 82.7965 87.2579 81.7782 86.2887C80.7432 85.311 80.0195 83.9035 79.6324 82.083C79.2369 80.2456 79.0349 77.97 79.0349 75.2645C79.0349 72.559 79.2705 70.1401 79.7418 68.1679C80.213 66.2125 81.0041 64.6027 82.1064 63.3553C83.2004 62.1164 84.6141 61.1893 86.3392 60.5824C88.0223 59.984 90.0587 59.63 92.415 59.512C94.4262 59.4109 96.084 59.512 97.4304 59.8323C98.7516 60.1442 99.8035 60.6246 100.603 61.2735C101.394 61.9141 101.966 62.7063 102.32 63.6503C102.673 64.5859 102.85 65.6647 102.85 66.8783V68.446L94.8385 69.3731V67.8982C94.8385 66.3979 94.6534 65.395 94.2747 64.8893V64.9146Z" fill="black"/>
<path d="M112.99 58.9304V77.2366L120.892 75.7533V80.4225L105.82 83.7854V59.3265L112.99 58.9304Z" fill="black"/>
<path d="M127.86 73.0816C127.86 74.093 128.003 74.7335 128.297 75.0201C128.583 75.2982 128.979 75.3909 129.475 75.2982C129.963 75.1971 130.35 74.9611 130.628 74.5734C130.906 74.1941 131.04 73.5114 131.04 72.5253V57.9528L135.972 57.6831V70.3845C135.972 71.7415 135.837 72.8961 135.559 73.857C135.282 74.8178 134.886 75.6353 134.356 76.2927C133.817 76.9586 133.153 77.4811 132.345 77.8688C131.529 78.2565 130.569 78.5768 129.467 78.8296C128.356 79.0825 127.355 79.2005 126.454 79.1836C125.545 79.1668 124.771 78.9392 124.148 78.4757C123.517 78.0121 123.029 77.3041 122.693 76.3602C122.356 75.4162 122.188 74.1772 122.188 72.6601V58.4332L127.86 58.1214V73.0816Z" fill="black"/>
<path d="M144.597 57.2026C146.028 57.1267 147.054 57.4639 147.711 58.214C148.35 58.9557 148.67 59.9755 148.67 61.2734C148.67 61.7201 148.628 62.1668 148.535 62.6051C148.451 63.0434 148.317 63.4479 148.132 63.8104C147.946 64.1812 147.711 64.5099 147.425 64.788C147.139 65.0662 146.777 65.2853 146.364 65.4454V65.496C146.852 65.4792 147.265 65.5719 147.61 65.7826C147.946 65.9849 148.224 66.2546 148.443 66.6001C148.662 66.9372 148.813 67.3165 148.914 67.7464C149.015 68.1678 149.066 68.606 149.066 69.0527C149.066 69.786 148.981 70.4856 148.822 71.143C148.662 71.8004 148.409 72.3903 148.064 72.9129C147.719 73.4354 147.265 73.8906 146.693 74.2698C146.12 74.6491 145.413 74.9357 144.58 75.1211L138.101 76.5708V57.5566L144.58 57.2026H144.597ZM143.503 64.3582C143.932 64.3076 144.252 64.0885 144.471 63.7008C144.69 63.3215 144.799 62.8832 144.799 62.3944C144.799 61.9056 144.69 61.4673 144.471 61.1217C144.252 60.7762 143.932 60.616 143.503 60.6497L142.493 60.734V64.4678L143.503 64.3413V64.3582ZM143.655 71.9352C144.033 71.8594 144.37 71.6149 144.665 71.202C144.951 70.789 145.094 70.2074 145.094 69.4573C145.094 68.7578 144.951 68.2436 144.665 67.9233C144.378 67.6031 144.042 67.4682 143.655 67.5272L142.493 67.7042V72.1543L143.655 71.9352Z" fill="black"/>
<path d="M79.0265 54.6995L149.074 53.3425V49.4149L79.0265 48.0664V54.6995Z" fill="black"/>
<path d="M79.0265 6.64148L149.074 24.8971V20.9695L79.0265 0V6.64148Z" fill="black"/>
<path d="M79.0265 102.766L149.074 81.7965V77.8689L79.0265 96.1245V102.766Z" fill="black"/>
</g>
<defs>
<clipPath id="clip0_754_403">
<rect width="149.074" height="102.766" fill="white"/>
</clipPath>
</defs>
</svg>
